<?xml version="1.0" encoding="utf-8"?>
<!-- Generator: Adobe Illustrator 16.0.0, SVG Export Plug-In . SVG Version: 6.00 Build 0)  -->
<!DOCTYPE svg PUBLIC "-//W3C//DTD SVG 1.1//EN" "http://www.w3.org/Graphics/SVG/1.1/DTD/svg11.dtd">
<svg version="1.1" xmlns="http://www.w3.org/2000/svg" xmlns:xlink="http://www.w3.org/1999/xlink" x="0px" y="0px"
	 width="283.464px" height="283.465px" viewBox="-1091.957 155.667 283.464 283.465"
	 enable-background="new -1091.957 155.667 283.464 283.465" xml:space="preserve">
<g id="fond" display="none">
	<circle display="inline" fill="#FFFFFF" cx="-916.652" cy="142.03" r="141.116"/>
	<circle display="inline" opacity="0.3" fill="#20558A" cx="-916.652" cy="142.03" r="141.116"/>
	<path display="inline" fill="#20558A" d="M-816.868,42.244c55.11,55.11,55.11,144.46,0,199.57
		c-55.109,55.108-144.458,55.108-199.569-0.002"/>
	<circle display="inline" fill="#20558A" cx="-916.652" cy="444.105" r="141.116"/>
</g>
<g id="_x2D_--" display="none">
	<rect x="-1091.751" y="-881.952" display="inline" fill="#717881" width="283.996" height="2394.188"/>
	<rect x="-1421.522" y="-171.185" display="inline" fill="#FFFFFF" width="2504.369" height="1248.557"/>
</g>
<g id="fond_-_copie" display="none">
	<circle display="inline" fill="#717881" cx="-916.652" cy="142.03" r="141.116"/>
	<circle display="inline" fill="#717881" cx="-916.652" cy="142.03" r="141.116"/>
	<circle display="inline" fill="#717881" cx="-916.652" cy="444.105" r="141.116"/>
</g>
<g id="A" display="none">
	<g display="inline">
		<path fill="#FFFFFF" d="M-806.488,447.425c0,29.981-10.572,55.543-31.714,76.685c-21.145,21.145-46.706,31.714-76.685,31.714
			c-29.981,0-55.543-10.569-76.685-31.714c-21.145-21.142-31.714-46.703-31.714-76.685c0-29.979,10.569-55.54,31.714-76.685
			c21.142-21.142,46.703-31.714,76.685-31.714c29.979,0,55.54,10.572,76.685,31.714
			C-817.061,391.885-806.488,417.445-806.488,447.425z M-914.887,445.667l0.146,3.516c0.682,13.966,5.834,25.587,15.454,34.863
			c9.617,9.278,21.313,13.916,35.083,13.916c14.257,0,26.243-5.003,35.962-15.015c9.716-10.009,14.575-22.387,14.575-37.134
			c0-27.147-9.986-50.537-29.956-70.166c-19.973-19.629-43.726-29.443-71.265-29.443c-28.224,0-51.734,9.4-70.532,28.198
			c-18.801,18.801-29.029,43.14-30.688,73.022c2.146-16.601,7.519-29.198,16.113-37.793c8.592-8.593,20.116-12.891,34.57-12.891
			c13.77,0,25.438,4.665,35.01,13.989C-920.845,420.058-915.67,431.703-914.887,445.667z M-951.068,447.425
			c0-4.003-1.392-7.421-4.175-10.254c-2.783-2.831-6.178-4.248-10.181-4.248c-4.006,0-7.423,1.417-10.254,4.248
			c-2.834,2.833-4.248,6.251-4.248,10.254c0,4.005,1.414,7.423,4.248,10.254c2.831,2.833,6.248,4.248,10.254,4.248
			c3.904,0,7.273-1.439,10.107-4.321C-952.485,454.727-951.068,451.332-951.068,447.425z M-849.848,447.425
			c0,4.005-1.417,7.423-4.248,10.254c-2.834,2.833-6.203,4.248-10.107,4.248c-4.006,0-7.423-1.415-10.254-4.248
			c-2.834-2.831-4.248-6.249-4.248-10.254c0-4.003,1.414-7.421,4.248-10.254c2.831-2.831,6.248-4.248,10.254-4.248
			c4.003,0,7.397,1.417,10.181,4.248C-851.239,440.004-849.848,443.422-849.848,447.425z"/>
	</g>
	<g id="Calque_2" display="inline">
	</g>
	<g id="Calque_7" display="inline">
	</g>
</g>
<g id="B" display="none">
	<circle display="inline" fill="#FFFFFF" cx="-916.652" cy="142.03" r="141.116"/>
	<circle display="inline" opacity="0.3" fill="#20558A" cx="-916.652" cy="142.03" r="141.116"/>
	<path display="inline" fill="#20558A" d="M-816.868,42.244c55.11,55.11,55.11,144.46,0,199.57
		c-55.109,55.108-144.458,55.108-199.569-0.002"/>
	<g display="inline">
		<path fill="#20558A" d="M-983.948,54.513c6.446-0.031,11.952,2.236,16.517,6.801c4.566,4.566,6.833,10.071,6.801,16.517
			c-0.03,6.447-2.313,11.937-6.848,16.471c-4.533,4.534-10.009,6.802-16.424,6.801c-6.415,0.001-11.904-2.281-16.471-6.847
			c-4.564-4.564-6.848-10.054-6.847-16.471c-0.001-6.414,2.267-11.891,6.8-16.424C-995.885,56.826-990.395,54.544-983.948,54.513z
			 M-979.831,107.395c-1.356,3.085-2.405,5.645-3.146,7.68s-1.48,4.473-2.221,7.31c-0.74,2.84-1.08,5.337-1.018,7.495
			c0.061,2.16,0.492,4.443,1.295,6.848c0.803,2.407,2.098,4.689,3.887,6.847l31.738,31.738l62.922-62.921l-31.738-31.738
			c-1.234-1.233-2.592-2.221-4.072-2.961c-1.48-0.741-2.9-1.264-4.256-1.573c-1.357-0.308-3.07-0.354-5.136-0.139
			c-2.067,0.217-3.825,0.464-5.274,0.74c-1.45,0.279-3.377,0.819-5.783,1.62c-2.406,0.804-4.303,1.466-5.691,1.989
			c-1.387,0.526-3.406,1.312-6.061,2.36c-0.68,6.601-3.301,12.184-7.865,16.748C-967.062,104.248-972.921,106.901-979.831,107.395z"
			/>
	</g>
	<g display="inline">
		<g>
			<path fill="#C89108" d="M-874.037,184.82c-4.429,4.429-6.971,9.844-7.631,16.248c-2.574,1.018-4.533,1.779-5.879,2.289
				c-1.348,0.508-3.188,1.15-5.521,1.931c-2.334,0.776-4.204,1.3-5.611,1.571c-1.406,0.268-3.11,0.507-5.116,0.718
				c-2.005,0.209-3.665,0.165-4.982-0.135c-1.315-0.3-2.692-0.808-4.13-1.526c-1.436-0.718-2.753-1.676-3.949-2.872l-30.791-30.791
				l61.043-61.043L-855.814,142c1.736,2.093,2.992,4.308,3.771,6.642c0.777,2.332,1.197,4.548,1.256,6.644
				c0.061,2.095-0.269,4.517-0.987,7.271c-0.719,2.752-1.437,5.116-2.154,7.092s-1.736,4.458-3.052,7.45
				C-863.685,177.578-869.369,180.152-874.037,184.82z M-837.007,221.761c4.398-4.398,6.599-9.712,6.598-15.935
				c0-6.225-2.215-11.551-6.643-15.979c-4.43-4.43-9.756-6.645-15.979-6.643c-6.223-0.002-11.535,2.199-15.934,6.598
				c-4.399,4.398-6.613,9.725-6.643,15.979c-0.031,6.254,2.168,11.595,6.598,16.024c4.428,4.428,9.77,6.628,16.023,6.598
				S-841.406,226.16-837.007,221.761z"/>
		</g>
	</g>
	<g display="inline">
		<path fill="#FFFFFF" d="M-938.242,378.686l-21.357,28.74l22.465,30.322h-11.443l-17.191-23.203l-17.191,23.203h-11.443
			l22.939-30.902l-20.988-28.16h11.443l15.662,21.041l15.662-21.041H-938.242z"/>
		<path fill="#FFFFFF" d="M-870.296,370.037v29.373h29.373v8.965h-29.373v29.373h-8.859v-29.373h-29.373v-8.965h29.373v-29.373
			H-870.296z"/>
	</g>
</g>
<g id="C" display="none">
</g>
<g id="mail">
</g>
<g id="annuaire">
	<g>
		<path fill="#AAAFB9" d="M-1087.073,298.706c0-38.672,13.425-71.433,40.283-98.291c26.854-26.854,59.619-40.283,98.291-40.283
			c38.884,0,71.755,13.43,98.613,40.283c26.854,26.858,40.283,59.619,40.283,98.291c0,38.889-13.43,71.704-40.283,98.452
			c-26.858,26.748-59.729,40.122-98.613,40.122c-38.672,0-71.599-13.696-98.774-41.089
			C-1074.454,368.799-1087.718,336.306-1087.073,298.706z M-879.212,371.538c-0.433-43.828-10.313-75.193-29.648-94.102
			l-1.289-9.023c16.113,2.15,24.275,11.602,24.492,28.359h37.383c3.435-10.096,1.717-22.126-5.156-36.094
			c-11.818-15.469-30.726-23.203-56.719-23.203h-69.609c-32.871,0-53.068,8.167-60.586,24.492
			c-7.951,13.107-8.812,24.709-2.578,34.805h37.383c2.361-16.758,10.957-26.209,25.781-28.359v9.023
			c-18.691,19.769-28.576,51.135-29.648,94.102H-879.212z M-970.735,323.843c0-7.09,2.417-13.157,7.251-18.208
			c4.834-5.046,10.796-7.573,17.886-7.573s13.052,2.527,17.886,7.573c4.834,5.051,7.251,11.118,7.251,18.208
			s-2.417,13.162-7.251,18.208c-4.834,5.051-10.796,7.573-17.886,7.573s-13.052-2.522-17.886-7.573
			C-968.318,337.005-970.735,330.933-970.735,323.843z M-968.157,273.569v-5.156h47.695v5.156H-968.157z"/>
	</g>
</g>
</svg>
