<?xml version="1.0" encoding="utf-8"?>
<!-- Generator: Adobe Illustrator 16.0.0, SVG Export Plug-In . SVG Version: 6.00 Build 0)  -->
<!DOCTYPE svg PUBLIC "-//W3C//DTD SVG 1.1//EN" "http://www.w3.org/Graphics/SVG/1.1/DTD/svg11.dtd">
<svg version="1.1" xmlns="http://www.w3.org/2000/svg" xmlns:xlink="http://www.w3.org/1999/xlink" x="0px" y="0px"
	 width="283.464px" height="283.465px" viewBox="-780.146 155.667 283.464 283.465"
	 enable-background="new -780.146 155.667 283.464 283.465" xml:space="preserve">
<g id="fond" display="none">
	<circle display="inline" fill="#FFFFFF" cx="-916.652" cy="142.03" r="141.116"/>
	<circle display="inline" opacity="0.3" fill="#20558A" cx="-916.652" cy="142.03" r="141.116"/>
	<path display="inline" fill="#20558A" d="M-816.868,42.244c55.11,55.11,55.11,144.46,0,199.57
		c-55.109,55.108-144.458,55.108-199.569-0.002"/>
	<circle display="inline" fill="#20558A" cx="-614.578" cy="142.029" r="141.116"/>
	<circle display="inline" fill="#20558A" cx="-916.652" cy="444.105" r="141.116"/>
	<circle display="inline" fill="#20558A" cx="-614.578" cy="444.105" r="141.116"/>
</g>
<g id="FOND_blanc">
	<rect x="-1421.522" y="-171.185" fill="#FFFFFF" width="2504.369" height="1248.557"/>
</g>
<g id="fond_-_copie" display="none">
	<circle display="inline" fill="#717881" cx="-916.652" cy="142.03" r="141.116"/>
	<circle display="inline" fill="#717881" cx="-916.652" cy="142.03" r="141.116"/>
	<circle display="inline" fill="#717881" cx="-614.578" cy="142.029" r="141.116"/>
	<circle display="inline" fill="#717881" cx="-916.652" cy="444.105" r="141.116"/>
	<circle display="inline" fill="#717881" cx="-614.578" cy="444.105" r="141.116"/>
</g>
<g id="A" display="none">
	<g display="inline">
		<path fill="#FFFFFF" d="M-655.517,188.06c-0.814,3.012-2.075,5.737-3.784,8.179c19.531,28.973,45.49,34.14,77.881,15.503
			l9.888,17.212c-43.783,25.309-78.777,17.78-104.98-22.583c-3.012,0.326-6.146,0.042-9.399-0.854
			c-6.592-1.709-11.597-5.533-15.015-11.475c-3.418-5.939-4.23-12.227-2.441-18.859s5.615-11.616,11.475-14.954
			c5.939-3.418,12.227-4.251,18.859-2.503c6.633,1.752,11.658,5.555,15.076,11.414C-654.541,175.08-653.728,181.388-655.517,188.06z
			 M-616.821,97.483c-2.279-2.277-4.028-4.719-5.249-7.324c-34.832,2.441-52.246,22.299-52.246,59.57h-20.02
			c0-50.617,24.048-77.148,72.144-79.59c1.221-2.848,3.01-5.411,5.371-7.69c4.801-4.883,10.66-7.324,17.578-7.324
			c6.754,0,12.553,2.422,17.396,7.263c4.841,4.843,7.263,10.681,7.263,17.517s-2.422,12.676-7.263,17.517
			c-4.843,4.843-10.642,7.263-17.396,7.263C-606.161,104.686-612.02,102.286-616.821,97.483z M-556.152,176.097
			c3.092-0.813,6.062-1.099,8.911-0.854c15.381-31.412,6.916-56.477-25.391-75.195l9.888-17.212
			c43.863,25.311,54.85,59.408,32.959,102.295c1.789,2.441,3.132,5.249,4.028,8.423c1.789,6.674,0.935,12.981-2.563,18.921
			c-3.338,5.859-8.321,9.686-14.953,11.475c-6.634,1.791-12.921,0.977-18.86-2.441c-5.941-3.418-9.786-8.442-11.536-15.075
			s-0.957-12.919,2.381-18.86C-567.791,181.712-562.744,177.888-556.152,176.097z"/>
	</g>
	<g id="Calque_2" display="inline">
	</g>
	<g id="Calque_7" display="inline">
	</g>
	<g display="inline">
		<path fill="#FFFFFF" d="M-678.144,424.56v-27.441h27.441v27.441H-678.144z"/>
	</g>
	<g display="inline">
		<path fill="#FFFFFF" d="M-605.217,446.947l14.416,14.7l-20.935,5.821L-605.217,446.947z M-547.88,423.805l-36.264,35.482
			l-17.803-18.149l36.265-35.482L-547.88,423.805z M-556.6,396.724c6.044-5.914,10.555-7.356,13.532-4.329l8.871,9.066
			c2.977,3.028,1.443,7.499-4.6,13.412l-4.542,4.466l-17.802-18.149L-556.6,396.724z"/>
	</g>
</g>
<g id="B" display="none">
	<circle display="inline" fill="#FFFFFF" cx="-916.652" cy="142.03" r="141.116"/>
	<circle display="inline" opacity="0.3" fill="#20558A" cx="-916.652" cy="142.03" r="141.116"/>
	<path display="inline" fill="#20558A" d="M-816.868,42.244c55.11,55.11,55.11,144.46,0,199.57
		c-55.109,55.108-144.458,55.108-199.569-0.002"/>
	<path display="inline" fill="#FFFFFF" d="M-621.561,175.306c0-90-93-116-92-114l-4,4c6,40-20,90,90,153v1c6.627,0,5-23.373,5-30"/>
	<path display="inline" fill="#FFFFFF" d="M-609.826,204.307c0-90,93-116,92-114l4,4c-6,40,20,90-90,153v1c-6.627,0-5-23.373-5-30"
		/>
	<path display="inline" opacity="0.8" fill="#C89108" d="M-621.561,175.305c0-90-93-116-92-114l-4,4c6,40-20,90,90,153v1
		c6.627,0,5-23.373,5-30"/>
	<path display="inline" opacity="0.6" fill="#C89108" d="M-609.826,204.306c0-90,93-116,92-114l4,4c-6,40,20,90-90,153v1
		c-6.627,0-5-23.373-5-30"/>
	
		<circle display="inline" fill="none" stroke="#FFFFFF" stroke-width="8" stroke-miterlimit="10" cx="-652.787" cy="405.079" r="26.253"/>
	
		<rect x="-600.023" y="381.826" display="inline" opacity="0.7" fill="none" stroke="#FFFFFF" stroke-width="8" stroke-miterlimit="10" width="48.004" height="48.004"/>
</g>
<g id="C" display="none">
</g>
<g id="mail" display="none">
</g>
<g id="annuaire">
	<g>
		<path fill="#AAAFB9" d="M-584.692,238.716c0,12.246-3.086,23.797-9.251,34.644c-6.172,10.852-14.539,20.036-25.112,27.554
			l-60.042,140.83l-60.042-140.83c-10.574-7.518-18.946-16.702-25.112-27.554c-6.172-10.847-9.252-22.397-9.252-34.644
			c0-22.342,9.187-41.355,27.566-57.041c18.374-15.681,40.653-23.525,66.839-23.525c26.18,0,48.459,7.845,66.839,23.525
			C-593.885,197.36-584.692,216.374-584.692,238.716z M-705.531,238.716c0,6.233,2.579,11.551,7.741,15.952
			c5.157,4.406,11.388,6.606,18.692,6.606c7.299,0,13.529-2.2,18.692-6.606c5.157-4.401,7.741-9.719,7.741-15.952
			c0-6.229-2.584-11.546-7.741-15.952c-5.163-4.401-11.394-6.606-18.692-6.606c-7.305,0-13.535,2.205-18.692,6.606
			C-702.952,227.17-705.531,232.487-705.531,238.716z"/>
	</g>
</g>
</svg>
