<?xml version="1.0" encoding="utf-8"?>
<!-- Generator: Adobe Illustrator 16.0.0, SVG Export Plug-In . SVG Version: 6.00 Build 0)  -->
<!DOCTYPE svg PUBLIC "-//W3C//DTD SVG 1.1//EN" "http://www.w3.org/Graphics/SVG/1.1/DTD/svg11.dtd">
<svg version="1.1" xmlns="http://www.w3.org/2000/svg" xmlns:xlink="http://www.w3.org/1999/xlink" x="0px" y="0px"
	 width="283.464px" height="283.465px" viewBox="-1091.957 779.29 283.464 283.465"
	 enable-background="new -1091.957 779.29 283.464 283.465" xml:space="preserve">
<g id="fond" display="none">
	<circle display="inline" fill="#20558A" cx="-916.652" cy="746.181" r="141.116"/>
	<circle display="inline" fill="#20558A" cx="-916.652" cy="1048.256" r="141.116"/>
</g>
<g id="FOND_blanc">
	<rect x="-1091.751" y="-881.952" fill="#717881" width="283.996" height="2394.188"/>
	<rect x="-1421.522" y="-171.185" fill="#FFFFFF" width="2504.369" height="1248.557"/>
</g>
<g id="fond_-_copie" display="none">
	<circle display="inline" fill="#D5DCEA" cx="-916.652" cy="746.181" r="141.116"/>
	<circle display="inline" fill="#D5DCEA" cx="-916.652" cy="1048.256" r="141.116"/>
</g>
<g id="A" display="none">
	<g id="Calque_2" display="inline">
	</g>
	<g id="Calque_7" display="inline">
	</g>
</g>
<g id="B" display="none">
	<g display="inline">
		<path fill="#FFFFFF" stroke="#FFFFFF" stroke-width="8" stroke-miterlimit="10" d="M-920.352,683.637
			c-8.086,0-14.08,1.864-17.982,5.59c-3.902,3.728-3.675,7.349,0.686,10.863c5.203,4.149,7.083,8.912,5.643,14.291
			c-1.442,5.379-5.326,8.068-11.654,8.068c-4.008,0-7.383-1.669-10.125-5.01c-2.742-3.339-4.113-7.399-4.113-12.182
			c0-8.648,4.061-16.013,12.182-22.096c8.121-6.081,17.982-9.123,29.584-9.123c11.953,0,21.885,3.499,29.795,10.494
			c7.91,6.997,11.865,15.804,11.865,26.42c0,7.243-1.6,13.8-4.799,19.67c-3.2,5.872-8.385,11.796-15.557,17.771
			c-8.579,7.032-14.396,13.289-17.455,18.773s-4.588,12.34-4.588,20.566v3.164h-8.648v-7.805c0-6.819,1.335-13.587,4.008-20.303
			c2.671-6.714,6.714-13.447,12.129-20.197c4.43-5.554,7.699-10.88,9.809-15.979c2.109-5.097,3.164-10.317,3.164-15.662
			c0-8.999-2.04-15.82-6.117-20.461C-906.536,685.923-912.478,683.637-920.352,683.637z M-921.196,809.566
			c3.726,0,6.89,1.302,9.492,3.902c2.601,2.603,3.902,5.767,3.902,9.492c0,3.728-1.302,6.874-3.902,9.439
			c-2.602,2.565-5.766,3.85-9.492,3.85c-3.728,0-6.892-1.284-9.492-3.85c-2.602-2.565-3.902-5.712-3.902-9.439
			c0-3.726,1.3-6.89,3.902-9.492C-928.087,810.868-924.923,809.566-921.196,809.566z"/>
	</g>
</g>
<g id="C" display="none">
	<path display="inline" fill="#FFFFFF" d="M-969.934,797.241c-12.447-37.039,9.317-78.418,49.28-97.398l-14.993-24.848l65.27,9.916
		l-17.466,69.321l-19.999-33.168c-31.451,21.05-47.234,57.197-36.228,89.949c4.291,12.771,12.152,23.485,22.35,31.688
		C-944.335,835.336-962.488,819.399-969.934,797.241z"/>
</g>
<g id="mail" display="none">
</g>
<g id="annuaire">
	<g>
		<g>
			<path fill="#AAAFB9" d="M-1069.81,993.304h12.202c2.323,0,5.229,7.556,8.716,22.661h1.743l3.486-10.459
				c-2.326-3.718-3.486-6.624-3.486-8.716h12.202v1.743l-3.486,5.229l3.486,12.202h1.743c3.138-15.105,6.041-22.661,8.716-22.661
				h8.716c15.105,1.86,22.661,8.833,22.661,20.918v26.147c0,2.326-1.163,3.486-3.486,3.486h-88.901c-2.326,0-3.486-1.16-3.486-3.486
				v-24.404C-1086.893,1000.859-1080.503,993.304-1069.81,993.304z M-1041.919,930.55h1.743c13.945,0,23.241,10.459,27.891,31.377
				v3.486c-11.622,14.411-17.432,21.964-17.432,22.661c-4.998,3.486-9.647,5.229-13.945,5.229
				c-5.813-1.046-13.365-9.179-22.661-24.404c-2.326,0-3.486-1.16-3.486-3.486v-8.716c2.092-2.44,5.578-9.413,10.459-20.918
				C-1051.915,932.293-1046.103,930.55-1041.919,930.55z M-970.449,867.971h1.743c2.672,0,6.158,9.879,10.459,29.633
				c3.021,0,5.344-4.646,6.973-13.945c-3.486-4.531-5.229-8.018-5.229-10.459h15.514v3.486c-3.486,3.721-5.229,6.625-5.229,8.717
				c3.486,5.813,5.229,9.879,5.229,12.201h1.744c4.646-19.754,8.133-29.633,10.459-29.633c25.564,1.279,38.35,9.996,38.35,26.146
				v31.203c0,2.326-1.163,3.486-3.486,3.486h-109.646c-2.326,0-3.486-1.16-3.486-3.486v-25.973
				C-1007.056,878.43-994.854,867.971-970.449,867.971z M-954.761,794.758h10.284c13.598,0,22.894,9.879,27.891,29.633
				c2.324,0.35,3.486,1.512,3.486,3.486v1.744c0,5.229-3.486,10.459-10.459,15.688c0,8.602-8.135,16.734-24.404,24.404
				c-10.459,0-19.697-9.295-27.716-27.891c-4.301,0-7.207-3.486-8.716-10.459c8.019-19.057,13.828-30.096,17.432-33.119
				L-954.761,794.758z M-953.018,935.779h10.285c2.323,0.466,3.486,1.629,3.486,3.486v57.524h24.404
				c2.323,0.349,3.486,1.512,3.486,3.486v10.459c0,2.326-1.163,3.486-3.486,3.486h-66.066c-2.326,0-3.486-1.16-3.486-3.486v-10.459
				c0.349-2.323,1.509-3.486,3.486-3.486h24.404v-57.524C-956.155,936.942-954.995,935.779-953.018,935.779z M-885.209,993.304
				h12.203c2.323,0,5.229,7.556,8.715,22.661c2.324,0,4.067-3.486,5.23-10.459c-2.326-3.718-3.486-6.624-3.486-8.716h12.201v1.743
				l-3.486,5.229l3.486,12.202h1.744c3.137-15.105,6.041-22.661,8.715-22.661h12.203c9.645,0,16.037,6.973,19.174,20.918v26.147
				c0,2.326-1.162,3.486-3.486,3.486h-88.9c-2.326,0-3.486-1.16-3.486-3.486v-24.404
				C-902.291,1000.859-895.901,993.304-885.209,993.304z M-857.318,930.55h3.486c12.203,0,20.918,10.459,26.148,31.377v3.486
				c-6.973,6.741-10.459,11.971-10.459,15.688c-8.367,8.136-14.76,12.202-19.176,12.202c-5.926,0-14.062-8.133-24.404-24.404
				c-2.325,0-3.486-1.16-3.486-3.486v-8.716c5.928-11.736,11.156-19.872,15.689-24.404L-857.318,930.55z"/>
		</g>
	</g>
</g>
</svg>
