<?xml version="1.0" encoding="utf-8"?>
<!-- Generator: Adobe Illustrator 16.0.0, SVG Export Plug-In . SVG Version: 6.00 Build 0)  -->
<!DOCTYPE svg PUBLIC "-//W3C//DTD SVG 1.1//EN" "http://www.w3.org/Graphics/SVG/1.1/DTD/svg11.dtd">
<svg version="1.1" xmlns="http://www.w3.org/2000/svg" xmlns:xlink="http://www.w3.org/1999/xlink" x="0px" y="0px"
	 width="283.464px" height="283.465px" viewBox="-1403.768 155.667 283.464 283.465"
	 enable-background="new -1403.768 155.667 283.464 283.465" xml:space="preserve">
<g id="fond" display="none">
</g>
<g id="_x2D_--" display="none">
	<rect x="-1421.522" y="-171.185" display="inline" fill="#FFFFFF" width="2504.369" height="1248.557"/>
</g>
<g id="fond_-_copie" display="none">
</g>
<g id="A" display="none">
	<g id="Calque_2" display="inline">
	</g>
	<g id="Calque_7" display="inline">
	</g>
</g>
<g id="B" display="none">
</g>
<g id="C" display="none">
</g>
<g id="mail">
</g>
<g id="annuaire">
	<g>
		<path fill="#AAAFB9" d="M-1400.075,298.705c0-38.672,13.424-71.432,40.283-98.291c26.854-26.854,59.619-40.283,98.291-40.283
			c38.883,0,71.754,13.43,98.613,40.283c26.854,26.859,40.283,59.619,40.283,98.291c0,38.889-13.429,71.705-40.283,98.453
			c-26.859,26.748-59.73,40.121-98.613,40.121c-38.672,0-71.598-13.695-98.774-41.088
			C-1387.456,368.799-1400.719,336.305-1400.075,298.705z M-1166.11,367.67V252.299l-97.002,74.121l-100.547-76.055V367.67H-1166.11
			z M-1358.502,247.787l95.391,70.898l95.391-70.898H-1358.502z"/>
	</g>
</g>
</svg>
