<?xml version="1.0" encoding="utf-8"?>
<!-- Generator: Adobe Illustrator 16.0.0, SVG Export Plug-In . SVG Version: 6.00 Build 0)  -->
<!DOCTYPE svg PUBLIC "-//W3C//DTD SVG 1.1//EN" "http://www.w3.org/Graphics/SVG/1.1/DTD/svg11.dtd">
<svg version="1.1" xmlns="http://www.w3.org/2000/svg" xmlns:xlink="http://www.w3.org/1999/xlink" x="0px" y="0px"
	 width="283.464px" height="283.465px" viewBox="-156.525 155.667 283.464 283.465"
	 enable-background="new -156.525 155.667 283.464 283.465" xml:space="preserve">
<g id="fond" display="none">
	<circle display="inline" fill="#20558A" cx="-10.428" cy="142.029" r="141.116"/>
	<circle display="inline" fill="#20558A" cx="-10.428" cy="444.105" r="141.116"/>
</g>
<g id="_x2D_--" display="none">
	<rect x="-1421.522" y="-171.185" display="inline" fill="#FFFFFF" width="2504.369" height="1248.557"/>
</g>
<g id="fond_-_copie" display="none">
	<circle display="inline" fill="#717881" cx="-10.428" cy="142.029" r="141.116"/>
	<circle display="inline" fill="#717881" cx="-10.428" cy="444.105" r="141.116"/>
</g>
<g id="A" display="none">
	<g display="inline">
		<path fill="#FFFFFF" stroke="#20558A" stroke-width="5" stroke-miterlimit="10" d="M-100.162,426.231
			c2.033,2.037,3.052,4.517,3.052,7.446v71.289H72.812v-71.289c0-2.93,1.015-5.409,3.052-7.446c2.033-2.033,4.475-3.052,7.324-3.052
			c2.846,0,5.249,1.019,7.202,3.052c1.953,2.037,2.93,4.517,2.93,7.446v81.543c0,2.93-0.977,5.371-2.93,7.324
			s-4.395,2.93-7.324,2.93h-190.43c-2.93,0-5.371-0.977-7.324-2.93s-2.93-4.395-2.93-7.324v-81.543c0-2.93,0.977-5.371,2.93-7.324
			s4.311-3.01,7.08-3.174C-104.678,423.18-102.199,424.198-100.162,426.231z M-5.069,378.258
			c25.391-5.695,47.443-14.404,66.162-26.123l-1.221,48.828H-85.391v-13.672C-57.235,386.967-30.459,383.957-5.069,378.258z
			 M60.361,410.973v13.672h-145.02v-13.672H60.361z M60.361,433.678v13.428h-145.02v-13.428H60.361z M60.361,456.383v13.428h-145.02
			v-13.428H60.361z M60.361,479.088v13.428h-145.02v-13.428H60.361z"/>
	</g>
	<g id="Calque_2" display="inline">
	</g>
	<g id="Calque_7" display="inline">
	</g>
</g>
<g id="B" display="none">
	<rect x="-101.973" y="105.048" display="inline" opacity="0.8" fill="#FFFFFF" width="189.019" height="102.011"/>
	<polyline display="inline" fill="#20558A" points="87.842,95.49 -5.768,181.232 -103.096,95.49 	"/>
	<polyline display="inline" fill="#FFFFFF" stroke="#20558A" stroke-width="4" stroke-miterlimit="10" points="87.842,103.49 
		-3.768,162.232 -103.096,103.49 	"/>
</g>
<g id="C" display="none">
</g>
<g id="mail">
</g>
<g id="annuaire">
	<g>
		<path fill="#AAAFB9" d="M-74.89,161.339c10.258,0,15.391,9.482,15.391,28.443v1.17c-2.079,0-3.701,3.896-4.871,11.689l1.17,2.338
			v3.701c0,1.041-3.508,4.158-10.521,9.352l3.508,5.845l-2.338,3.702c1.296,2.079,2.465,6.755,3.506,14.027h1.17
			c3.896-9.352,6.234-18.378,7.014-27.081c-0.779-1.428-1.17-2.986-1.17-4.676l2.533-1.169c0,1.689,9.025,5.196,27.08,10.521
			c1.428,0,3.766,8.703,7.014,26.106c-4.158,55.071-8.055,82.605-11.689,82.605c-2.858,1.559-6.039,2.338-9.546,2.338
			c-3.379,70.916-6.106,106.374-8.183,106.374c0,1.169-1.169,2.338-3.507,3.507h-2.532c-4.676,0-7.793-2.338-9.352-7.014
			c-1.559-55.72-2.338-90.009-2.338-102.867h-4.676c-1.69,0-2.533,1.169-2.533,3.507c0,11.172-0.39,43.446-1.169,96.827
			c-0.521,6.366-3.638,9.547-9.352,9.547h-2.338c-6.365,0-9.546-22.858-9.546-68.578c-1.042,0-1.821-13.766-2.338-41.303
			c-10.263,0-15.392-8.246-15.392-24.742c-3.896-32.73-5.845-53.641-5.845-62.734c0-15.975,5.519-25.001,16.561-27.08
			c1.559,0,7.856-1.948,18.897-5.845c0,0.779,0.39,1.169,1.169,1.169c-0.779,1.431-1.169,2.6-1.169,3.507
			c0,6.106,2.338,15.522,7.014,28.249h1.169c0-6.361,1.232-11.884,3.701-16.56c-1.689,0-2.532-0.779-2.532-2.338v-1.169l3.702-4.676
			c-1.949,0-5.522-3.117-10.716-9.352v-14.223c-3.117-3.634-4.676-7.208-4.676-10.715c1.559,0,2.728-5.129,3.507-15.391
			C-84.047,163.677-79.308,161.339-74.89,161.339z M0.702,183.743H1.87c8.7,0,13.054,8.313,13.054,24.938
			c-1.169,0-2.405,1.169-3.702,3.507v10.521l-8.182,9.547c1.559,0.262,2.338,1.041,2.338,2.338c0,1.82-0.391,3.379-1.17,4.676
			c0.907,1.3,1.687,5.26,2.338,11.884h1.17c4.023-9.479,6.039-18.572,6.039-27.275h1.169c16.493,5.717,24.743,9.678,24.743,11.884
			l3.506,17.729c-2.858,47.278-6.365,70.916-10.52,70.916c-4.808,0.131-7.209,0.91-7.209,2.338
			c-2.6,60.657-5.327,90.983-8.183,90.983h-6.04c-3.896-2.076-5.844-5.261-5.844-9.547c0-9.352-0.391-36.886-1.17-82.605h-5.844
			c-0.779,36.499-1.17,64.813-1.17,84.943c-1.168,3.248-3.184,5.65-6.039,7.209h-4.676c-4.807,0-7.534-24.027-8.183-72.086
			c-1.041-13.375-1.885-20.066-2.532-20.066c-1.17,0-2.729-0.779-4.676-2.338c1.427,0,4.219-26.818,8.377-80.463
			c-1.559-6.234-2.338-10.131-2.338-11.689v-3.506c2.597,0,6.104-1.233,10.521-3.702c0.779,9.093,3.117,18.186,7.014,27.275h1.364
			c0-4.286,0.779-8.246,2.338-11.884c-0.779-1.297-1.17-2.855-1.17-4.676l2.338-3.508c-6.365-2.985-9.546-10.063-9.546-21.235
			c-1.559,0-2.338-0.843-2.338-2.532C-12.352,191.604-8.002,183.743,0.702,183.743z M63.24,204.979h5.845
			c4.804,0,7.598,6.69,8.377,20.066c-1.82,0-2.989,2.795-3.506,8.377c0.779,1.559,1.168,2.729,1.168,3.508
			c-1.168,0-3.573,2.338-7.208,7.014l2.532,3.701l-2.532,1.169c1.687,1.948,2.532,5.845,2.532,11.689h1.17
			c3.117-10.131,4.676-17.598,4.676-22.405h1.168c14.155,2.601,21.236,7.34,21.236,14.223c0,2.338,0.779,5.455,2.338,9.352
			c-3.117,38.706-6.234,58.058-9.352,58.058c-4.027,0-6.039,2.338-6.039,7.014c-2.08,44.94-4.028,67.409-5.846,67.409l-2.338,1.169
			h-3.506c-3.249-1.169-4.871-4.739-4.871-10.716v-2.338c0-0.779,0.453-1.168,1.363-1.168l-1.363-2.338v-21.236
			c0-8.311-0.39-20.91-1.169-37.796h-3.507l-2.338,73.06l-3.507,2.532h-4.676c-3.379,0-5.781-23.638-7.208-70.916
			c0-3.117-1.559-5.129-4.676-6.04l7.014-64.876l-3.508-11.884c5.714-2.338,9.285-3.508,10.716-3.508v4.676
			c0,2.99,1.559,8.509,4.676,16.561h1.169c0-4.935,0.779-8.441,2.338-10.521c-1.559,0-2.338-0.779-2.338-2.338
			c1.559,0,2.338-0.843,2.338-2.532c-5.455-3.766-8.183-10.064-8.183-18.898c-0.779,0-1.169-0.39-1.169-1.169
			C55.837,211.28,58.564,204.979,63.24,204.979z"/>
	</g>
</g>
</svg>
