<?xml version="1.0" encoding="utf-8"?>
<!-- Generator: Adobe Illustrator 16.0.4, SVG Export Plug-In . SVG Version: 6.00 Build 0)  -->
<!DOCTYPE svg PUBLIC "-//W3C//DTD SVG 1.1//EN" "http://www.w3.org/Graphics/SVG/1.1/DTD/svg11.dtd">
<svg version="1.1" id="Calque_1" xmlns="http://www.w3.org/2000/svg" xmlns:xlink="http://www.w3.org/1999/xlink" x="0px" y="0px"
	 width="841.89px" height="252px" viewBox="0 0 841.89 252" enable-background="new 0 0 841.89 252" xml:space="preserve">
<g>
	<circle fill="#C8910F" cx="426.477" cy="14.438" r="1.876"/>
	<polygon fill="#C8910F" points="426.477,72.232 379.199,91.919 379.199,91.919 473.755,91.919 	"/>
	<path fill="#C8910F" d="M437.102,54.053v-8.297l-2.942-2.859V32.753l1.447-1.437c-0.198-0.217-5.035-5.582-6.672-12.893h-4.972
		c-1.569,7.01-6.082,12.232-6.626,12.843l-0.013,0.024l1.471,1.462v10.144l-2.943,2.859v8.297
		c-12.395,4.122-21.59,15.251-22.876,28.694l32.282-13.443l1.219-0.507l1.22,0.507l32.281,13.443
		C458.691,69.305,449.496,58.175,437.102,54.053z M429.628,36.079c0-0.547,0.189-1.307,1.165-1.307c0.974,0,1.164,0.773,1.164,1.307
		v8.354c-0.769-0.124-1.545-0.224-2.329-0.295V36.079z M424.906,35.54c0-0.764,0.266-1.825,1.628-1.825
		c1.359,0,1.625,1.081,1.625,1.825v8.498c-0.539-0.025-1.081-0.042-1.627-0.042c-0.545,0-1.087,0.015-1.626,0.041V35.54z
		 M421.028,36.079c0-0.547,0.19-1.307,1.166-1.307c0.974,0,1.163,0.773,1.163,1.307v8.068c-0.784,0.073-1.561,0.172-2.329,0.298
		V36.079z"/>
</g>
<g>
	<path fill="#004272" d="M92.255,201.803v1.918h-16.99v-1.918l3.836-0.754c0.045-0.045,0.182-0.354,0.411-0.926
		c0.228-0.57,0.342-1.289,0.342-2.158v-33.09c0-0.41-0.046-0.797-0.137-1.164c-0.092-0.365-0.183-0.686-0.274-0.959
		c-0.137-0.318-0.251-0.639-0.342-0.959l-3.836-0.686v-1.918h16.442c2.192,0,4.282,0.172,6.269,0.514
		c1.987,0.344,3.734,0.938,5.241,1.781c1.507,0.846,2.706,1.986,3.597,3.426s1.336,3.254,1.336,5.447
		c0,2.375-0.479,4.373-1.438,5.994s-2.25,2.945-3.871,3.973c-1.622,1.027-3.472,1.771-5.549,2.227
		c-2.079,0.457-4.213,0.686-6.406,0.686c-0.411-0.502-0.708-0.959-0.891-1.371c-0.092-0.182-0.137-0.365-0.137-0.547
		c1.552-0.182,2.968-0.445,4.248-0.789c1.278-0.342,2.374-0.9,3.288-1.678c0.913-0.775,1.621-1.816,2.124-3.117
		c0.502-1.301,0.753-3.025,0.753-5.172c0-2.467-0.719-4.521-2.158-6.166c-1.439-1.645-3.597-2.467-6.474-2.467h-4.042v36.035
		c0,0.869,0.113,1.6,0.342,2.193c0.137,0.32,0.274,0.615,0.411,0.891L92.255,201.803z"/>
	<path fill="#004272" d="M143.252,197.143c0.319,0.822,0.617,1.498,0.891,2.021c0.274,0.525,0.605,0.959,0.994,1.303
		c0.387,0.342,0.879,0.615,1.473,0.822c0.593,0.205,1.393,0.375,2.398,0.514v1.918h-18.155v-1.85c1.05,0,1.963-0.137,2.74-0.412
		c0.639-0.229,1.165-0.604,1.576-1.131c0.411-0.523,0.434-1.289,0.069-2.295c-0.686-1.871-1.382-3.777-2.09-5.719
		c-0.708-1.941-1.404-3.826-2.089-5.652h-13.702c-0.731,1.826-1.439,3.699-2.124,5.617s-1.348,3.836-1.987,5.754
		c-0.274,0.822-0.308,1.463-0.103,1.92s0.548,0.82,1.028,1.096c0.479,0.273,1.05,0.457,1.712,0.547
		c0.662,0.094,1.29,0.162,1.884,0.207v1.918h-14.798v-1.918c0.593,0.092,1.209,0.023,1.85-0.207
		c0.548-0.227,1.141-0.604,1.781-1.129c0.639-0.525,1.233-1.381,1.781-2.57c2.922-6.166,5.64-12.559,8.152-19.182
		c2.511-6.621,5.001-13.062,7.467-19.32c0.548-0.137,1.073-0.295,1.576-0.479c0.456-0.137,0.936-0.262,1.439-0.377
		c0.502-0.113,0.959-0.172,1.37-0.172L143.252,197.143z M130.099,183.99c-0.64-2.057-1.302-4.088-1.987-6.098
		c-0.594-1.734-1.223-3.551-1.884-5.447c-0.663-1.895-1.267-3.572-1.815-5.035c-0.959,2.787-1.976,5.549-3.048,8.291
		c-1.074,2.74-2.09,5.504-3.049,8.289H130.099z"/>
	<path fill="#004272" d="M197.051,159.189v1.918c-0.503,0.047-1.062,0.092-1.678,0.137c-0.617,0.047-1.188,0.172-1.713,0.377
		c-0.525,0.207-0.971,0.561-1.336,1.062c-0.366,0.504-0.548,1.256-0.548,2.262v38.775h-3.974l-26.718-34.049v28.361
		c0,0.822,0.194,1.475,0.583,1.953c0.387,0.48,0.867,0.857,1.438,1.131c0.571,0.273,1.209,0.457,1.918,0.547
		c0.708,0.094,1.404,0.162,2.089,0.207v1.85h-14.524v-1.85c0.593,0,1.199-0.023,1.815-0.068c0.617-0.045,1.153-0.195,1.61-0.445
		c0.456-0.252,0.833-0.641,1.131-1.166c0.296-0.523,0.445-1.244,0.445-2.158v-31.719c0-0.867-0.205-1.609-0.616-2.227
		s-0.868-1.131-1.37-1.541c-0.548-0.502-1.188-0.914-1.918-1.234c-0.229-0.273-0.377-0.523-0.445-0.752s-0.149-0.457-0.24-0.686
		c-0.092-0.229-0.137-0.457-0.137-0.686h9.455l25.964,33.158v-27.402c0-0.822-0.183-1.484-0.548-1.988
		c-0.366-0.502-0.822-0.879-1.37-1.129c-0.548-0.252-1.176-0.422-1.884-0.516c-0.708-0.09-1.404-0.158-2.089-0.205v-1.918H197.051z"
		/>
	<path fill="#004272" d="M240.993,159.189c0,0.914,0.034,1.816,0.103,2.707s0.148,1.678,0.24,2.363
		c0.137,0.822,0.274,1.6,0.411,2.328c-0.868,0.32-1.599,0.549-2.192,0.686c-0.32,0.092-0.594,0.137-0.822,0.137
		c-0.046-0.455-0.115-0.891-0.206-1.301c-0.092-0.365-0.183-0.73-0.274-1.096c-0.092-0.365-0.252-0.662-0.48-0.891
		c-0.64-0.914-1.519-1.508-2.637-1.781c-1.12-0.275-2.364-0.412-3.734-0.412h-6.508v36.104c0,0.869,0.113,1.6,0.342,2.193
		c0.137,0.32,0.274,0.617,0.411,0.891l3.974,0.754v1.85h-17.059v-1.85c-0.092,0-0.046-0.023,0.137-0.068
		c0.182-0.045,0.548-0.127,1.096-0.24c0.548-0.113,1.371-0.262,2.466-0.445c0.045-0.045,0.182-0.354,0.411-0.926
		c0.228-0.57,0.343-1.289,0.343-2.158V161.93h-6.508c-1.417,0-2.649,0.137-3.7,0.412c-1.051,0.273-1.896,0.867-2.535,1.781
		c-0.229,0.229-0.377,0.525-0.445,0.891s-0.149,0.73-0.24,1.096c-0.092,0.41-0.137,0.846-0.137,1.301
		c-0.274,0-0.594-0.045-0.959-0.137c-0.32-0.09-0.674-0.172-1.062-0.24c-0.389-0.068-0.765-0.193-1.13-0.377
		c0.091-0.729,0.206-1.506,0.343-2.328c0.091-0.686,0.182-1.473,0.274-2.363c0.091-0.891,0.137-1.816,0.137-2.775H240.993z"/>
	<path fill="#004272" d="M289.415,201.803v1.918h-16.99v-1.918l3.837-0.754c0.045-0.045,0.182-0.354,0.411-0.926
		c0.228-0.57,0.343-1.289,0.343-2.158v-16.373h-18.977v16.373c0,0.869,0.114,1.6,0.343,2.193c0.137,0.32,0.274,0.615,0.411,0.891
		l3.905,0.754v1.918h-16.99v-1.918l3.836-0.754c0.045-0.045,0.182-0.354,0.411-0.926c0.228-0.57,0.343-1.289,0.343-2.158v-33.09
		c0-0.41-0.046-0.797-0.137-1.164c-0.092-0.365-0.183-0.686-0.274-0.959c-0.137-0.318-0.251-0.639-0.343-0.959l-3.836-0.686v-1.918
		h16.99v1.918l-3.974,0.754c-0.137,0.273-0.251,0.572-0.342,0.891c-0.229,0.594-0.343,1.303-0.343,2.123v14.045h18.977v-14.045
		c0-0.41-0.046-0.797-0.137-1.164c-0.092-0.365-0.183-0.686-0.274-0.959c-0.137-0.318-0.251-0.639-0.342-0.959l-3.837-0.686v-1.918
		h16.99v1.918l-3.973,0.754c-0.137,0.273-0.252,0.572-0.343,0.891c-0.229,0.594-0.343,1.303-0.343,2.123v33.09
		c0,0.869,0.114,1.6,0.343,2.193c0.137,0.32,0.274,0.615,0.411,0.891L289.415,201.803z"/>
	<path fill="#004272" d="M327.964,196.322c-0.137,0.775-0.274,1.574-0.411,2.396c-0.092,0.732-0.171,1.52-0.24,2.363
		c-0.069,0.846-0.103,1.725-0.103,2.639h-32.199v-1.85l3.768-0.754c0.045-0.045,0.182-0.354,0.411-0.926
		c0.228-0.57,0.343-1.289,0.343-2.158v-33.088c0-0.412-0.046-0.799-0.137-1.166c-0.092-0.365-0.183-0.686-0.274-0.959
		c-0.137-0.318-0.251-0.639-0.343-0.959l-3.768-0.891v-1.781h29.047c0.045,1.006,0.137,2.021,0.274,3.049
		c0.137,1.027,0.274,1.953,0.411,2.775c0.182,0.959,0.365,1.895,0.548,2.809c-0.594,0-1.085-0.023-1.473-0.068
		c-0.389-0.045-0.697-0.113-0.925-0.207c-0.274-0.09-0.503-0.205-0.685-0.342c-0.092-0.365-0.206-0.754-0.343-1.164
		c-0.229-0.73-0.548-1.371-0.959-1.918c-0.32-0.457-0.743-0.822-1.267-1.098c-0.526-0.273-1.074-0.49-1.645-0.65
		c-0.571-0.16-1.13-0.273-1.678-0.342c-0.548-0.068-1.028-0.104-1.439-0.104h-7.536v16.99h9.317c0.959,0,1.552-0.549,1.781-1.645
		c0.228-1.096,0.388-2.58,0.479-4.453l2.33,0.344v14.111l-2.33,0.068c-0.092-1.688-0.263-3.07-0.514-4.145
		c-0.251-1.072-0.834-1.609-1.747-1.609h-9.317v19.457h10.619c0.411,0,0.901-0.023,1.473-0.068c0.57-0.045,1.153-0.125,1.747-0.24
		c0.593-0.113,1.153-0.297,1.679-0.549c0.524-0.25,0.947-0.604,1.268-1.061c0.411-0.549,0.685-1.234,0.822-2.057
		c0.091-0.41,0.16-0.844,0.206-1.301L327.964,196.322z M308.645,155.971l2.466,0.82c0.914-0.912,1.85-1.951,2.809-3.117
		c0.959-1.164,1.826-2.248,2.604-3.254c0.913-1.186,1.804-2.352,2.672-3.494l-4.796-2.397L308.645,155.971z"/>
	<path fill="#004272" d="M353.805,158.299c3.151,0,6.098,0.514,8.838,1.541s5.114,2.514,7.125,4.453
		c2.009,1.941,3.584,4.295,4.727,7.057c1.141,2.764,1.712,5.857,1.712,9.283c0,3.836-0.743,7.24-2.227,10.207
		c-1.484,2.971-3.415,5.459-5.789,7.469c-2.375,2.01-5.069,3.539-8.084,4.59c-3.014,1.049-6.052,1.576-9.111,1.576
		c-2.695,0-5.321-0.527-7.878-1.576c-2.559-1.051-4.854-2.57-6.885-4.557c-2.033-1.986-3.665-4.406-4.898-7.262
		c-1.233-2.854-1.85-6.107-1.85-9.762c0-3.426,0.662-6.555,1.987-9.387c1.324-2.83,3.093-5.264,5.309-7.295
		c2.215-2.033,4.796-3.598,7.742-4.693S350.562,158.299,353.805,158.299z M367.233,180.564c0-2.512-0.308-4.934-0.925-7.262
		c-0.617-2.33-1.542-4.396-2.774-6.201c-1.233-1.803-2.752-3.242-4.556-4.314c-1.805-1.074-3.894-1.611-6.269-1.611
		c-2.01,0-3.894,0.514-5.652,1.543c-1.759,1.027-3.3,2.455-4.624,4.281c-1.325,1.826-2.364,3.963-3.117,6.404
		c-0.754,2.445-1.13,5.061-1.13,7.846c0,2.055,0.296,4.281,0.891,6.68c0.593,2.396,1.473,4.602,2.637,6.611
		c1.165,2.01,2.626,3.688,4.385,5.035c1.758,1.348,3.802,2.02,6.131,2.02c1.918,0,3.779-0.455,5.583-1.369
		c1.804-0.914,3.402-2.262,4.796-4.043c1.393-1.781,2.511-3.984,3.357-6.611C366.81,186.947,367.233,183.945,367.233,180.564z"/>
	<path fill="#004272" d="M423.053,159.189v1.918c-0.502,0.047-1.061,0.092-1.678,0.137c-0.617,0.047-1.188,0.172-1.713,0.377
		c-0.525,0.207-0.971,0.561-1.336,1.062c-0.366,0.504-0.548,1.256-0.548,2.262v38.775h-3.974l-26.718-34.049v28.361
		c0,0.822,0.194,1.475,0.583,1.953c0.387,0.48,0.867,0.857,1.438,1.131c0.571,0.273,1.209,0.457,1.918,0.547
		c0.708,0.094,1.404,0.162,2.089,0.207v1.85h-14.524v-1.85c0.593,0,1.199-0.023,1.815-0.068c0.617-0.045,1.153-0.195,1.61-0.445
		c0.456-0.252,0.833-0.641,1.131-1.166c0.296-0.523,0.445-1.244,0.445-2.158v-31.719c0-0.867-0.205-1.609-0.616-2.227
		s-0.868-1.131-1.37-1.541c-0.548-0.502-1.188-0.914-1.918-1.234c-0.229-0.273-0.377-0.523-0.445-0.752s-0.149-0.457-0.24-0.686
		c-0.092-0.229-0.137-0.457-0.137-0.686h9.455l25.964,33.158v-27.402c0-0.822-0.183-1.484-0.548-1.988
		c-0.366-0.502-0.822-0.879-1.37-1.129c-0.548-0.252-1.176-0.422-1.884-0.516c-0.708-0.09-1.404-0.158-2.089-0.205v-1.918H423.053z"
		/>
	<path fill="#004272" d="M450.045,168.096c0,0.777,0.216,1.553,0.65,2.33c0.434,0.777,1.016,1.541,1.747,2.295
		c0.729,0.754,1.563,1.484,2.5,2.191c0.936,0.709,1.907,1.404,2.912,2.09c1.37,0.914,2.763,1.896,4.179,2.945
		c1.415,1.051,2.683,2.193,3.803,3.426c1.118,1.232,2.043,2.568,2.774,4.008c0.729,1.439,1.096,3.004,1.096,4.693
		c0,1.873-0.366,3.574-1.096,5.104c-0.731,1.531-1.793,2.844-3.186,3.939c-1.394,1.096-3.106,1.941-5.139,2.535
		c-2.032,0.592-4.373,0.891-7.021,0.891c-2.147,0-3.883-0.115-5.207-0.344c-1.325-0.229-2.375-0.502-3.151-0.822
		c-0.868-0.365-1.53-0.775-1.986-1.232c0-1.232,0.022-2.42,0.068-3.562c0-0.912,0.011-1.838,0.034-2.775
		c0.022-0.936-0.012-1.586-0.103-1.951c0.502-0.045,0.959-0.045,1.37,0s0.729,0.113,0.959,0.205
		c0.273,0.092,0.502,0.205,0.685,0.342c0.045,0.549,0.183,1.246,0.411,2.09c0.229,0.846,0.628,1.668,1.199,2.467
		c0.57,0.799,1.347,1.473,2.329,2.021c0.981,0.547,2.271,0.822,3.871,0.822c2.374,0,4.258-0.754,5.651-2.262
		c1.393-1.508,2.09-3.426,2.09-5.754c0-1.279-0.264-2.443-0.788-3.494c-0.525-1.051-1.223-2.031-2.089-2.947
		c-0.868-0.912-1.862-1.768-2.98-2.568c-1.12-0.799-2.25-1.609-3.392-2.432c-1.232-0.822-2.443-1.678-3.631-2.568
		s-2.238-1.826-3.151-2.811c-0.914-0.98-1.655-2.031-2.227-3.15s-0.856-2.318-0.856-3.598c0-1.871,0.456-3.539,1.37-5
		c0.913-1.461,2.09-2.707,3.528-3.734c1.439-1.027,3.06-1.803,4.864-2.328c1.804-0.525,3.619-0.789,5.446-0.789
		c1.735,0,3.23,0.127,4.487,0.377c1.256,0.252,2.295,0.537,3.117,0.857c0.959,0.365,1.758,0.775,2.398,1.232
		c-0.046,1.416-0.081,2.58-0.104,3.494c-0.023,0.914-0.034,1.814-0.034,2.705s0.022,1.543,0.068,1.953
		c-0.503,0.137-0.959,0.195-1.37,0.172c-0.41-0.023-0.753-0.08-1.027-0.172c-0.32-0.092-0.616-0.229-0.891-0.41
		c0-0.867-0.114-1.736-0.343-2.604s-0.628-1.656-1.198-2.363c-0.572-0.709-1.37-1.279-2.398-1.713
		c-1.027-0.434-2.341-0.652-3.938-0.652c-1.69,0-3.164,0.539-4.419,1.611C450.672,163.928,450.045,165.676,450.045,168.096z"/>
	<path fill="#004272" d="M496.604,158.299c3.151,0,6.097,0.514,8.837,1.541s5.115,2.514,7.125,4.453
		c2.01,1.941,3.585,4.295,4.728,7.057c1.141,2.764,1.713,5.857,1.713,9.283c0,3.836-0.743,7.24-2.227,10.207
		c-1.485,2.971-3.415,5.459-5.789,7.469c-2.376,2.01-5.07,3.539-8.084,4.59c-3.015,1.049-6.053,1.576-9.112,1.576
		c-2.695,0-5.32-0.527-7.878-1.576c-2.559-1.051-4.854-2.57-6.886-4.557s-3.665-4.406-4.897-7.262
		c-1.233-2.854-1.851-6.107-1.851-9.762c0-3.426,0.662-6.555,1.987-9.387c1.324-2.83,3.094-5.264,5.31-7.295
		c2.215-2.033,4.795-3.598,7.741-4.693S493.359,158.299,496.604,158.299z M510.031,180.564c0-2.512-0.309-4.934-0.925-7.262
		c-0.617-2.33-1.542-4.396-2.775-6.201c-1.232-1.803-2.752-3.242-4.556-4.314c-1.805-1.074-3.895-1.611-6.269-1.611
		c-2.01,0-3.895,0.514-5.651,1.543c-1.759,1.027-3.301,2.455-4.625,4.281c-1.325,1.826-2.363,3.963-3.117,6.404
		c-0.753,2.445-1.13,5.061-1.13,7.846c0,2.055,0.296,4.281,0.891,6.68c0.593,2.396,1.473,4.602,2.638,6.611
		c1.164,2.01,2.626,3.688,4.384,5.035s3.803,2.02,6.132,2.02c1.918,0,3.779-0.455,5.584-1.369c1.804-0.914,3.401-2.262,4.795-4.043
		c1.393-1.781,2.512-3.984,3.357-6.611C509.608,186.947,510.031,183.945,510.031,180.564z"/>
	<path fill="#004272" d="M538.94,201.803v1.918h-16.99v-1.918l3.836-0.754c0.045-0.045,0.183-0.354,0.411-0.926
		c0.229-0.57,0.343-1.289,0.343-2.158v-33.09c0-0.41-0.046-0.797-0.137-1.164c-0.092-0.365-0.184-0.686-0.274-0.959
		c-0.137-0.318-0.251-0.639-0.343-0.959l-3.836-0.686v-1.918h16.442c2.466,0,4.703,0.195,6.713,0.582
		c2.01,0.389,3.734,1.018,5.173,1.885s2.558,2.01,3.356,3.426s1.199,3.174,1.199,5.275c0,2.01-0.445,3.688-1.336,5.035
		s-1.941,2.432-3.151,3.254c-1.211,0.822-2.409,1.428-3.597,1.814c-1.188,0.389-2.079,0.652-2.672,0.789
		c1.142,0.41,2.146,1.039,3.015,1.883c0.867,0.846,1.645,1.805,2.329,2.879c0.686,1.072,1.29,2.225,1.815,3.459
		c0.524,1.232,1.038,2.443,1.542,3.631c0.411,1.051,0.844,2.09,1.301,3.117c0.456,1.027,0.96,1.953,1.508,2.773
		c0.548,0.822,1.141,1.498,1.781,2.021c0.639,0.525,1.324,0.789,2.055,0.789l-0.685,1.918h-6.988c-1.37,0-2.489-0.525-3.356-1.576
		c-0.868-1.051-1.61-2.352-2.227-3.904c-0.617-1.553-1.165-3.254-1.645-5.105c-0.479-1.85-1.017-3.549-1.609-5.104
		c-0.595-1.551-1.302-2.854-2.124-3.904s-1.85-1.576-3.083-1.576l-1.165-2.26c1.278-0.092,2.546-0.344,3.803-0.754
		c1.256-0.412,2.374-1.004,3.356-1.781s1.77-1.758,2.364-2.945c0.593-1.188,0.891-2.604,0.891-4.248
		c0-1.234-0.218-2.375-0.651-3.426c-0.435-1.051-1.039-1.963-1.815-2.74c-0.777-0.775-1.747-1.393-2.911-1.85
		c-1.165-0.457-2.456-0.686-3.871-0.686h-3.426v36.104c0,0.869,0.114,1.6,0.343,2.193c0.137,0.32,0.274,0.615,0.411,0.891
		L538.94,201.803z"/>
	<path fill="#004272" d="M593.192,170.631c0,0.777-0.103,1.609-0.309,2.5c-0.205,0.891-0.582,1.748-1.13,2.57
		c-0.549,0.82-1.279,1.574-2.192,2.26c-0.914,0.686-2.079,1.211-3.494,1.576c1.598,0.137,3.003,0.605,4.213,1.404
		s2.227,1.746,3.049,2.844c0.822,1.096,1.438,2.271,1.85,3.527s0.617,2.432,0.617,3.527c0,2.559-0.411,4.672-1.233,6.338
		c-0.822,1.668-1.942,2.98-3.357,3.939c-1.416,0.959-3.095,1.633-5.035,2.021c-1.941,0.389-4.031,0.582-6.269,0.582h-17.333v-1.781
		l3.769-0.822c0.045-0.092,0.182-0.422,0.411-0.994c0.228-0.57,0.343-1.289,0.343-2.158v-33.02c0-0.412-0.035-0.799-0.104-1.166
		c-0.068-0.365-0.148-0.686-0.239-0.959c-0.138-0.318-0.252-0.639-0.343-0.959l-3.837-0.822v-1.85h14.661
		c2.192,0,4.259,0.184,6.2,0.549c1.94,0.365,3.631,0.992,5.069,1.883c1.439,0.891,2.58,2.068,3.426,3.529
		C592.77,166.611,593.192,168.438,593.192,170.631z M574.969,161.93v16.922h1.097c6.256,0,9.386-2.764,9.386-8.289
		c0-1.234-0.161-2.375-0.48-3.426s-0.821-1.963-1.507-2.74c-0.685-0.775-1.553-1.381-2.604-1.816
		c-1.051-0.434-2.284-0.65-3.699-0.65H574.969z M579.833,200.98c1.324,0,2.454-0.285,3.392-0.857c0.936-0.57,1.7-1.301,2.295-2.191
		c0.593-0.891,1.027-1.895,1.302-3.016c0.273-1.117,0.41-2.227,0.41-3.322c0-0.639-0.092-1.518-0.273-2.637
		c-0.184-1.119-0.582-2.227-1.199-3.322c-0.616-1.098-1.519-2.045-2.706-2.844c-1.188-0.799-2.809-1.199-4.864-1.199h-3.22v19.389
		H579.833z"/>
	<path fill="#004272" d="M622.691,158.299c3.151,0,6.097,0.514,8.837,1.541s5.115,2.514,7.125,4.453
		c2.01,1.941,3.585,4.295,4.728,7.057c1.141,2.764,1.713,5.857,1.713,9.283c0,3.836-0.743,7.24-2.227,10.207
		c-1.485,2.971-3.415,5.459-5.789,7.469c-2.376,2.01-5.07,3.539-8.084,4.59c-3.015,1.049-6.053,1.576-9.112,1.576
		c-2.695,0-5.32-0.527-7.878-1.576c-2.559-1.051-4.854-2.57-6.886-4.557s-3.665-4.406-4.897-7.262
		c-1.233-2.854-1.851-6.107-1.851-9.762c0-3.426,0.662-6.555,1.987-9.387c1.324-2.83,3.094-5.264,5.31-7.295
		c2.215-2.033,4.795-3.598,7.741-4.693S619.447,158.299,622.691,158.299z M636.119,180.564c0-2.512-0.309-4.934-0.925-7.262
		c-0.617-2.33-1.542-4.396-2.775-6.201c-1.232-1.803-2.752-3.242-4.556-4.314c-1.805-1.074-3.895-1.611-6.269-1.611
		c-2.01,0-3.895,0.514-5.651,1.543c-1.759,1.027-3.301,2.455-4.625,4.281c-1.325,1.826-2.363,3.963-3.117,6.404
		c-0.753,2.445-1.13,5.061-1.13,7.846c0,2.055,0.296,4.281,0.891,6.68c0.593,2.396,1.473,4.602,2.638,6.611
		c1.164,2.01,2.626,3.688,4.384,5.035s3.803,2.02,6.132,2.02c1.918,0,3.779-0.455,5.584-1.369c1.804-0.914,3.401-2.262,4.795-4.043
		c1.393-1.781,2.512-3.984,3.357-6.611C635.696,186.947,636.119,183.945,636.119,180.564z"/>
	<path fill="#004272" d="M691.938,159.189v1.918c-0.503,0.047-1.062,0.092-1.679,0.137c-0.616,0.047-1.188,0.172-1.712,0.377
		c-0.526,0.207-0.972,0.561-1.336,1.062c-0.366,0.504-0.549,1.256-0.549,2.262v38.775h-3.973l-26.719-34.049v28.361
		c0,0.822,0.193,1.475,0.582,1.953c0.388,0.48,0.867,0.857,1.439,1.131c0.57,0.273,1.209,0.457,1.918,0.547
		c0.707,0.094,1.404,0.162,2.089,0.207v1.85h-14.523v-1.85c0.593,0,1.199-0.023,1.815-0.068c0.617-0.045,1.153-0.195,1.61-0.445
		c0.456-0.252,0.833-0.641,1.13-1.166c0.297-0.523,0.445-1.244,0.445-2.158v-31.719c0-0.867-0.205-1.609-0.616-2.227
		s-0.868-1.131-1.37-1.541c-0.548-0.502-1.188-0.914-1.918-1.234c-0.229-0.273-0.377-0.523-0.445-0.752
		c-0.069-0.229-0.149-0.457-0.24-0.686c-0.092-0.229-0.137-0.457-0.137-0.686h9.454l25.965,33.158v-27.402
		c0-0.822-0.184-1.484-0.549-1.988c-0.365-0.502-0.821-0.879-1.37-1.129c-0.548-0.252-1.176-0.422-1.884-0.516
		c-0.708-0.09-1.404-0.158-2.089-0.205v-1.918H691.938z"/>
	<path fill="#004272" d="M740.642,159.189v1.918c-0.503,0.047-1.062,0.092-1.679,0.137c-0.616,0.047-1.188,0.172-1.712,0.377
		c-0.526,0.207-0.972,0.561-1.336,1.062c-0.366,0.504-0.549,1.256-0.549,2.262v38.775h-3.973l-26.719-34.049v28.361
		c0,0.822,0.193,1.475,0.582,1.953c0.388,0.48,0.867,0.857,1.439,1.131c0.57,0.273,1.209,0.457,1.918,0.547
		c0.707,0.094,1.404,0.162,2.089,0.207v1.85H696.18v-1.85c0.593,0,1.199-0.023,1.815-0.068c0.617-0.045,1.153-0.195,1.61-0.445
		c0.456-0.252,0.833-0.641,1.13-1.166c0.297-0.523,0.445-1.244,0.445-2.158v-31.719c0-0.867-0.205-1.609-0.616-2.227
		s-0.868-1.131-1.37-1.541c-0.548-0.502-1.188-0.914-1.918-1.234c-0.229-0.273-0.377-0.523-0.445-0.752
		c-0.069-0.229-0.149-0.457-0.24-0.686c-0.092-0.229-0.137-0.457-0.137-0.686h9.454l25.965,33.158v-27.402
		c0-0.822-0.184-1.484-0.549-1.988c-0.365-0.502-0.821-0.879-1.37-1.129c-0.548-0.252-1.176-0.422-1.884-0.516
		c-0.708-0.09-1.404-0.158-2.089-0.205v-1.918H740.642z"/>
	<path fill="#004272" d="M778.54,196.322c-0.137,0.775-0.273,1.574-0.411,2.396c-0.092,0.732-0.171,1.52-0.239,2.363
		c-0.068,0.846-0.103,1.725-0.103,2.639h-32.199v-1.85l3.768-0.754c0.045-0.045,0.183-0.354,0.411-0.926
		c0.229-0.57,0.343-1.289,0.343-2.158v-33.088c0-0.412-0.046-0.799-0.137-1.166c-0.093-0.365-0.184-0.686-0.274-0.959
		c-0.137-0.318-0.252-0.639-0.343-0.959l-3.768-0.891v-1.781h29.048c0.045,1.006,0.137,2.021,0.273,3.049
		c0.138,1.027,0.274,1.953,0.411,2.775c0.182,0.959,0.365,1.895,0.548,2.809c-0.594,0-1.085-0.023-1.473-0.068
		c-0.389-0.045-0.697-0.113-0.925-0.207c-0.274-0.09-0.503-0.205-0.686-0.342c-0.092-0.365-0.205-0.754-0.342-1.164
		c-0.229-0.73-0.548-1.371-0.959-1.918c-0.32-0.457-0.743-0.822-1.268-1.098c-0.525-0.273-1.074-0.49-1.645-0.65
		c-0.571-0.16-1.13-0.273-1.679-0.342c-0.548-0.068-1.027-0.104-1.438-0.104h-7.536v16.99h9.317c0.959,0,1.553-0.549,1.781-1.645
		s0.388-2.58,0.479-4.453l2.329,0.344v14.111l-2.329,0.068c-0.092-1.688-0.263-3.07-0.514-4.145
		c-0.252-1.072-0.834-1.609-1.747-1.609h-9.317v19.457h10.619c0.411,0,0.901-0.023,1.473-0.068s1.153-0.125,1.747-0.24
		c0.593-0.113,1.153-0.297,1.679-0.549c0.524-0.25,0.947-0.604,1.268-1.061c0.411-0.549,0.685-1.234,0.822-2.057
		c0.091-0.41,0.159-0.844,0.205-1.301L778.54,196.322z"/>
</g>
<rect x="241.097" y="226.129" fill="#C8910F" width="370.759" height="2.372"/>
<g>
	<path fill="#004272" d="M241.161,115.52c0-0.314,0.282-0.597,0.597-0.597h1.192c0.346,0,0.595,0.282,0.595,0.597v13.082
		c0,3.577,2.229,6.37,5.899,6.37c3.702,0,5.961-2.729,5.961-6.307V115.52c0-0.314,0.25-0.597,0.596-0.597h1.192
		c0.313,0,0.597,0.282,0.597,0.597v13.272c0,4.769-3.388,8.408-8.346,8.408c-4.926,0-8.283-3.64-8.283-8.408V115.52z"/>
	<path fill="#004272" d="M269.374,115.174c0-0.314,0.283-0.565,0.597-0.565h0.784l14.15,17.634h0.064V115.52
		c0-0.316,0.25-0.597,0.595-0.597h1.098c0.314,0,0.597,0.281,0.597,0.597v21.114c0,0.313-0.282,0.564-0.597,0.564h-0.565
		l-14.401-17.979h-0.03v17.068c0,0.315-0.252,0.597-0.597,0.597h-1.098c-0.313,0-0.597-0.282-0.597-0.597V115.174z"/>
	<path fill="#004272" d="M299.125,115.52c0-0.314,0.284-0.597,0.597-0.597h1.255c0.313,0,0.596,0.282,0.596,0.597v20.769
		c0,0.316-0.282,0.596-0.596,0.596h-1.255c-0.313,0-0.597-0.28-0.597-0.596V115.52z"/>
	<path fill="#004272" d="M310.455,115.739c-0.188-0.408,0.062-0.816,0.533-0.816h1.255c0.282,0,0.471,0.188,0.533,0.346
		l7.812,17.569h0.126l7.812-17.569c0.062-0.157,0.282-0.346,0.533-0.346h1.255c0.472,0,0.723,0.408,0.533,0.816l-9.536,21.114
		c-0.095,0.19-0.284,0.346-0.536,0.346h-0.313c-0.22,0-0.439-0.156-0.533-0.346L310.455,115.739z"/>
	<path fill="#004272" d="M339.733,115.52c0-0.314,0.25-0.597,0.596-0.597h12.362c0.344,0,0.596,0.282,0.596,0.597v0.909
		c0,0.314-0.252,0.597-0.596,0.597h-10.542v7.655h9.005c0.313,0,0.596,0.283,0.596,0.597v0.91c0,0.346-0.283,0.597-0.596,0.597
		h-9.005v8h10.542c0.344,0,0.596,0.282,0.596,0.597v0.909c0,0.316-0.252,0.596-0.596,0.596H340.33c-0.346,0-0.596-0.28-0.596-0.596
		V115.52z"/>
	<path fill="#004272" d="M372.34,126.218c2.415,0,4.517-2.007,4.517-4.58c0-2.385-2.102-4.424-4.517-4.424h-6.088v9.004H372.34z
		 M363.773,115.52c0-0.314,0.251-0.597,0.597-0.597h8.126c3.766,0,6.841,2.949,6.841,6.684c0,2.885-1.915,5.302-4.646,6.4l4.3,7.969
		c0.22,0.408,0,0.91-0.533,0.91h-1.602c-0.281,0-0.438-0.157-0.5-0.28l-4.173-8.316h-5.993v8c0,0.316-0.282,0.596-0.597,0.596
		h-1.223c-0.346,0-0.597-0.28-0.597-0.596V115.52z"/>
	<path fill="#004272" d="M388.567,133.592c0.157-0.19,0.313-0.409,0.47-0.597c0.314-0.407,0.659-0.659,1.099-0.283
		c0.219,0.189,2.51,2.385,5.302,2.385c2.542,0,4.205-1.6,4.205-3.451c0-2.166-1.882-3.451-5.49-4.958
		c-3.451-1.505-5.523-2.917-5.523-6.494c0-2.133,1.695-5.583,6.682-5.583c3.077,0,5.366,1.599,5.366,1.599
		c0.189,0.093,0.565,0.47,0.189,1.067c-0.126,0.188-0.251,0.408-0.377,0.595c-0.282,0.439-0.597,0.565-1.098,0.284
		c-0.22-0.126-2.195-1.443-4.11-1.443c-3.326,0-4.33,2.133-4.33,3.451c0,2.102,1.599,3.326,4.236,4.423
		c4.236,1.726,6.964,3.326,6.964,6.967c0,3.262-3.105,5.646-6.777,5.646c-3.702,0-6.212-2.164-6.62-2.541
		C388.504,134.438,388.19,134.187,388.567,133.592"/>
	<path fill="#004272" d="M412.166,115.52c0-0.314,0.283-0.597,0.597-0.597h1.255c0.313,0,0.595,0.282,0.595,0.597v20.769
		c0,0.316-0.282,0.596-0.595,0.596h-1.255c-0.313,0-0.597-0.28-0.597-0.596V115.52z"/>
	<path fill="#004272" d="M429.581,117.025h-5.459c-0.346,0-0.595-0.282-0.595-0.597v-0.908c0-0.315,0.249-0.597,0.595-0.597h13.304
		c0.346,0,0.597,0.282,0.597,0.597v0.908c0,0.314-0.251,0.597-0.597,0.597h-5.459v19.264c0,0.314-0.282,0.597-0.597,0.597h-1.192
		c-0.312,0-0.597-0.282-0.597-0.597V117.025z"/>
	<path fill="#004272" d="M450.86,111.628c-0.126-0.25,0-0.501,0.188-0.595l4.706-2.636c0.19-0.126,0.659-0.188,0.816,0.095
		l0.565,1.128c0.125,0.25,0.062,0.565-0.188,0.659l-5.052,2.103c-0.438,0.188-0.597,0.188-0.722-0.063L450.86,111.628z
		 M446.938,115.52c0-0.314,0.251-0.597,0.597-0.597h12.362c0.345,0,0.597,0.282,0.597,0.597v0.909c0,0.314-0.252,0.597-0.597,0.597
		h-10.542v7.655h9.004c0.313,0,0.597,0.283,0.597,0.597v0.91c0,0.346-0.283,0.597-0.597,0.597h-9.004v8h10.542
		c0.345,0,0.597,0.282,0.597,0.597v0.909c0,0.316-0.252,0.596-0.597,0.596h-12.362c-0.346,0-0.597-0.28-0.597-0.596V115.52z"/>
	<path fill="#004272" d="M490.778,126.595c2.572,0,4.769-2.103,4.769-4.801c0-2.541-2.196-4.485-4.769-4.485h-4.988v9.287H490.778z
		 M483.404,115.52c0-0.314,0.251-0.597,0.597-0.597h6.935c3.859,0,7.027,3.138,7.027,6.935c0,3.89-3.168,7.059-6.996,7.059h-5.177
		v7.373c0,0.316-0.283,0.596-0.597,0.596h-1.192c-0.346,0-0.597-0.28-0.597-0.596V115.52z"/>
	<path fill="#004272" d="M518.521,129.418c-1.539-3.42-3.044-6.871-4.582-10.292h-0.251l-4.58,10.292H518.521z M503.616,136.069
		l9.538-21.115c0.094-0.19,0.251-0.346,0.533-0.346h0.313c0.283,0,0.439,0.156,0.532,0.346l9.477,21.115
		c0.188,0.409-0.062,0.816-0.533,0.816h-1.255c-0.282,0-0.471-0.188-0.534-0.346l-2.321-5.176h-11.138l-2.29,5.176
		c-0.063,0.157-0.251,0.346-0.534,0.346h-1.254C503.68,136.886,503.428,136.479,503.616,136.069"/>
	<path fill="#004272" d="M541.463,126.218c2.414,0,4.517-2.007,4.517-4.58c0-2.385-2.103-4.424-4.517-4.424h-6.089v9.004H541.463z
		 M532.896,115.52c0-0.314,0.251-0.597,0.597-0.597h8.126c3.765,0,6.841,2.949,6.841,6.684c0,2.885-1.914,5.302-4.646,6.4l4.3,7.969
		c0.22,0.408,0,0.91-0.533,0.91h-1.601c-0.281,0-0.439-0.157-0.501-0.28l-4.174-8.316h-5.992v8c0,0.316-0.282,0.596-0.597,0.596
		h-1.224c-0.346,0-0.597-0.28-0.597-0.596V115.52z"/>
	<path fill="#004272" d="M559.101,115.52c0-0.314,0.283-0.597,0.597-0.597h1.255c0.313,0,0.596,0.282,0.596,0.597v20.769
		c0,0.316-0.282,0.596-0.596,0.596h-1.255c-0.313,0-0.597-0.28-0.597-0.596V115.52z"/>
	<path fill="#004272" d="M571.999,133.592c0.157-0.19,0.313-0.409,0.471-0.597c0.314-0.407,0.659-0.659,1.098-0.283
		c0.22,0.189,2.51,2.385,5.302,2.385c2.543,0,4.206-1.6,4.206-3.451c0-2.166-1.883-3.451-5.491-4.958
		c-3.451-1.505-5.522-2.917-5.522-6.494c0-2.133,1.694-5.583,6.684-5.583c3.075,0,5.363,1.599,5.363,1.599
		c0.19,0.093,0.565,0.47,0.19,1.067c-0.126,0.188-0.251,0.408-0.377,0.595c-0.282,0.439-0.597,0.565-1.099,0.284
		c-0.22-0.126-2.195-1.443-4.109-1.443c-3.326,0-4.33,2.133-4.33,3.451c0,2.102,1.599,3.326,4.236,4.423
		c4.235,1.726,6.964,3.326,6.964,6.967c0,3.262-3.105,5.646-6.777,5.646c-3.701,0-6.211-2.164-6.619-2.541
		C571.937,134.438,571.622,134.187,571.999,133.592"/>
	<path fill="#004272" d="M609.5,119.44l-2.259,1.757c-0.251,0.188-0.502,0.22-0.722-0.031l-0.597-0.659
		c-0.219-0.25-0.093-0.533,0.064-0.69l4.392-4.267h0.848c0.313,0,0.565,0.283,0.565,0.597v20.142c0,0.314-0.252,0.597-0.565,0.597
		h-1.13c-0.346,0-0.597-0.282-0.597-0.597V119.44z"/>
</g>
<g>
</g>
<g>
</g>
<g>
</g>
<g>
</g>
<g>
</g>
<g>
</g>
</svg>
