<?xml version="1.0" encoding="utf-8"?>
<!-- Generator: Adobe Illustrator 16.0.0, SVG Export Plug-In . SVG Version: 6.00 Build 0)  -->
<!DOCTYPE svg PUBLIC "-//W3C//DTD SVG 1.1//EN" "http://www.w3.org/Graphics/SVG/1.1/DTD/svg11.dtd">
<svg version="1.1" xmlns="http://www.w3.org/2000/svg" xmlns:xlink="http://www.w3.org/1999/xlink" x="0px" y="0px"
	 width="283.464px" height="283.465px" viewBox="467.096 155.667 283.464 283.465"
	 enable-background="new 467.096 155.667 283.464 283.465" xml:space="preserve">
<g id="fond" display="none">
	<circle display="inline" fill="#20558A" cx="593.722" cy="142.03" r="141.116"/>
	<circle display="inline" fill="#20558A" cx="593.722" cy="444.105" r="141.116"/>
</g>
<g id="FOND_blanc" display="none">
	<rect x="-1421.522" y="-171.185" display="inline" fill="#FFFFFF" width="2504.369" height="1248.557"/>
</g>
<g id="fond_-_copie" display="none">
	<circle display="inline" fill="#717881" cx="593.722" cy="142.03" r="141.116"/>
	<circle display="inline" fill="#717881" cx="593.722" cy="444.105" r="141.116"/>
</g>
<g id="A" display="none">
	<g id="Calque_2" display="inline">
	</g>
	<g id="Calque_7" display="inline">
	</g>
</g>
<g id="B" display="none">
	<g display="inline" opacity="0.9">
		<path fill="#FFFFFF" d="M546.056,438.866c7.804,0,14.816-2.531,21.041-7.594c3.164,1.372,5.562,2.427,7.198,3.164
			c1.634,0.739,3.821,1.794,6.565,3.164c2.741,1.372,4.85,2.559,6.328,3.56c1.476,1.004,3.188,2.294,5.142,3.876
			c1.95,1.582,3.374,3.085,4.271,4.509c0.895,1.424,1.661,3.085,2.294,4.983s0.949,3.903,0.949,6.012v54.264H492.267V460.54
			c0.316-3.374,1.159-6.433,2.531-9.176c1.369-2.741,2.951-5.063,4.746-6.961c1.792-1.898,4.217-3.743,7.277-5.537
			c3.058-1.792,5.774-3.243,8.147-4.351s5.458-2.398,9.255-3.876C530.552,436.125,537.829,438.866,546.056,438.866z
			 M545.977,373.687c-7.752,0-14.372,2.743-19.854,8.227c-5.485,5.485-8.227,12.13-8.227,19.934c0,7.806,2.741,14.45,8.227,19.934
			c5.482,5.485,12.103,8.227,19.854,8.227s14.396-2.741,19.934-8.227c5.537-5.483,8.306-12.128,8.306-19.934
			c0-7.804-2.769-14.448-8.306-19.934C560.373,376.43,553.729,373.687,545.977,373.687z"/>
	</g>
	<g display="inline" opacity="0.8">
		<g>
			<path fill="#FFFFFF" d="M613.323,426.312v-8.248h82v8.248H613.323z"/>
		</g>
	</g>
	<g display="inline" opacity="0.8">
		<g>
			<path fill="#FFFFFF" d="M613.323,426.312v-8.248h82v8.248H613.323z"/>
		</g>
	</g>
	<path display="inline" opacity="0.95" fill="#FFFFFF" d="M695.717,76.692v-12.44c0-2.292-1.856-4.146-4.146-4.146h-78.759
		c-6.762,0-12.785,3.264-16.57,8.293h-0.01c0,0-0.006,0-0.012,0c-3.783-5.029-9.805-8.293-16.569-8.293h-78.757
		c-2.289,0-4.145,1.854-4.145,4.146v12.44h-8.291v140.993h89.254c4.536,5.087,11.168,8.293,18.52,8.293s13.979-3.206,18.514-8.293
		h89.261V76.692H695.717z M505.039,68.398h74.612c6.854,0,12.437,5.581,12.437,12.44v79.246c0,2.295,1.856,4.147,4.145,4.147
		c2.289,0,4.146-1.853,4.146-4.147V80.839c0-6.86,5.58-12.44,12.435-12.44h74.613v132.697h-74.613
		c-6.762,0-12.785,3.263-16.57,8.294h-0.01h-0.012c-3.783-5.031-9.805-8.294-16.569-8.294h-74.612V68.398z"/>
	<g display="inline" opacity="0.6">
		<path fill="#FFFFFF" d="M642.848,181.627c-6.943,0-12.586-4.991-12.586-12.151c0-5.208,3.255-11.935,12.586-11.935
			c9.114,0,12.586,8.028,12.586,11.935C655.434,178.806,647.188,181.627,642.848,181.627z"/>
	</g>
	
		<line display="inline" fill="#20558A" stroke="#20558A" stroke-width="2" stroke-miterlimit="10" x1="495.416" y1="69.509" x2="495.416" y2="209.174"/>
	
		<line display="inline" fill="#20558A" stroke="#20558A" stroke-width="2" stroke-miterlimit="10" x1="696.436" y1="69.509" x2="696.436" y2="209.174"/>
	<g display="inline">
		<path fill="#FFFFFF" d="M534.499,140.884l-7,21.202h-9.001l22.901-67.405H551.9l23.001,67.405h-9.3l-7.201-21.202H534.499z
			 M556.601,134.084L550,114.683c-1.5-4.4-2.5-8.4-3.5-12.301h-0.2c-1,4-2.1,8.101-3.4,12.201l-6.601,19.501H556.601z"/>
	</g>
</g>
<g id="C" display="none">
</g>
<g id="mail" display="none">
</g>
<g id="annuaire">
	<g>
		<path fill="#007FFF" d="M698.473,156.657c0.12-0.007,0.246-0.007,0.38,0c0.133,0.007,0.227,0.047,0.28,0.12
			c0.026,0.04,0.043,0.088,0.05,0.145s0.01,0.119,0.01,0.186c0,0.087-0.017,0.156-0.05,0.21c-0.027,0.033-0.065,0.055-0.115,0.064
			c-0.05,0.011-0.104,0.016-0.165,0.016c-0.06,0-0.122-0.002-0.185-0.005c-0.063-0.004-0.119-0.002-0.165,0.005
			c-0.187,0.053-0.309,0.138-0.365,0.255c-0.057,0.116-0.085,0.292-0.085,0.524c0,0.047-0.004,0.096-0.01,0.146
			c-0.007,0.05-0.004,0.095,0.01,0.135c0.02,0.101,0.063,0.17,0.13,0.21c0.054,0.021,0.122,0.03,0.205,0.03s0.161,0,0.235,0h0.149
			c0.021,0.014,0.04,0.017,0.061,0.01c0.02-0.007,0.04-0.003,0.06,0.01c0.066,0.021,0.11,0.059,0.13,0.115
			c0.021,0.057,0.03,0.129,0.03,0.215c-0.007,0.027-0.01,0.054-0.01,0.08c0,0.027,0,0.054,0,0.08c-0.021,0.101-0.063,0.167-0.13,0.2
			c-0.087,0.033-0.199,0.042-0.335,0.025c-0.137-0.017-0.252-0.012-0.346,0.015c-0.053,0.014-0.093,0.038-0.12,0.075
			c-0.026,0.036-0.046,0.085-0.06,0.145c-0.014,0.047-0.017,0.101-0.01,0.16c0.006,0.06,0.01,0.117,0.01,0.17v0.66v2.12v0.5
			c0,0.04,0.002,0.083,0.005,0.13s-0.002,0.087-0.015,0.12v0.08c-0.007,0.026-0.014,0.053-0.021,0.08
			c-0.007,0.026-0.017,0.05-0.03,0.069c-0.033,0.047-0.083,0.074-0.149,0.08c-0.066,0.007-0.14,0.011-0.22,0.011h-0.19
			c-0.033-0.014-0.065-0.025-0.095-0.035c-0.03-0.011-0.056-0.032-0.075-0.065c-0.014-0.02-0.026-0.063-0.04-0.13v-0.07
			c-0.014-0.033-0.019-0.068-0.015-0.104c0.003-0.037,0.005-0.071,0.005-0.105v-0.399v-2.73c0-0.073,0.001-0.149,0.005-0.229
			c0.003-0.08,0.003-0.155,0-0.226c-0.004-0.069-0.017-0.131-0.04-0.185s-0.062-0.09-0.115-0.11c-0.04-0.02-0.085-0.03-0.135-0.03
			s-0.102,0-0.155,0s-0.104,0-0.155,0c-0.05,0-0.095-0.006-0.135-0.02c-0.06-0.026-0.104-0.083-0.13-0.17
			c-0.007-0.033-0.01-0.063-0.01-0.09s0-0.057,0-0.09c0-0.094,0.01-0.169,0.03-0.226c0.02-0.057,0.063-0.095,0.13-0.115
			c0.046-0.02,0.102-0.028,0.165-0.024c0.063,0.003,0.126,0.005,0.189,0.005s0.12-0.007,0.17-0.021
			c0.051-0.013,0.092-0.04,0.125-0.079c0.047-0.054,0.068-0.137,0.065-0.25c-0.004-0.113-0.005-0.221-0.005-0.32
			c0-0.134,0.008-0.259,0.024-0.375c0.017-0.117,0.045-0.222,0.085-0.315c0.073-0.16,0.172-0.29,0.295-0.39
			c0.124-0.1,0.272-0.177,0.445-0.23c0.04-0.013,0.082-0.021,0.125-0.024c0.043-0.004,0.089-0.012,0.135-0.025
			c0.014-0.007,0.037-0.008,0.07-0.005C698.436,156.666,698.459,156.664,698.473,156.657z"/>
		<path fill="#007FFF" d="M704.553,161.058c0.013,0.04,0.02,0.102,0.02,0.185s-0.003,0.142-0.01,0.175v0.101
			c-0.007,0.053-0.012,0.102-0.015,0.145c-0.004,0.044-0.009,0.092-0.016,0.146c-0.014,0.04-0.021,0.079-0.024,0.119
			c-0.004,0.04-0.012,0.08-0.025,0.12c-0.026,0.087-0.05,0.174-0.07,0.261c-0.02,0.086-0.047,0.166-0.08,0.239
			c-0.14,0.32-0.326,0.589-0.56,0.806s-0.521,0.382-0.86,0.495c-0.073,0.026-0.151,0.046-0.234,0.06
			c-0.084,0.014-0.169,0.026-0.255,0.04c-0.04,0.007-0.082,0.012-0.125,0.015c-0.044,0.004-0.086,0.005-0.125,0.005
			c-0.027,0.007-0.065,0.011-0.115,0.011s-0.085-0.004-0.105-0.011c-0.026-0.006-0.053-0.008-0.08-0.005
			c-0.026,0.004-0.05,0.002-0.069-0.005h-0.061l-0.24-0.03c-0.093-0.026-0.183-0.053-0.27-0.079c-0.087-0.027-0.17-0.057-0.25-0.091
			c-0.3-0.133-0.547-0.307-0.74-0.52c-0.193-0.214-0.354-0.474-0.479-0.78c-0.034-0.066-0.059-0.133-0.075-0.2
			c-0.017-0.066-0.032-0.136-0.045-0.21c-0.014-0.026-0.019-0.048-0.016-0.064c0.004-0.017,0.002-0.038-0.005-0.065
			c-0.013-0.053-0.021-0.108-0.024-0.165c-0.004-0.057-0.012-0.111-0.025-0.165c0-0.033,0-0.062,0-0.085s-0.003-0.052-0.01-0.085
			s-0.01-0.092-0.01-0.175s0.006-0.145,0.02-0.185c0.014-0.047,0.017-0.094,0.01-0.141c-0.007-0.046-0.003-0.093,0.011-0.14
			c0.006-0.033,0.011-0.062,0.015-0.085c0.003-0.023,0.008-0.052,0.015-0.085c0.021-0.08,0.039-0.16,0.056-0.24
			s0.041-0.156,0.074-0.23c0.101-0.246,0.222-0.468,0.365-0.664c0.144-0.197,0.318-0.362,0.525-0.495
			c0.08-0.054,0.163-0.099,0.25-0.136c0.086-0.036,0.177-0.074,0.27-0.114c0.08-0.033,0.167-0.056,0.261-0.065
			c0.093-0.01,0.187-0.028,0.279-0.055c0.047,0,0.092-0.002,0.135-0.005c0.044-0.004,0.086-0.009,0.125-0.016
			c0.594-0.006,1.087,0.117,1.48,0.37c0.394,0.254,0.677,0.584,0.85,0.99c0.033,0.066,0.061,0.134,0.08,0.2
			c0.021,0.066,0.044,0.137,0.07,0.21c0.02,0.073,0.036,0.151,0.05,0.234c0.014,0.084,0.03,0.169,0.05,0.256
			c0.007,0.033,0.009,0.068,0.006,0.104C704.544,160.989,704.546,161.023,704.553,161.058z M703.662,161.627
			c0.014-0.046,0.019-0.1,0.016-0.16c-0.004-0.06-0.005-0.116-0.005-0.17c0-0.26-0.023-0.479-0.07-0.66
			c-0.021-0.053-0.037-0.106-0.05-0.159c-0.014-0.054-0.03-0.104-0.051-0.15c-0.187-0.434-0.483-0.733-0.89-0.9
			c-0.047-0.02-0.097-0.034-0.15-0.045c-0.053-0.01-0.106-0.021-0.159-0.034c-0.054-0.014-0.11-0.021-0.17-0.021
			c-0.061,0-0.12,0-0.181,0l-0.18,0.03c-0.066,0.014-0.129,0.028-0.186,0.045s-0.111,0.038-0.164,0.064
			c-0.047,0.014-0.091,0.034-0.131,0.061s-0.076,0.054-0.109,0.08c-0.16,0.113-0.29,0.25-0.391,0.41
			c-0.1,0.159-0.187,0.347-0.26,0.56c-0.02,0.066-0.033,0.135-0.04,0.205s-0.017,0.142-0.03,0.215c-0.006,0.026-0.01,0.07-0.01,0.13
			c-0.007,0.021-0.008,0.044-0.005,0.07s0.005,0.057,0.005,0.09c0,0.066,0,0.134,0,0.2s0.007,0.127,0.021,0.18l0.02,0.12
			c0.014,0.066,0.025,0.132,0.035,0.195s0.028,0.121,0.055,0.175c0.067,0.16,0.146,0.31,0.235,0.45
			c0.09,0.14,0.201,0.257,0.335,0.35c0.033,0.021,0.063,0.037,0.09,0.05c0.026,0.014,0.057,0.03,0.09,0.051
			c0.054,0.033,0.112,0.062,0.176,0.085c0.063,0.023,0.131,0.045,0.204,0.064c0.034,0.014,0.065,0.019,0.096,0.016
			c0.029-0.004,0.062-0.002,0.095,0.005c0.021,0.007,0.062,0.013,0.125,0.02s0.111,0.004,0.146-0.01
			c0.026-0.007,0.053-0.009,0.079-0.005c0.027,0.003,0.054-0.002,0.08-0.016c0.054-0.013,0.106-0.024,0.16-0.034
			c0.054-0.011,0.104-0.025,0.15-0.046c0.227-0.093,0.41-0.223,0.55-0.39c0.14-0.166,0.257-0.363,0.35-0.59
			c0.033-0.08,0.056-0.165,0.065-0.255S703.636,161.721,703.662,161.627z"/>
		<path fill="#007FFF" d="M707.973,158.587c0.153,0,0.24,0.039,0.26,0.115c0.021,0.077,0.03,0.188,0.03,0.335c0,0.066,0,0.13,0,0.19
			c0,0.06-0.017,0.109-0.05,0.149c-0.04,0.054-0.097,0.082-0.17,0.085c-0.074,0.004-0.147,0.016-0.221,0.035
			c-0.093,0.021-0.182,0.04-0.265,0.061c-0.083,0.02-0.162,0.046-0.235,0.079c-0.193,0.087-0.35,0.205-0.47,0.355
			s-0.224,0.321-0.31,0.515c-0.027,0.074-0.047,0.148-0.061,0.226c-0.014,0.076-0.03,0.154-0.05,0.234
			c-0.007,0.034-0.009,0.067-0.005,0.101c0.003,0.033,0.001,0.066-0.005,0.1c-0.021,0.08-0.028,0.172-0.025,0.275
			c0.004,0.104,0.005,0.201,0.005,0.295v1.229c0,0.074,0,0.15,0,0.23s-0.003,0.156-0.01,0.229c-0.007,0.074-0.009,0.137-0.005,0.19
			c0.003,0.054-0.012,0.1-0.045,0.14c-0.033,0.047-0.085,0.074-0.155,0.08c-0.07,0.007-0.145,0.011-0.225,0.011h-0.181
			c-0.033-0.014-0.064-0.025-0.095-0.035c-0.03-0.011-0.052-0.025-0.064-0.045c-0.034-0.047-0.052-0.105-0.056-0.176
			c-0.003-0.069-0.005-0.142-0.005-0.215v-0.77v-2.771v-0.689c0-0.073,0.002-0.142,0.005-0.205c0.004-0.063,0.021-0.118,0.056-0.165
			c0.02-0.026,0.055-0.047,0.104-0.061c0.05-0.013,0.105-0.021,0.165-0.024c0.06-0.004,0.12-0.002,0.18,0.005
			c0.061,0.007,0.106,0.017,0.141,0.03c0.053,0.02,0.088,0.058,0.104,0.114s0.025,0.117,0.025,0.181s0,0.13,0,0.2
			c0,0.069,0.013,0.131,0.04,0.185c0.007,0.014,0.013,0.023,0.02,0.03s0.017,0.017,0.03,0.029c0.073,0,0.133-0.031,0.18-0.095
			s0.087-0.115,0.12-0.155l0.061-0.06c0.06-0.073,0.143-0.15,0.25-0.23c0.106-0.079,0.206-0.14,0.3-0.18
			c0.06-0.033,0.123-0.059,0.189-0.075c0.067-0.017,0.137-0.035,0.21-0.055c0.04-0.007,0.08-0.012,0.12-0.015
			C707.902,158.599,707.939,158.594,707.973,158.587z"/>
		<path fill="#007FFF" d="M711.332,158.587c0.253-0.006,0.468,0.021,0.645,0.08c0.177,0.061,0.339,0.146,0.485,0.26
			c0.053,0.034,0.098,0.079,0.135,0.136c0.036,0.057,0.078,0.108,0.125,0.154c0.014,0.014,0.033,0.03,0.06,0.051
			c0.027,0.02,0.061,0.026,0.101,0.02c0.066-0.02,0.125-0.062,0.175-0.125s0.102-0.111,0.155-0.145
			c0.093-0.073,0.189-0.139,0.29-0.195c0.1-0.057,0.21-0.105,0.33-0.146c0.053-0.02,0.111-0.034,0.175-0.045
			c0.063-0.01,0.125-0.021,0.185-0.034c0.033-0.007,0.065-0.011,0.096-0.011c0.029,0,0.062,0,0.095,0
			c0.033-0.013,0.08-0.018,0.14-0.015c0.061,0.003,0.104,0.009,0.13,0.015c0.033,0.007,0.084,0.011,0.15,0.011
			c0.06,0.013,0.118,0.024,0.175,0.034c0.057,0.011,0.111,0.025,0.165,0.045c0.033,0.014,0.065,0.022,0.095,0.025
			c0.03,0.004,0.062,0.012,0.096,0.025c0.333,0.146,0.563,0.373,0.689,0.68c0.026,0.054,0.047,0.111,0.061,0.175
			c0.013,0.063,0.026,0.132,0.04,0.205c0.013,0.021,0.018,0.042,0.015,0.065c-0.004,0.023-0.002,0.045,0.005,0.064v0.09
			c0.007,0.027,0.009,0.057,0.005,0.091c-0.003,0.033-0.005,0.066-0.005,0.1v0.39v0.641v1.899c0,0.107,0.002,0.233,0.005,0.38
			c0.004,0.147-0.024,0.244-0.085,0.29c-0.026,0.021-0.069,0.035-0.13,0.045c-0.06,0.011-0.123,0.016-0.189,0.016
			c-0.067,0-0.132-0.004-0.195-0.01c-0.063-0.007-0.108-0.021-0.135-0.04c-0.04-0.021-0.067-0.061-0.08-0.12
			c-0.014-0.04-0.017-0.082-0.011-0.125c0.007-0.044,0.004-0.085-0.01-0.125c-0.007-0.033-0.008-0.072-0.005-0.115
			s0.005-0.085,0.005-0.125v-0.45v-1.91c0-0.22-0.005-0.428-0.015-0.625c-0.01-0.196-0.059-0.361-0.146-0.495
			c-0.1-0.159-0.253-0.276-0.46-0.35c-0.04-0.014-0.081-0.021-0.125-0.025c-0.043-0.003-0.088-0.011-0.135-0.024
			c-0.026-0.007-0.07-0.009-0.13-0.005c-0.06,0.003-0.1,0.008-0.12,0.015c-0.033,0.007-0.066,0.009-0.1,0.005
			c-0.034-0.003-0.067,0.002-0.101,0.016c-0.093,0.02-0.184,0.046-0.27,0.079c-0.347,0.147-0.58,0.404-0.7,0.771
			c-0.033,0.113-0.052,0.243-0.055,0.39c-0.004,0.147-0.005,0.297-0.005,0.45v1.311v0.97c0,0.08,0,0.161,0,0.245
			c0,0.083-0.018,0.148-0.051,0.194c-0.033,0.054-0.09,0.084-0.17,0.091c-0.08,0.006-0.163,0.01-0.25,0.01
			c-0.113,0-0.196-0.014-0.25-0.04c-0.06-0.033-0.095-0.089-0.104-0.165c-0.01-0.077-0.016-0.162-0.016-0.255v-0.95v-1.65
			c0-0.213-0.006-0.411-0.02-0.595s-0.061-0.342-0.14-0.475c-0.074-0.12-0.157-0.209-0.25-0.266
			c-0.094-0.057-0.221-0.102-0.381-0.135c-0.026-0.007-0.055-0.01-0.085-0.01c-0.029,0-0.062,0-0.095,0
			c-0.146,0-0.274,0.017-0.385,0.05s-0.209,0.077-0.295,0.13c-0.34,0.207-0.567,0.517-0.681,0.93
			c-0.026,0.087-0.038,0.186-0.034,0.296c0.003,0.109,0.005,0.218,0.005,0.324v1.13v1.101c0,0.087,0,0.177,0,0.27
			c0,0.094-0.021,0.167-0.061,0.221c-0.033,0.046-0.083,0.073-0.149,0.08c-0.067,0.006-0.137,0.01-0.21,0.01h-0.15
			c-0.04-0.014-0.078-0.023-0.115-0.03c-0.036-0.007-0.068-0.026-0.095-0.06c-0.033-0.04-0.05-0.092-0.05-0.155s0-0.132,0-0.205
			v-0.65v-2.859v-0.74c0-0.066,0-0.132,0-0.195s0.013-0.114,0.04-0.154c0.02-0.04,0.05-0.067,0.09-0.08
			c0.054-0.021,0.139-0.03,0.255-0.03s0.201,0.01,0.255,0.03c0.054,0.026,0.09,0.06,0.11,0.1c0.013,0.033,0.021,0.073,0.024,0.12
			c0.004,0.047,0.009,0.09,0.016,0.13s0.02,0.073,0.04,0.1c0.02,0.027,0.053,0.04,0.1,0.04c0.014-0.013,0.028-0.02,0.045-0.02
			s0.032-0.007,0.045-0.021c0.04-0.033,0.078-0.066,0.115-0.1s0.075-0.066,0.115-0.1c0.146-0.106,0.313-0.2,0.5-0.28
			c0.066-0.026,0.133-0.045,0.2-0.055c0.066-0.011,0.136-0.025,0.21-0.045c0.04,0,0.081-0.002,0.125-0.006
			C711.25,158.589,711.292,158.587,711.332,158.587z"/>
		<path fill="#007FFF" d="M721.992,163.487c0.02,0.106,0.01,0.195-0.03,0.265c-0.04,0.07-0.094,0.122-0.16,0.155
			c-0.033,0.014-0.068,0.02-0.104,0.02c-0.037,0-0.075,0.007-0.115,0.021c-0.146,0.033-0.292,0.025-0.435-0.025
			c-0.144-0.05-0.242-0.111-0.296-0.185c-0.033-0.047-0.063-0.102-0.09-0.165s-0.06-0.115-0.1-0.155
			c-0.014-0.013-0.028-0.026-0.045-0.04c-0.017-0.013-0.039-0.017-0.065-0.01c-0.073,0.02-0.142,0.057-0.205,0.11
			c-0.063,0.053-0.125,0.1-0.185,0.14c-0.087,0.054-0.18,0.102-0.28,0.145c-0.1,0.044-0.207,0.082-0.32,0.115
			c-0.066,0.021-0.138,0.033-0.215,0.04c-0.076,0.007-0.151,0.017-0.225,0.03c-0.033,0.007-0.062,0.01-0.085,0.01s-0.049,0-0.075,0
			c-0.073,0.014-0.144,0.014-0.21,0h-0.09c-0.033-0.007-0.066-0.01-0.101-0.01c-0.033,0-0.063-0.007-0.09-0.021
			c-0.026-0.006-0.048-0.008-0.064-0.005c-0.017,0.004-0.035,0.002-0.056-0.005c-0.053-0.014-0.106-0.024-0.159-0.035
			c-0.054-0.01-0.104-0.024-0.15-0.045c-0.2-0.086-0.361-0.185-0.485-0.295c-0.123-0.109-0.225-0.265-0.305-0.465
			c-0.06-0.146-0.09-0.323-0.09-0.53v-0.21c0.007-0.033,0.012-0.068,0.015-0.104c0.004-0.037,0.009-0.075,0.016-0.115
			c0.026-0.073,0.053-0.146,0.08-0.22c0.026-0.073,0.06-0.141,0.1-0.2c0.12-0.193,0.283-0.337,0.49-0.43
			c0.206-0.094,0.433-0.177,0.68-0.25c0.094-0.027,0.19-0.047,0.29-0.061c0.1-0.013,0.2-0.03,0.3-0.05
			c0.047-0.014,0.092-0.021,0.135-0.021c0.044,0,0.092-0.006,0.146-0.02c0.047-0.014,0.093-0.021,0.14-0.025
			c0.047-0.003,0.097-0.011,0.15-0.024c0.166-0.04,0.323-0.075,0.47-0.105c0.146-0.029,0.264-0.104,0.351-0.225
			c0.039-0.054,0.073-0.122,0.1-0.205s0.026-0.175,0-0.275c-0.04-0.159-0.099-0.286-0.175-0.38c-0.077-0.093-0.186-0.166-0.325-0.22
			c-0.08-0.033-0.175-0.057-0.285-0.07c-0.11-0.013-0.225-0.02-0.345-0.02s-0.237,0.007-0.351,0.02
			c-0.113,0.014-0.21,0.034-0.29,0.061c-0.113,0.04-0.223,0.097-0.329,0.17c-0.054,0.04-0.103,0.092-0.146,0.155
			c-0.043,0.063-0.082,0.131-0.115,0.204c-0.02,0.054-0.038,0.11-0.055,0.171c-0.017,0.06-0.049,0.106-0.095,0.14
			c-0.027,0.02-0.072,0.035-0.136,0.045s-0.128,0.015-0.194,0.015c-0.067,0-0.132-0.005-0.195-0.015s-0.108-0.025-0.135-0.045
			c-0.027-0.021-0.047-0.054-0.061-0.101c-0.013-0.046-0.013-0.096,0-0.149c0.021-0.087,0.042-0.168,0.065-0.245
			c0.023-0.076,0.052-0.151,0.085-0.225c0.127-0.233,0.286-0.415,0.48-0.545c0.192-0.131,0.433-0.235,0.72-0.315
			c0.066-0.014,0.135-0.023,0.205-0.03c0.069-0.006,0.142-0.017,0.215-0.029c0.026-0.007,0.07-0.009,0.13-0.006
			c0.06,0.004,0.097-0.001,0.11-0.015c0.466-0.007,0.873,0.047,1.22,0.16s0.59,0.33,0.729,0.649
			c0.061,0.134,0.096,0.289,0.105,0.466s0.015,0.361,0.015,0.555v2.21c0,0.094,0.004,0.184,0.011,0.27
			c0.006,0.087,0.026,0.157,0.06,0.211c0.033,0.046,0.076,0.079,0.13,0.1c0.061,0.026,0.116,0.045,0.17,0.055
			s0.094,0.042,0.12,0.096c0.014,0.02,0.021,0.039,0.021,0.06C721.982,163.427,721.985,163.454,721.992,163.487z M720.562,162.377
			c0.04-0.093,0.063-0.201,0.065-0.325c0.003-0.123,0.005-0.251,0.005-0.385c0-0.073-0.003-0.14-0.01-0.2
			c-0.007-0.06-0.033-0.106-0.08-0.14c-0.02-0.014-0.066-0.02-0.14-0.02c-0.014,0.013-0.037,0.02-0.07,0.02s-0.063,0.007-0.09,0.021
			c-0.054,0.013-0.113,0.026-0.181,0.039c-0.066,0.014-0.133,0.027-0.199,0.04c-0.021,0-0.042,0.002-0.065,0.006
			c-0.023,0.003-0.048,0.005-0.075,0.005c-0.1,0.026-0.208,0.041-0.324,0.045c-0.117,0.003-0.226,0.019-0.325,0.045
			c-0.054,0.014-0.102,0.024-0.146,0.035c-0.043,0.01-0.092,0.021-0.145,0.035c-0.107,0.033-0.207,0.074-0.3,0.125
			c-0.094,0.05-0.174,0.111-0.24,0.185c-0.067,0.073-0.117,0.162-0.15,0.265c-0.033,0.104-0.047,0.229-0.04,0.375
			c0,0.067,0.012,0.129,0.035,0.186s0.052,0.108,0.085,0.154c0.054,0.074,0.123,0.136,0.21,0.186s0.18,0.092,0.28,0.125
			c0.033,0.007,0.066,0.01,0.1,0.01s0.066,0.004,0.101,0.01c0.046,0.014,0.104,0.022,0.175,0.025
			c0.07,0.004,0.128-0.002,0.175-0.015c0.04-0.014,0.08-0.019,0.12-0.016c0.04,0.004,0.08-0.001,0.12-0.015
			c0.053-0.014,0.104-0.023,0.155-0.03c0.05-0.007,0.098-0.02,0.145-0.04c0.193-0.08,0.358-0.177,0.495-0.29
			S720.488,162.57,720.562,162.377z"/>
		<path fill="#007FFF" d="M723.402,157.147c0.1,0,0.2,0.001,0.3,0.005c0.1,0.003,0.17,0.031,0.21,0.085
			c0.033,0.04,0.052,0.095,0.055,0.165c0.004,0.07,0.005,0.142,0.005,0.215v0.58c0,0.054-0.001,0.108-0.005,0.165
			c-0.003,0.057,0.002,0.104,0.016,0.145c0.026,0.094,0.086,0.153,0.18,0.181c0.033,0.007,0.065,0.01,0.095,0.01
			c0.03,0,0.062,0,0.096,0c0.073,0,0.163-0.002,0.27-0.005c0.106-0.004,0.184,0.005,0.23,0.024c0.06,0.04,0.1,0.08,0.119,0.12
			c0.014,0.027,0.021,0.057,0.021,0.09c0,0.034,0,0.067,0,0.101c0,0.073-0.004,0.142-0.01,0.205c-0.007,0.063-0.03,0.111-0.07,0.145
			s-0.095,0.052-0.165,0.056c-0.07,0.003-0.144,0.003-0.22,0c-0.077-0.004-0.152-0.006-0.226-0.006s-0.137,0.011-0.189,0.03
			c-0.047,0.021-0.08,0.054-0.101,0.101c-0.02,0.046-0.033,0.102-0.04,0.165c-0.006,0.063-0.008,0.13-0.005,0.199
			c0.004,0.07,0.005,0.139,0.005,0.205v1.98c0,0.146-0.001,0.302-0.005,0.465c-0.003,0.163,0.025,0.288,0.085,0.375
			c0.033,0.054,0.077,0.09,0.13,0.11c0.054,0.02,0.117,0.036,0.19,0.05c0.021,0.007,0.042,0.008,0.065,0.005
			c0.022-0.003,0.045-0.002,0.064,0.005h0.13c0.066,0,0.129,0.005,0.186,0.015c0.057,0.011,0.098,0.035,0.125,0.075
			c0.013,0.021,0.024,0.055,0.035,0.105c0.01,0.05,0.017,0.102,0.02,0.154c0.003,0.054,0.002,0.105-0.005,0.155
			s-0.021,0.089-0.04,0.115c-0.026,0.047-0.077,0.08-0.15,0.1c-0.053,0.014-0.113,0.019-0.18,0.016
			c-0.066-0.004-0.127-0.005-0.18-0.005c-0.04,0-0.08,0.001-0.12,0.005c-0.04,0.003-0.077,0.001-0.11-0.005h-0.12
			c-0.033-0.007-0.064-0.012-0.095-0.016c-0.03-0.003-0.062-0.005-0.095-0.005c-0.134-0.033-0.249-0.07-0.346-0.11
			s-0.178-0.109-0.244-0.21c-0.094-0.133-0.147-0.301-0.16-0.505c-0.014-0.203-0.021-0.421-0.021-0.654v-2.62
			c-0.02-0.087-0.038-0.15-0.055-0.19s-0.065-0.073-0.146-0.1c-0.026-0.007-0.053-0.007-0.079,0
			c-0.027,0.007-0.054,0.003-0.08-0.011h-0.16c-0.087,0-0.158-0.008-0.215-0.024s-0.096-0.055-0.115-0.115
			c-0.014-0.026-0.021-0.057-0.025-0.09c-0.003-0.033-0.005-0.066-0.005-0.1c0-0.094,0.007-0.172,0.021-0.235
			c0.013-0.063,0.053-0.111,0.12-0.146c0.073-0.026,0.168-0.033,0.284-0.02c0.117,0.014,0.216,0.007,0.295-0.021
			c0.061-0.033,0.107-0.079,0.141-0.14c0.013-0.04,0.02-0.09,0.02-0.15c0-0.06,0-0.116,0-0.17v-0.619c0-0.054,0-0.108,0-0.165
			s0.007-0.105,0.021-0.146c0.026-0.053,0.076-0.097,0.149-0.13c0.021,0,0.039-0.002,0.056-0.005
			C723.374,157.148,723.389,157.147,723.402,157.147z"/>
		<path fill="#007FFF" d="M726.111,157.707c-0.054-0.04-0.081-0.111-0.085-0.215c-0.003-0.104-0.005-0.205-0.005-0.305
			c0-0.054,0-0.11,0-0.17c0-0.061,0.01-0.11,0.03-0.15c0.026-0.054,0.08-0.094,0.16-0.12c0.013-0.007,0.028-0.008,0.045-0.005
			c0.017,0.004,0.031,0.002,0.045-0.005c0.113,0,0.22,0.003,0.319,0.01c0.101,0.007,0.167,0.047,0.2,0.12
			c0.021,0.04,0.03,0.089,0.03,0.145c0,0.058,0,0.115,0,0.176c0,0.12-0.002,0.233-0.005,0.34c-0.004,0.106-0.049,0.177-0.135,0.21
			c-0.034,0.014-0.068,0.02-0.105,0.02s-0.075,0-0.115,0c-0.073,0-0.144,0-0.21,0S726.158,157.74,726.111,157.707z M726.852,163.377
			c0,0.067,0.002,0.135,0.005,0.205s-0.012,0.125-0.045,0.165c-0.02,0.04-0.05,0.065-0.09,0.075s-0.087,0.021-0.141,0.035h-0.149
			c-0.087,0-0.162-0.005-0.226-0.016c-0.063-0.01-0.111-0.041-0.145-0.095c-0.026-0.04-0.04-0.092-0.04-0.155
			c0-0.063,0-0.125,0-0.185v-4.23c0-0.073,0-0.145,0-0.215c0-0.069,0.017-0.125,0.05-0.165c0.021-0.033,0.047-0.053,0.08-0.06
			s0.07-0.017,0.11-0.03c0.013,0,0.028,0.002,0.045,0.005c0.017,0.004,0.031,0.002,0.045-0.005c0.087,0,0.175,0.002,0.265,0.005
			c0.09,0.004,0.152,0.032,0.186,0.085c0.033,0.04,0.05,0.092,0.05,0.155s0,0.129,0,0.195V163.377z"/>
		<path fill="#007FFF" d="M732.892,161.058c0.013,0.04,0.02,0.102,0.02,0.185s-0.003,0.142-0.01,0.175v0.101
			c-0.007,0.053-0.012,0.102-0.015,0.145c-0.004,0.044-0.009,0.092-0.016,0.146c-0.014,0.04-0.021,0.079-0.024,0.119
			c-0.004,0.04-0.012,0.08-0.025,0.12c-0.026,0.087-0.05,0.174-0.07,0.261c-0.02,0.086-0.047,0.166-0.08,0.239
			c-0.14,0.32-0.326,0.589-0.56,0.806s-0.521,0.382-0.86,0.495c-0.073,0.026-0.151,0.046-0.234,0.06
			c-0.084,0.014-0.169,0.026-0.255,0.04c-0.04,0.007-0.082,0.012-0.125,0.015c-0.044,0.004-0.086,0.005-0.125,0.005
			c-0.027,0.007-0.065,0.011-0.115,0.011s-0.085-0.004-0.105-0.011c-0.026-0.006-0.053-0.008-0.08-0.005
			c-0.026,0.004-0.05,0.002-0.069-0.005h-0.061l-0.24-0.03c-0.093-0.026-0.183-0.053-0.27-0.079c-0.087-0.027-0.17-0.057-0.25-0.091
			c-0.3-0.133-0.547-0.307-0.74-0.52c-0.193-0.214-0.354-0.474-0.479-0.78c-0.034-0.066-0.059-0.133-0.075-0.2
			c-0.017-0.066-0.032-0.136-0.045-0.21c-0.014-0.026-0.019-0.048-0.016-0.064c0.004-0.017,0.002-0.038-0.005-0.065
			c-0.013-0.053-0.021-0.108-0.024-0.165c-0.004-0.057-0.012-0.111-0.025-0.165c0-0.033,0-0.062,0-0.085s-0.003-0.052-0.01-0.085
			s-0.01-0.092-0.01-0.175s0.006-0.145,0.02-0.185c0.014-0.047,0.017-0.094,0.01-0.141c-0.007-0.046-0.003-0.093,0.011-0.14
			c0.006-0.033,0.011-0.062,0.015-0.085c0.003-0.023,0.008-0.052,0.015-0.085c0.021-0.08,0.039-0.16,0.056-0.24
			s0.041-0.156,0.074-0.23c0.101-0.246,0.222-0.468,0.365-0.664c0.144-0.197,0.318-0.362,0.525-0.495
			c0.08-0.054,0.163-0.099,0.25-0.136c0.086-0.036,0.177-0.074,0.27-0.114c0.08-0.033,0.167-0.056,0.261-0.065
			c0.093-0.01,0.187-0.028,0.279-0.055c0.047,0,0.092-0.002,0.135-0.005c0.044-0.004,0.086-0.009,0.125-0.016
			c0.594-0.006,1.087,0.117,1.48,0.37c0.394,0.254,0.677,0.584,0.85,0.99c0.033,0.066,0.061,0.134,0.08,0.2
			c0.021,0.066,0.044,0.137,0.07,0.21c0.02,0.073,0.036,0.151,0.05,0.234c0.014,0.084,0.03,0.169,0.05,0.256
			c0.007,0.033,0.009,0.068,0.006,0.104C732.883,160.989,732.885,161.023,732.892,161.058z M732.001,161.627
			c0.014-0.046,0.019-0.1,0.016-0.16c-0.004-0.06-0.005-0.116-0.005-0.17c0-0.26-0.023-0.479-0.07-0.66
			c-0.021-0.053-0.037-0.106-0.05-0.159c-0.014-0.054-0.03-0.104-0.051-0.15c-0.187-0.434-0.483-0.733-0.89-0.9
			c-0.047-0.02-0.097-0.034-0.15-0.045c-0.053-0.01-0.106-0.021-0.159-0.034c-0.054-0.014-0.11-0.021-0.17-0.021
			c-0.061,0-0.12,0-0.181,0l-0.18,0.03c-0.066,0.014-0.129,0.028-0.186,0.045s-0.111,0.038-0.164,0.064
			c-0.047,0.014-0.091,0.034-0.131,0.061s-0.076,0.054-0.109,0.08c-0.16,0.113-0.29,0.25-0.391,0.41
			c-0.1,0.159-0.187,0.347-0.26,0.56c-0.02,0.066-0.033,0.135-0.04,0.205s-0.017,0.142-0.03,0.215c-0.006,0.026-0.01,0.07-0.01,0.13
			c-0.007,0.021-0.008,0.044-0.005,0.07s0.005,0.057,0.005,0.09c0,0.066,0,0.134,0,0.2s0.007,0.127,0.021,0.18l0.02,0.12
			c0.014,0.066,0.025,0.132,0.035,0.195s0.028,0.121,0.055,0.175c0.067,0.16,0.146,0.31,0.235,0.45
			c0.09,0.14,0.201,0.257,0.335,0.35c0.033,0.021,0.063,0.037,0.09,0.05c0.026,0.014,0.057,0.03,0.09,0.051
			c0.054,0.033,0.112,0.062,0.176,0.085c0.063,0.023,0.131,0.045,0.204,0.064c0.034,0.014,0.065,0.019,0.096,0.016
			c0.029-0.004,0.062-0.002,0.095,0.005c0.021,0.007,0.062,0.013,0.125,0.02s0.111,0.004,0.146-0.01
			c0.026-0.007,0.053-0.009,0.079-0.005c0.027,0.003,0.054-0.002,0.08-0.016c0.054-0.013,0.106-0.024,0.16-0.034
			c0.054-0.011,0.104-0.025,0.15-0.046c0.227-0.093,0.41-0.223,0.55-0.39c0.14-0.166,0.257-0.363,0.35-0.59
			c0.033-0.08,0.056-0.165,0.065-0.255S731.975,161.721,732.001,161.627z"/>
		<path fill="#007FFF" d="M736.342,158.607c0.42-0.014,0.756,0.043,1.01,0.17c0.253,0.127,0.456,0.316,0.61,0.57
			c0.04,0.066,0.071,0.138,0.095,0.215c0.023,0.076,0.045,0.154,0.064,0.234c0.033,0.127,0.054,0.264,0.061,0.41
			s0.01,0.297,0.01,0.45v1.07v1.56c0,0.113-0.002,0.227-0.005,0.34c-0.004,0.113-0.049,0.187-0.135,0.221
			c-0.034,0.013-0.068,0.021-0.105,0.024c-0.036,0.003-0.075,0.005-0.115,0.005c-0.086,0-0.17-0.002-0.25-0.005
			c-0.079-0.003-0.137-0.031-0.17-0.085c-0.033-0.047-0.05-0.106-0.05-0.18s0-0.146,0-0.221v-0.859v-1.63
			c0-0.181-0.003-0.358-0.01-0.535s-0.037-0.328-0.09-0.455c-0.054-0.134-0.134-0.241-0.24-0.325
			c-0.106-0.083-0.23-0.148-0.37-0.195c-0.04-0.013-0.082-0.021-0.125-0.024s-0.085-0.012-0.125-0.025
			c-0.033-0.006-0.085-0.008-0.155-0.005c-0.069,0.004-0.118,0.009-0.145,0.016c-0.026,0.013-0.05,0.018-0.07,0.015
			c-0.02-0.003-0.043-0.002-0.069,0.005c-0.087,0.02-0.169,0.042-0.245,0.065c-0.077,0.023-0.148,0.055-0.215,0.095
			c-0.027,0.014-0.051,0.026-0.07,0.04c-0.021,0.014-0.044,0.026-0.07,0.04c-0.233,0.166-0.403,0.416-0.51,0.75
			c-0.021,0.053-0.033,0.108-0.04,0.165s-0.017,0.111-0.03,0.165c-0.014,0.033-0.017,0.064-0.01,0.095s0.003,0.059-0.01,0.085v0.21
			c-0.007,0.021-0.009,0.044-0.005,0.07c0.003,0.026,0.005,0.057,0.005,0.09v0.3v0.96v0.88c0,0.073,0,0.148,0,0.226
			c0,0.076-0.017,0.138-0.05,0.185c-0.034,0.054-0.092,0.082-0.176,0.085c-0.083,0.003-0.168,0.005-0.255,0.005
			c-0.053,0-0.104-0.003-0.149-0.01c-0.047-0.007-0.087-0.023-0.12-0.05c-0.054-0.033-0.08-0.097-0.08-0.19c0-0.093,0-0.183,0-0.27
			v-1.181v-2.42v-0.609c0-0.061,0-0.12,0-0.181c0-0.06,0.013-0.106,0.04-0.14c0.02-0.04,0.053-0.066,0.1-0.08
			c0.026-0.007,0.065-0.013,0.115-0.02s0.102-0.011,0.155-0.011c0.053,0,0.104,0.004,0.154,0.011
			c0.051,0.007,0.085,0.017,0.105,0.029c0.073,0.047,0.106,0.105,0.1,0.176c-0.007,0.069,0.004,0.148,0.03,0.234
			c0.014,0.04,0.04,0.073,0.08,0.101c0.08,0.006,0.145-0.023,0.195-0.091c0.05-0.066,0.102-0.119,0.154-0.159
			c0.094-0.067,0.188-0.129,0.285-0.186s0.208-0.104,0.335-0.145c0.054-0.021,0.111-0.033,0.175-0.04s0.125-0.017,0.186-0.03
			c0.033-0.007,0.066-0.01,0.1-0.01S736.308,158.607,736.342,158.607z"/>
	</g>
	<rect x="743.318" y="159.492" fill="#007FFF" width="3.375" height="3.375"/>
</g>
</svg>
