<?xml version="1.0" encoding="utf-8"?>
<!-- Generator: Adobe Illustrator 16.0.0, SVG Export Plug-In . SVG Version: 6.00 Build 0)  -->
<!DOCTYPE svg PUBLIC "-//W3C//DTD SVG 1.1//EN" "http://www.w3.org/Graphics/SVG/1.1/DTD/svg11.dtd">
<svg version="1.1" xmlns="http://www.w3.org/2000/svg" xmlns:xlink="http://www.w3.org/1999/xlink" x="0px" y="0px"
	 width="283.464px" height="283.465px" viewBox="467.096 467.479 283.464 283.465"
	 enable-background="new 467.096 467.479 283.464 283.465" xml:space="preserve">
<g id="fond" display="none">
	<circle display="inline" fill="#20558A" cx="593.722" cy="444.105" r="141.116"/>
	<circle display="inline" fill="#20558A" cx="593.722" cy="746.181" r="141.116"/>
</g>
<g id="FOND_blanc" display="none">
	<rect x="-1421.522" y="-171.185" display="inline" fill="#FFFFFF" width="2504.369" height="1248.557"/>
</g>
<g id="fond_-_copie" display="none">
	<circle display="inline" fill="#717881" cx="593.722" cy="444.105" r="141.116"/>
	<circle display="inline" fill="#D5DCEA" cx="593.722" cy="746.181" r="141.116"/>
</g>
<g id="A" display="none">
	<g display="inline">
		<path fill="#FFFFFF" d="M519.196,779.459c3.451,0,6.675,0.861,9.672,2.579c2.997,1.72,5.337,4.028,7.017,6.923
			c1.68,2.897,2.52,6.064,2.52,9.502c0,5.158-1.909,9.638-5.723,13.438s-8.31,5.701-13.485,5.701c-5.177,0-9.673-1.9-13.486-5.701
			s-5.721-8.28-5.721-13.438c0-5.247,1.86-9.727,5.585-13.438C509.298,781.314,513.839,779.459,519.196,779.459z M543.946,742.537
			c-5.167,0-9.605,1.9-13.319,5.701c-3.716,3.801-5.572,8.191-5.572,13.167c0,5.158,1.835,9.661,5.504,13.507
			c3.67,3.848,8.132,5.769,13.388,5.769c5.437,0,10.011-1.9,13.727-5.701c3.714-3.801,5.572-8.325,5.572-13.574
			c0-3.347-0.861-6.448-2.583-9.298c-1.723-2.852-4.077-5.158-7.067-6.924C550.604,743.42,547.389,742.537,543.946,742.537z
			 M568.811,705.615c3.347,0,6.469,0.84,9.366,2.52c2.896,1.68,5.247,3.996,7.059,6.948c1.81,2.952,2.715,6.198,2.715,9.739
			c0,5.178-1.9,9.674-5.701,13.488c-3.801,3.813-8.28,5.72-13.438,5.72c-5.249,0-9.773-1.907-13.574-5.72
			c-3.801-3.814-5.701-8.311-5.701-13.488c0-5.266,1.922-9.783,5.769-13.553C559.149,707.501,563.652,705.615,568.811,705.615z
			 M568.811,779.459c-5.341,0-9.888,1.832-13.642,5.498c-3.757,3.664-5.634,8.168-5.634,13.506c0,5.25,1.922,9.752,5.769,13.506
			c3.846,3.757,8.349,5.634,13.507,5.634s9.638-1.9,13.438-5.701s5.701-8.28,5.701-13.438c0-3.438-0.838-6.604-2.512-9.502
			c-1.675-2.895-4.004-5.203-6.99-6.923C575.462,780.32,572.249,779.459,568.811,779.459z M593.516,668.829
			c3.438,0,6.628,0.861,9.569,2.579c2.94,1.721,5.271,4.051,6.991,6.99c1.718,2.942,2.579,6.088,2.579,9.435
			c0,5.249-1.879,9.753-5.633,13.507c-3.757,3.756-8.26,5.633-13.507,5.633c-5.341,0-9.82-1.854-13.438-5.565
			c-3.62-3.71-5.43-8.233-5.43-13.574c0-5.158,1.832-9.614,5.498-13.37C583.81,670.709,588.267,668.829,593.516,668.829z
			 M593.787,742.537c5.158,0,9.591,1.9,13.303,5.701c3.71,3.801,5.565,8.191,5.565,13.167c0,5.158-1.832,9.661-5.498,13.507
			c-3.664,3.848-8.123,5.769-13.37,5.769c-5.249,0-9.752-1.921-13.507-5.769c-3.756-3.846-5.633-8.349-5.633-13.507
			c0-4.976,1.9-9.366,5.701-13.167S588.629,742.537,593.787,742.537z M618.221,705.615c3.438,0,6.651,0.863,9.638,2.59
			s5.339,4.063,7.059,7.014c1.718,2.953,2.579,6.153,2.579,9.604c0,5.178-1.855,9.674-5.565,13.488
			c-3.712,3.813-8.28,5.72-13.71,5.72c-5.158,0-9.638-1.907-13.438-5.72c-3.801-3.814-5.701-8.311-5.701-13.488
			c0-5.266,1.922-9.783,5.77-13.553C608.695,707.501,613.151,705.615,618.221,705.615z M618.221,779.459
			c3.438,0,6.651,0.861,9.638,2.579c2.986,1.72,5.339,4.028,7.059,6.923c1.718,2.897,2.579,6.064,2.579,9.502
			c0,3.44-0.861,6.631-2.579,9.57c-1.72,2.941-4.072,5.272-7.059,6.99c-2.986,1.721-6.199,2.579-9.638,2.579
			c-5.158,0-9.638-1.9-13.438-5.701s-5.701-8.28-5.701-13.438c0-5.247,1.854-9.727,5.565-13.438
			C608.356,781.314,612.88,779.459,618.221,779.459z M643.333,742.537c4.976,0,9.366,1.9,13.167,5.701s5.701,8.191,5.701,13.167
			c0,5.158-1.879,9.661-5.634,13.507c-3.756,3.848-8.167,5.769-13.234,5.769c-5.341,0-9.933-1.921-13.777-5.769
			c-3.848-3.846-5.77-8.349-5.77-13.507c0-4.976,1.945-9.366,5.837-13.167C633.513,744.438,638.084,742.537,643.333,742.537z
			 M667.767,779.459c3.438,0,6.651,0.861,9.638,2.579c2.986,1.72,5.315,4.028,6.991,6.923c1.673,2.897,2.511,6.064,2.511,9.502
			c0,5.158-1.9,9.638-5.701,13.438s-8.28,5.701-13.438,5.701s-9.661-1.877-13.506-5.634c-3.848-3.754-5.77-8.256-5.77-13.506
			c0-5.338,1.877-9.842,5.633-13.506C657.879,781.291,662.426,779.459,667.767,779.459z"/>
	</g>
	<g id="Calque_2" display="inline">
	</g>
	<g id="Calque_7" display="inline">
	</g>
</g>
<g id="B" display="none">
	<g display="inline" opacity="0.9">
		<path fill="#FFFFFF" d="M546.056,438.866c7.804,0,14.816-2.531,21.041-7.594c3.164,1.372,5.562,2.427,7.198,3.164
			c1.634,0.739,3.821,1.794,6.565,3.164c2.741,1.372,4.85,2.559,6.328,3.56c1.476,1.004,3.188,2.294,5.142,3.876
			c1.95,1.582,3.374,3.085,4.271,4.509c0.895,1.424,1.661,3.085,2.294,4.983s0.949,3.903,0.949,6.012v54.264H492.267V460.54
			c0.316-3.374,1.159-6.433,2.531-9.176c1.369-2.741,2.951-5.063,4.746-6.961c1.792-1.898,4.217-3.743,7.277-5.537
			c3.058-1.792,5.774-3.243,8.147-4.351s5.458-2.398,9.255-3.876C530.552,436.125,537.829,438.866,546.056,438.866z
			 M545.977,373.687c-7.752,0-14.372,2.743-19.854,8.227c-5.485,5.485-8.227,12.13-8.227,19.934c0,7.806,2.741,14.45,8.227,19.934
			c5.482,5.485,12.103,8.227,19.854,8.227s14.396-2.741,19.934-8.227c5.537-5.483,8.306-12.128,8.306-19.934
			c0-7.804-2.769-14.448-8.306-19.934C560.373,376.43,553.729,373.687,545.977,373.687z"/>
	</g>
	<g display="inline" opacity="0.8">
		<g>
			<path fill="#FFFFFF" d="M613.323,482.312v-8.248h82v8.248H613.323z"/>
		</g>
	</g>
	<g display="inline" opacity="0.8">
		<g>
			<path fill="#FFFFFF" d="M613.323,482.312v-8.248h82v8.248H613.323z"/>
		</g>
	</g>
	<g display="inline" opacity="0.8">
		<g>
			<g id="Graduation_x5F_Cap_1_">
				<g>
					<path fill="#FFFFFF" d="M512.232,847.022v-88.084l18,8.71v36.374c0,22.449,29.55,40.647,66,40.647
						c36.449,0,66-18.198,66-40.647v-36.369l35.364-17.112c3.936-1.905,6.636-5.848,6.636-10.395c0-4.546-2.7-8.49-6.636-10.395
						l-96.001-46.454c-1.619-0.784-3.438-1.22-5.363-1.22s-3.744,0.436-5.363,1.22l-96,46.454
						c-3.938,1.904-6.637,5.849-6.637,10.395c0,4.547,2.699,8.489,6.637,10.395l5.363,2.596v93.891 M644.232,804.022
						c0,10.742-20.965,23.227-48,23.227c-27.036,0-48-12.484-48-23.227v-27.664l42.637,20.638c1.619,0.784,3.438,1.219,5.363,1.219
						s3.744-0.435,5.363-1.219l42.637-20.638V804.022z M596.232,780.115l-82.596-39.969l82.596-39.969l82.596,39.969
						L596.232,780.115z"/>
				</g>
			</g>
		</g>
		<rect x="588.654" y="628.575" fill="#C89108" width="12.656" height="26.502"/>
		
			<rect x="632.732" y="645.498" transform="matrix(-0.5 0.866 -0.866 -0.5 1533.4697 418.2939)" fill="#C89108" width="26.5" height="12.657"/>
		
			<rect x="671.732" y="679.5" transform="matrix(-0.6828 0.7306 -0.7306 -0.6828 1653.7578 653.6679)" fill="#C89108" width="26.501" height="12.657"/>
		
			<rect x="531.068" y="645.498" transform="matrix(0.5 0.866 -0.866 0.5 836.6654 -145.4774)" fill="#C89108" width="26.5" height="12.657"/>
		
			<rect x="492.069" y="679.5" transform="matrix(0.6828 0.7306 -0.7306 0.6828 661.3289 -151.6495)" fill="#C89108" width="26.501" height="12.657"/>
	</g>
</g>
<g id="C" display="none">
	<g display="inline">
		<g>
			<path fill="#C89108" d="M485.975,746.79c0-28.664,10.416-53.717,31.255-75.156c20.836-21.438,46.069-32.158,75.698-32.158
				c28.785,0,54.019,10.54,75.698,31.616c10.357,10.479,18.156,22.162,23.396,35.049c5.238,12.889,7.858,26.438,7.858,40.649
				c0,29.389-10.419,54.501-31.255,75.337c-10.36,10.359-21.801,18.188-34.326,23.486c-6.143,2.529-12.678,4.488-19.602,5.871
				c-6.928,1.387-14.183,2.078-21.771,2.078c-28.906,0-53.959-10.507-75.156-31.526C496.571,801.021,485.975,775.938,485.975,746.79
				z M507.654,746.79c0,23.246,8.551,43.3,25.654,60.161c17.101,16.863,36.974,25.293,59.619,25.293
				c23.365,0,43.54-8.249,60.522-24.751c8.551-8.672,14.814-17.886,18.789-27.642c2.047-5.059,3.613-10.236,4.697-15.537l1.265-8.13
				l0.361-9.395c0-23.727-8.342-43.93-25.022-60.613c-16.683-16.68-36.886-25.021-60.612-25.021
				c-23.125,0-43.119,8.432-59.98,25.293C516.083,703.312,507.654,723.425,507.654,746.79z"/>
		</g>
	</g>
	<g display="inline">
		<path fill="#FFFFFF" d="M533.762,744.952h56.12v-58.19h7.82v58.19h56.58v7.36h-56.58v59.569h-7.82v-59.569h-56.12V744.952z"/>
	</g>
</g>
<g id="mail" display="none">
</g>
<g id="annuaire">
	<g display="none">
		<g display="inline">
			<path fill="#990000" d="M651.113,478.323c0-1.034-0.019-1.925-0.072-2.741h1.397l0.055,1.725h0.072
				c0.399-1.18,1.362-1.925,2.434-1.925c0.181,0,0.309,0.019,0.453,0.055v1.507c-0.163-0.036-0.326-0.054-0.544-0.054
				c-1.126,0-1.925,0.854-2.143,2.051c-0.036,0.22-0.072,0.473-0.072,0.745v4.685h-1.58V478.323z"/>
			<path fill="#990000" d="M657.76,480.267c0.036,2.161,1.416,3.051,3.014,3.051c1.144,0,1.834-0.2,2.433-0.454l0.272,1.144
				c-0.563,0.255-1.525,0.545-2.924,0.545c-2.705,0-4.321-1.779-4.321-4.431c0-2.65,1.563-4.739,4.122-4.739
				c2.869,0,3.632,2.524,3.632,4.141c0,0.326-0.036,0.58-0.055,0.744H657.76z M662.443,479.123c0.019-1.017-0.417-2.596-2.215-2.596
				c-1.616,0-2.324,1.487-2.452,2.596H662.443z"/>
			<path fill="#990000" d="M672.23,484.043c-0.416,0.219-1.344,0.509-2.522,0.509c-2.651,0-4.377-1.798-4.377-4.485
				c0-2.705,1.853-4.666,4.722-4.666c0.943,0,1.779,0.235,2.215,0.454l-0.363,1.235c-0.382-0.219-0.98-0.418-1.852-0.418
				c-2.017,0-3.105,1.488-3.105,3.322c0,2.034,1.307,3.287,3.051,3.287c0.908,0,1.508-0.236,1.961-0.437L672.23,484.043z"/>
			<path fill="#990000" d="M674.102,471.479h1.598v5.483h0.036c0.254-0.454,0.654-0.854,1.145-1.126
				c0.472-0.272,1.034-0.454,1.634-0.454c1.181,0,3.068,0.727,3.068,3.759v5.229h-1.598v-5.048c0-1.416-0.526-2.614-2.033-2.614
				c-1.035,0-1.852,0.726-2.144,1.598c-0.09,0.218-0.108,0.454-0.108,0.763v5.302h-1.598V471.479z"/>
			<path fill="#990000" d="M685.07,480.267c0.035,2.161,1.416,3.051,3.013,3.051c1.145,0,1.835-0.2,2.434-0.454l0.272,1.144
				c-0.563,0.255-1.525,0.545-2.924,0.545c-2.705,0-4.321-1.779-4.321-4.431c0-2.65,1.562-4.739,4.122-4.739
				c2.868,0,3.632,2.524,3.632,4.141c0,0.326-0.036,0.58-0.056,0.744H685.07z M689.754,479.123c0.018-1.017-0.417-2.596-2.216-2.596
				c-1.615,0-2.323,1.487-2.451,2.596H689.754z"/>
			<path fill="#990000" d="M693.276,478.323c0-1.034-0.018-1.925-0.072-2.741h1.398l0.054,1.725h0.072
				c0.4-1.18,1.362-1.925,2.434-1.925c0.182,0,0.309,0.019,0.454,0.055v1.507c-0.163-0.036-0.327-0.054-0.545-0.054
				c-1.126,0-1.925,0.854-2.143,2.051c-0.036,0.22-0.072,0.473-0.072,0.745v4.685h-1.58V478.323z"/>
			<path fill="#990000" d="M705.297,484.043c-0.418,0.219-1.344,0.509-2.523,0.509c-2.65,0-4.376-1.798-4.376-4.485
				c0-2.705,1.853-4.666,4.721-4.666c0.944,0,1.78,0.235,2.215,0.454l-0.363,1.235c-0.381-0.219-0.979-0.418-1.852-0.418
				c-2.016,0-3.105,1.488-3.105,3.322c0,2.034,1.308,3.287,3.052,3.287c0.907,0,1.506-0.236,1.96-0.437L705.297,484.043z"/>
			<path fill="#990000" d="M707.167,471.479h1.6v5.483h0.035c0.255-0.454,0.653-0.854,1.144-1.126
				c0.473-0.272,1.036-0.454,1.635-0.454c1.181,0,3.069,0.727,3.069,3.759v5.229h-1.599v-5.048c0-1.416-0.526-2.614-2.033-2.614
				c-1.035,0-1.853,0.726-2.143,1.598c-0.092,0.218-0.108,0.454-0.108,0.763v5.302h-1.6V471.479z"/>
			<path fill="#990000" d="M718.135,480.267c0.036,2.161,1.417,3.051,3.015,3.051c1.144,0,1.834-0.2,2.433-0.454l0.272,1.144
				c-0.563,0.255-1.524,0.545-2.923,0.545c-2.706,0-4.321-1.779-4.321-4.431c0-2.65,1.561-4.739,4.121-4.739
				c2.869,0,3.632,2.524,3.632,4.141c0,0.326-0.036,0.58-0.055,0.744H718.135z M722.82,479.123c0.018-1.017-0.418-2.596-2.216-2.596
				c-1.616,0-2.325,1.487-2.451,2.596H722.82z"/>
		</g>
	</g>
	<g id="arial" display="none">
		<g display="inline">
			<path fill="#990000" d="M658.08,482.497V474.2h1.266v1.258c0.323-0.589,0.621-0.977,0.895-1.164s0.574-0.281,0.902-0.281
				c0.474,0,0.956,0.151,1.445,0.453l-0.484,1.305c-0.344-0.203-0.688-0.305-1.031-0.305c-0.308,0-0.583,0.093-0.828,0.277
				s-0.419,0.441-0.523,0.77c-0.156,0.5-0.234,1.047-0.234,1.641v4.344H658.08z"/>
			<path fill="#990000" d="M669.104,479.825l1.453,0.18c-0.229,0.849-0.653,1.508-1.273,1.977s-1.411,0.703-2.375,0.703
				c-1.214,0-2.176-0.374-2.887-1.121s-1.066-1.796-1.066-3.145c0-1.396,0.359-2.479,1.078-3.25s1.651-1.156,2.797-1.156
				c1.109,0,2.016,0.378,2.719,1.133s1.055,1.817,1.055,3.188c0,0.083-0.003,0.208-0.008,0.375h-6.188
				c0.052,0.911,0.31,1.609,0.773,2.094s1.042,0.727,1.734,0.727c0.516,0,0.956-0.136,1.32-0.406S668.89,480.419,669.104,479.825z
				 M664.486,477.552h4.633c-0.063-0.698-0.239-1.222-0.531-1.57c-0.448-0.542-1.028-0.813-1.742-0.813
				c-0.646,0-1.188,0.216-1.629,0.648S664.533,476.828,664.486,477.552z"/>
			<path fill="#990000" d="M677.736,479.458l1.383,0.18c-0.151,0.953-0.538,1.699-1.16,2.238s-1.387,0.809-2.293,0.809
				c-1.136,0-2.048-0.371-2.738-1.113s-1.035-1.806-1.035-3.191c0-0.896,0.148-1.68,0.445-2.352s0.749-1.176,1.355-1.512
				s1.267-0.504,1.98-0.504c0.901,0,1.638,0.228,2.211,0.684s0.94,1.103,1.102,1.941l-1.367,0.211
				c-0.13-0.558-0.36-0.977-0.691-1.258s-0.73-0.422-1.199-0.422c-0.708,0-1.284,0.254-1.727,0.762s-0.664,1.312-0.664,2.41
				c0,1.114,0.214,1.925,0.641,2.43s0.984,0.758,1.672,0.758c0.552,0,1.013-0.169,1.383-0.508S677.638,480.161,677.736,479.458z"/>
			<path fill="#990000" d="M680.322,482.497v-11.453h1.406v4.109c0.656-0.761,1.484-1.141,2.484-1.141
				c0.614,0,1.148,0.121,1.602,0.363s0.777,0.577,0.973,1.004s0.293,1.047,0.293,1.859v5.258h-1.406v-5.258
				c0-0.703-0.152-1.215-0.457-1.535s-0.735-0.48-1.293-0.48c-0.417,0-0.809,0.108-1.176,0.324s-0.629,0.509-0.785,0.879
				s-0.234,0.88-0.234,1.531v4.539H680.322z"/>
			<path fill="#990000" d="M694.9,479.825l1.453,0.18c-0.229,0.849-0.653,1.508-1.273,1.977s-1.411,0.703-2.375,0.703
				c-1.214,0-2.176-0.374-2.887-1.121s-1.066-1.796-1.066-3.145c0-1.396,0.359-2.479,1.078-3.25s1.651-1.156,2.797-1.156
				c1.109,0,2.016,0.378,2.719,1.133s1.055,1.817,1.055,3.188c0,0.083-0.003,0.208-0.008,0.375h-6.188
				c0.052,0.911,0.31,1.609,0.773,2.094s1.042,0.727,1.734,0.727c0.516,0,0.956-0.136,1.32-0.406S694.687,480.419,694.9,479.825z
				 M690.283,477.552h4.633c-0.063-0.698-0.239-1.222-0.531-1.57c-0.448-0.542-1.028-0.813-1.742-0.813
				c-0.646,0-1.188,0.216-1.629,0.648S690.33,476.828,690.283,477.552z"/>
			<path fill="#990000" d="M698.104,482.497V474.2h1.266v1.258c0.323-0.589,0.621-0.977,0.895-1.164s0.574-0.281,0.902-0.281
				c0.474,0,0.956,0.151,1.445,0.453l-0.484,1.305c-0.344-0.203-0.688-0.305-1.031-0.305c-0.308,0-0.583,0.093-0.828,0.277
				s-0.419,0.441-0.523,0.77c-0.156,0.5-0.234,1.047-0.234,1.641v4.344H698.104z"/>
			<path fill="#990000" d="M708.861,479.458l1.383,0.18c-0.151,0.953-0.538,1.699-1.16,2.238s-1.387,0.809-2.293,0.809
				c-1.136,0-2.048-0.371-2.738-1.113s-1.035-1.806-1.035-3.191c0-0.896,0.148-1.68,0.445-2.352s0.749-1.176,1.355-1.512
				s1.267-0.504,1.98-0.504c0.901,0,1.638,0.228,2.211,0.684s0.94,1.103,1.102,1.941l-1.367,0.211
				c-0.13-0.558-0.36-0.977-0.691-1.258s-0.73-0.422-1.199-0.422c-0.708,0-1.284,0.254-1.727,0.762s-0.664,1.312-0.664,2.41
				c0,1.114,0.214,1.925,0.641,2.43s0.984,0.758,1.672,0.758c0.552,0,1.013-0.169,1.383-0.508S708.763,480.161,708.861,479.458z"/>
			<path fill="#990000" d="M711.447,482.497v-11.453h1.406v4.109c0.656-0.761,1.484-1.141,2.484-1.141
				c0.614,0,1.148,0.121,1.602,0.363s0.777,0.577,0.973,1.004s0.293,1.047,0.293,1.859v5.258h-1.406v-5.258
				c0-0.703-0.152-1.215-0.457-1.535s-0.735-0.48-1.293-0.48c-0.417,0-0.809,0.108-1.176,0.324s-0.629,0.509-0.785,0.879
				s-0.234,0.88-0.234,1.531v4.539H711.447z"/>
			<path fill="#990000" d="M726.025,479.825l1.453,0.18c-0.229,0.849-0.653,1.508-1.273,1.977s-1.411,0.703-2.375,0.703
				c-1.214,0-2.176-0.374-2.887-1.121s-1.066-1.796-1.066-3.145c0-1.396,0.359-2.479,1.078-3.25s1.651-1.156,2.797-1.156
				c1.109,0,2.016,0.378,2.719,1.133s1.055,1.817,1.055,3.188c0,0.083-0.003,0.208-0.008,0.375h-6.188
				c0.052,0.911,0.31,1.609,0.773,2.094s1.042,0.727,1.734,0.727c0.516,0,0.956-0.136,1.32-0.406S725.812,480.419,726.025,479.825z
				 M721.408,477.552h4.633c-0.063-0.698-0.239-1.222-0.531-1.57c-0.448-0.542-1.028-0.813-1.742-0.813
				c-0.646,0-1.188,0.216-1.629,0.648S721.455,476.828,721.408,477.552z"/>
		</g>
	</g>
	<g id="ok" display="none">
		<g display="inline">
			<path fill="#990000" d="M661.905,474.049c0.245,0,0.384,0.062,0.416,0.184c0.031,0.123,0.048,0.303,0.048,0.537
				c0,0.106,0,0.207,0,0.304c0,0.096-0.027,0.176-0.08,0.239c-0.064,0.086-0.155,0.131-0.272,0.137s-0.234,0.023-0.352,0.056
				c-0.149,0.032-0.291,0.063-0.424,0.097c-0.134,0.031-0.259,0.074-0.376,0.127c-0.31,0.139-0.561,0.328-0.752,0.568
				c-0.192,0.24-0.357,0.516-0.496,0.824c-0.043,0.117-0.075,0.237-0.096,0.359c-0.021,0.123-0.049,0.248-0.08,0.377
				c-0.011,0.053-0.014,0.106-0.009,0.16c0.006,0.053,0.003,0.106-0.008,0.16c-0.032,0.127-0.045,0.273-0.04,0.439
				c0.006,0.166,0.008,0.322,0.008,0.472v1.968c0,0.118,0,0.24,0,0.369c0,0.127-0.005,0.25-0.016,0.367s-0.014,0.219-0.008,0.305
				c0.005,0.085-0.019,0.159-0.072,0.224c-0.054,0.075-0.136,0.117-0.248,0.128c-0.111,0.011-0.231,0.016-0.359,0.016h-0.288
				c-0.054-0.021-0.104-0.039-0.152-0.056s-0.083-0.04-0.104-0.072c-0.053-0.074-0.082-0.168-0.088-0.28
				c-0.005-0.111-0.008-0.227-0.008-0.344v-1.232v-4.432v-1.104c0-0.117,0.003-0.227,0.008-0.328
				c0.006-0.102,0.035-0.189,0.088-0.264c0.032-0.043,0.089-0.074,0.169-0.097c0.079-0.021,0.168-0.034,0.264-0.04
				c0.096-0.005,0.191-0.002,0.288,0.008c0.096,0.012,0.17,0.027,0.224,0.049c0.085,0.031,0.142,0.094,0.168,0.184
				c0.026,0.091,0.04,0.188,0.04,0.288c0,0.102,0,0.208,0,0.319c0,0.113,0.021,0.211,0.064,0.297
				c0.01,0.021,0.021,0.037,0.031,0.048s0.027,0.026,0.049,0.048c0.117,0,0.213-0.051,0.288-0.152
				c0.074-0.102,0.138-0.184,0.191-0.248l0.096-0.096c0.097-0.117,0.229-0.24,0.4-0.367c0.171-0.129,0.33-0.225,0.48-0.289
				c0.096-0.053,0.197-0.093,0.304-0.119c0.106-0.027,0.219-0.057,0.336-0.088c0.063-0.012,0.128-0.02,0.192-0.024
				C661.793,474.068,661.852,474.061,661.905,474.049z"/>
			<path fill="#990000" d="M670.545,478.033c0.021,0.106,0.024,0.227,0.008,0.359c-0.016,0.134-0.051,0.227-0.104,0.28
				c-0.054,0.043-0.131,0.072-0.232,0.089c-0.102,0.016-0.216,0.023-0.344,0.023s-0.256-0.002-0.384-0.008s-0.24-0.008-0.336-0.008
				h-4.096c-0.086,0-0.171,0.002-0.257,0.008c-0.085,0.006-0.154,0.023-0.208,0.056c-0.042,0.021-0.085,0.063-0.128,0.128
				c-0.021,0.032-0.042,0.078-0.063,0.137s-0.021,0.114,0,0.168c0.011,0.053,0.016,0.102,0.016,0.144s0.006,0.085,0.017,0.128
				c0.021,0.086,0.042,0.174,0.063,0.264c0.021,0.091,0.054,0.18,0.096,0.264c0.246,0.576,0.65,0.987,1.217,1.232
				c0.063,0.032,0.133,0.059,0.208,0.08c0.074,0.021,0.148,0.043,0.224,0.064c0.032,0.01,0.085,0.016,0.16,0.016
				c0.149,0.043,0.347,0.064,0.592,0.064s0.442-0.021,0.592-0.064s0.285-0.088,0.408-0.136c0.122-0.048,0.237-0.109,0.344-0.185
				c0.117-0.074,0.219-0.162,0.305-0.264c0.085-0.102,0.159-0.211,0.224-0.328c0.063-0.106,0.12-0.219,0.168-0.336
				s0.131-0.203,0.248-0.256c0.042-0.021,0.112-0.037,0.208-0.048s0.191-0.014,0.288-0.009c0.096,0.006,0.187,0.014,0.271,0.024
				c0.086,0.011,0.145,0.032,0.177,0.063c0.106,0.076,0.133,0.198,0.079,0.369c-0.085,0.287-0.197,0.543-0.336,0.768
				c-0.213,0.342-0.456,0.621-0.728,0.84c-0.272,0.219-0.616,0.397-1.032,0.536c-0.106,0.042-0.213,0.071-0.32,0.088
				c-0.106,0.017-0.219,0.034-0.336,0.056c-0.053,0.011-0.104,0.017-0.151,0.017s-0.099,0.005-0.152,0.016h-0.16
				c-0.054,0.011-0.114,0.017-0.184,0.017s-0.126-0.006-0.168-0.017h-0.145c-0.053-0.011-0.102-0.016-0.144-0.016
				c-0.043,0-0.086-0.006-0.128-0.017c-0.054-0.01-0.112-0.018-0.176-0.023c-0.064-0.006-0.123-0.014-0.177-0.023
				c-0.096-0.021-0.191-0.047-0.288-0.072c-0.096-0.027-0.187-0.057-0.271-0.088c-0.043-0.021-0.08-0.035-0.112-0.041
				c-0.031-0.005-0.069-0.018-0.111-0.039c-0.16-0.074-0.331-0.166-0.513-0.272c-0.31-0.202-0.573-0.45-0.792-0.744
				c-0.219-0.293-0.402-0.621-0.552-0.983c-0.054-0.117-0.094-0.24-0.12-0.369c-0.026-0.127-0.062-0.256-0.104-0.383
				c-0.011-0.043-0.017-0.08-0.017-0.112s-0.005-0.075-0.016-0.128c-0.021-0.086-0.038-0.176-0.048-0.272
				c-0.011-0.096-0.027-0.192-0.048-0.288v-0.224c-0.011-0.042-0.02-0.104-0.024-0.185c-0.006-0.08-0.003-0.146,0.008-0.199v-0.176
				c0.021-0.054,0.029-0.109,0.024-0.168c-0.006-0.059-0.003-0.115,0.008-0.168c0.042-0.171,0.077-0.342,0.104-0.513
				c0.027-0.171,0.072-0.331,0.137-0.479c0.053-0.117,0.104-0.238,0.151-0.36c0.049-0.122,0.104-0.243,0.168-0.36
				c0.235-0.373,0.502-0.695,0.801-0.968c0.298-0.272,0.666-0.499,1.104-0.68c0.128-0.054,0.259-0.093,0.393-0.12
				c0.133-0.026,0.274-0.057,0.424-0.088c0.053-0.011,0.101-0.019,0.144-0.024c0.043-0.005,0.091-0.008,0.145-0.008
				c0.021-0.011,0.048-0.011,0.08,0c0.031,0.011,0.058,0.005,0.079-0.017c0.448-0.01,0.838,0.035,1.168,0.137
				c0.331,0.102,0.63,0.237,0.896,0.408c0.054,0.021,0.096,0.051,0.128,0.088s0.069,0.066,0.112,0.088
				c0.085,0.064,0.173,0.139,0.264,0.225c0.091,0.085,0.168,0.17,0.232,0.256c0.17,0.224,0.314,0.438,0.432,0.64
				c0.074,0.117,0.133,0.245,0.176,0.384s0.091,0.277,0.145,0.416c0.053,0.139,0.093,0.283,0.12,0.432
				c0.026,0.15,0.061,0.299,0.104,0.448c0.011,0.075,0.019,0.149,0.024,0.224C670.526,477.884,670.534,477.959,670.545,478.033z
				 M668.993,477.489c0.032-0.042,0.059-0.099,0.08-0.168s0.021-0.142,0-0.216c-0.064-0.234-0.155-0.453-0.272-0.656
				c-0.149-0.246-0.314-0.453-0.496-0.624c-0.181-0.171-0.416-0.314-0.703-0.433c-0.075-0.021-0.15-0.039-0.225-0.056
				c-0.074-0.016-0.154-0.034-0.24-0.056c-0.085-0.021-0.176-0.032-0.271-0.032s-0.187,0-0.272,0
				c-0.031,0.021-0.069,0.03-0.111,0.024c-0.043-0.006-0.08-0.003-0.112,0.008c-0.086,0.021-0.168,0.04-0.248,0.056
				c-0.08,0.017-0.157,0.034-0.232,0.056c-0.309,0.129-0.557,0.289-0.743,0.48c-0.188,0.191-0.355,0.432-0.504,0.721
				c-0.032,0.053-0.064,0.119-0.097,0.199s-0.059,0.168-0.08,0.264s-0.026,0.188-0.016,0.272s0.048,0.149,0.112,0.192
				c0.085,0.063,0.231,0.094,0.439,0.088s0.387-0.008,0.536-0.008h2.432c0.16,0,0.353,0.002,0.576,0.008
				C668.77,477.615,668.918,477.574,668.993,477.489z"/>
			<path fill="#990000" d="M675.281,474.049c0.789-0.01,1.447,0.104,1.976,0.344s0.946,0.601,1.256,1.08
				c0.139,0.214,0.256,0.475,0.353,0.784c0.021,0.054,0.037,0.123,0.048,0.208c0.011,0.086,0.005,0.16-0.017,0.225
				c-0.031,0.053-0.085,0.102-0.159,0.144c-0.032,0.021-0.064,0.03-0.097,0.024c-0.031-0.006-0.069-0.003-0.111,0.008
				c-0.043,0.011-0.086,0.014-0.128,0.008c-0.043-0.006-0.086-0.008-0.129-0.008c-0.117,0-0.229-0.002-0.336-0.008
				s-0.197-0.035-0.271-0.088c-0.086-0.064-0.145-0.154-0.176-0.272c-0.032-0.117-0.075-0.218-0.128-0.304
				c-0.16-0.277-0.368-0.496-0.624-0.656c-0.086-0.053-0.177-0.099-0.272-0.137c-0.096-0.037-0.197-0.071-0.304-0.104
				c-0.149-0.043-0.347-0.066-0.592-0.072c-0.246-0.005-0.448,0.02-0.608,0.072c-0.075,0.021-0.144,0.037-0.208,0.049
				c-0.064,0.01-0.134,0.025-0.208,0.047c-0.277,0.118-0.522,0.277-0.736,0.48c-0.213,0.203-0.378,0.443-0.496,0.721
				c-0.042,0.096-0.079,0.193-0.111,0.295s-0.064,0.211-0.097,0.328l-0.096,0.432c-0.011,0.055-0.014,0.113-0.008,0.177
				c0.005,0.063-0.003,0.122-0.024,0.176v0.128c-0.011,0.043-0.019,0.112-0.023,0.208c-0.006,0.097,0.002,0.165,0.023,0.208
				c0.011,0.054,0.011,0.107,0,0.16c-0.011,0.054-0.011,0.107,0,0.16c0.011,0.043,0.017,0.117,0.017,0.224
				c0.021,0.086,0.04,0.177,0.056,0.272s0.034,0.187,0.056,0.271c0.118,0.342,0.254,0.638,0.408,0.889
				c0.154,0.25,0.371,0.467,0.648,0.647c0.096,0.054,0.194,0.102,0.296,0.144c0.102,0.043,0.21,0.086,0.328,0.129
				c0.053,0.01,0.096,0.016,0.128,0.016s0.074,0.006,0.128,0.016c0.032,0.012,0.085,0.017,0.16,0.017h0.176
				c0,0.011,0.021,0.016,0.064,0.016c0.021-0.011,0.048-0.013,0.079-0.008c0.032,0.005,0.064,0.003,0.097-0.008
				c0.074-0.021,0.146-0.029,0.216-0.024c0.069,0.006,0.142-0.002,0.216-0.023c0.277-0.086,0.518-0.195,0.72-0.328
				c0.203-0.133,0.374-0.307,0.513-0.52c0.053-0.086,0.101-0.177,0.144-0.272c0.043-0.097,0.085-0.192,0.128-0.288
				c0.021-0.086,0.046-0.168,0.072-0.248s0.077-0.146,0.152-0.2c0.031-0.032,0.096-0.056,0.191-0.071
				c0.096-0.017,0.2-0.027,0.313-0.033c0.111-0.005,0.218-0.002,0.319,0.009s0.174,0.032,0.217,0.063
				c0.063,0.043,0.104,0.107,0.119,0.192c0.017,0.085,0.014,0.176-0.008,0.272c-0.054,0.16-0.104,0.312-0.151,0.455
				c-0.049,0.145-0.11,0.286-0.185,0.424c-0.16,0.32-0.359,0.604-0.6,0.849s-0.531,0.442-0.872,0.592
				c-0.086,0.043-0.176,0.077-0.272,0.104c-0.096,0.026-0.197,0.056-0.304,0.088c-0.117,0.043-0.234,0.066-0.352,0.072
				c-0.118,0.005-0.235,0.018-0.353,0.039c-0.043,0.021-0.085,0.027-0.128,0.017s-0.086-0.011-0.128,0h-0.144
				c-0.086,0-0.169,0.003-0.248,0.008c-0.08,0.005-0.152-0.003-0.217-0.024h-0.08l-0.384-0.047c-0.139-0.043-0.271-0.08-0.399-0.113
				c-0.128-0.031-0.251-0.074-0.368-0.127c-0.384-0.171-0.702-0.373-0.952-0.608c-0.251-0.234-0.482-0.522-0.696-0.864
				c-0.054-0.085-0.102-0.182-0.144-0.287c-0.043-0.107-0.086-0.214-0.128-0.32c-0.054-0.117-0.091-0.24-0.112-0.368
				s-0.048-0.257-0.08-0.384c-0.011-0.043-0.016-0.086-0.016-0.129c0-0.042-0.006-0.085-0.017-0.127
				c-0.021-0.064-0.029-0.134-0.023-0.209c0.005-0.074-0.003-0.144-0.024-0.207v-0.16c-0.011-0.054-0.016-0.129-0.016-0.225
				s0.005-0.17,0.016-0.224s0.014-0.102,0.008-0.144c-0.005-0.043-0.002-0.086,0.009-0.129c0.021-0.074,0.029-0.148,0.023-0.224
				c-0.005-0.075,0.003-0.144,0.024-0.208c0.042-0.182,0.08-0.362,0.111-0.544c0.032-0.181,0.08-0.353,0.145-0.513
				c0.224-0.554,0.496-1.002,0.815-1.344c0.32-0.341,0.758-0.623,1.313-0.848c0.117-0.053,0.245-0.09,0.384-0.111
				s0.282-0.049,0.433-0.08c0.074-0.012,0.148-0.02,0.224-0.024C675.115,474.068,675.195,474.061,675.281,474.049z"/>
			<path fill="#990000" d="M681.024,471.105c0.149,0,0.307,0.002,0.473,0.008c0.165,0.006,0.279,0.051,0.344,0.136
				c0.053,0.075,0.08,0.185,0.08,0.328s0,0.286,0,0.424v1.696v0.48c0,0.042-0.003,0.085-0.008,0.127
				c-0.006,0.043-0.003,0.086,0.008,0.129c0.011,0.031,0.013,0.068,0.008,0.111c-0.006,0.043-0.003,0.08,0.008,0.112
				c0.021,0.085,0.035,0.165,0.04,0.239c0.006,0.075,0.062,0.113,0.168,0.113c0.021-0.021,0.046-0.035,0.072-0.041
				c0.026-0.005,0.051-0.018,0.072-0.039c0.063-0.043,0.122-0.088,0.176-0.137c0.053-0.048,0.112-0.099,0.176-0.152
				c0.117-0.085,0.248-0.162,0.393-0.231c0.144-0.069,0.29-0.13,0.439-0.185c0.085-0.021,0.176-0.039,0.272-0.056
				c0.096-0.017,0.187-0.034,0.271-0.056c0.043-0.021,0.085-0.029,0.128-0.024c0.043,0.006,0.091,0.003,0.145-0.008
				c0.053-0.021,0.141-0.032,0.264-0.032c0.122,0,0.211,0.012,0.264,0.032c0.054,0,0.104,0,0.152,0s0.099,0.005,0.152,0.017
				c0.085,0.021,0.17,0.037,0.256,0.047c0.085,0.012,0.17,0.027,0.256,0.049c0.053,0.021,0.096,0.035,0.128,0.039
				c0.032,0.006,0.074,0.02,0.128,0.041c0.117,0.053,0.229,0.109,0.336,0.168s0.213,0.125,0.32,0.199
				c0.106,0.097,0.208,0.209,0.304,0.336c0.064,0.097,0.123,0.192,0.176,0.289c0.054,0.096,0.106,0.202,0.16,0.319
				c0.032,0.075,0.057,0.149,0.072,0.224c0.016,0.075,0.034,0.155,0.056,0.24c0.021,0.054,0.032,0.107,0.032,0.16
				c0,0.054,0.005,0.112,0.016,0.176c0.021,0.054,0.029,0.107,0.024,0.16c-0.006,0.054,0.003,0.107,0.024,0.16v0.16
				c0.01,0.053,0.013,0.111,0.008,0.176c-0.006,0.064-0.008,0.123-0.008,0.176v0.688v3.327c0,0.086,0.002,0.189,0.008,0.313
				c0.005,0.123,0.005,0.24,0,0.352c-0.006,0.113-0.019,0.217-0.04,0.313s-0.054,0.16-0.097,0.191
				c-0.074,0.064-0.213,0.097-0.416,0.097c-0.139,0-0.274,0-0.407,0c-0.134,0-0.232-0.042-0.296-0.128
				c-0.054-0.074-0.08-0.162-0.08-0.264s0-0.211,0-0.328v-1.152v-2.561c0-0.287,0.002-0.594,0.008-0.92
				c0.005-0.324-0.029-0.604-0.104-0.84c-0.128-0.362-0.341-0.629-0.64-0.8c-0.086-0.054-0.176-0.099-0.272-0.136
				c-0.096-0.037-0.202-0.066-0.319-0.088c-0.043-0.011-0.107-0.016-0.192-0.016c-0.043-0.012-0.094-0.021-0.151-0.033
				c-0.06-0.01-0.115-0.004-0.168,0.017c-0.043,0.011-0.086,0.014-0.129,0.008c-0.042-0.005-0.09-0.003-0.144,0.009
				c-0.096,0.021-0.194,0.039-0.296,0.056c-0.102,0.016-0.195,0.046-0.28,0.088c-0.362,0.149-0.65,0.353-0.864,0.608
				c-0.213,0.256-0.378,0.581-0.495,0.976c-0.021,0.075-0.038,0.155-0.049,0.239c-0.011,0.086-0.026,0.172-0.048,0.257
				c-0.011,0.032-0.014,0.066-0.008,0.104c0.005,0.037,0.003,0.071-0.008,0.104c-0.011,0.053-0.011,0.106,0,0.16
				c0.011,0.053,0.011,0.106,0,0.16v3.215c0,0.086,0.002,0.185,0.008,0.297c0.005,0.111,0.005,0.221,0,0.328
				c-0.006,0.106-0.014,0.207-0.024,0.304c-0.011,0.096-0.031,0.165-0.063,0.208c-0.043,0.053-0.094,0.082-0.152,0.088
				s-0.125,0.019-0.2,0.04h-0.224c-0.117,0-0.229-0.003-0.336-0.008s-0.187-0.04-0.24-0.104c-0.054-0.085-0.082-0.189-0.088-0.312
				c-0.005-0.122-0.008-0.253-0.008-0.392v-1.473v-6.672v-1.568c0-0.117-0.003-0.242-0.008-0.375
				c-0.006-0.134,0.019-0.238,0.071-0.313c0.043-0.074,0.123-0.129,0.24-0.16c0.021-0.011,0.043-0.014,0.064-0.008
				S681.003,471.115,681.024,471.105z"/>
			<path fill="#990000" d="M696.624,478.033c0.021,0.106,0.024,0.227,0.008,0.359c-0.016,0.134-0.051,0.227-0.104,0.28
				c-0.054,0.043-0.131,0.072-0.232,0.089c-0.102,0.016-0.216,0.023-0.344,0.023s-0.256-0.002-0.384-0.008s-0.24-0.008-0.336-0.008
				h-4.096c-0.086,0-0.171,0.002-0.257,0.008c-0.085,0.006-0.154,0.023-0.208,0.056c-0.042,0.021-0.085,0.063-0.128,0.128
				c-0.021,0.032-0.042,0.078-0.063,0.137s-0.021,0.114,0,0.168c0.011,0.053,0.016,0.102,0.016,0.144s0.006,0.085,0.017,0.128
				c0.021,0.086,0.042,0.174,0.063,0.264c0.021,0.091,0.054,0.18,0.096,0.264c0.246,0.576,0.65,0.987,1.217,1.232
				c0.063,0.032,0.133,0.059,0.208,0.08c0.074,0.021,0.148,0.043,0.224,0.064c0.032,0.01,0.085,0.016,0.16,0.016
				c0.149,0.043,0.347,0.064,0.592,0.064s0.442-0.021,0.592-0.064s0.285-0.088,0.408-0.136c0.122-0.048,0.237-0.109,0.344-0.185
				c0.117-0.074,0.219-0.162,0.305-0.264c0.085-0.102,0.159-0.211,0.224-0.328c0.063-0.106,0.12-0.219,0.168-0.336
				s0.131-0.203,0.248-0.256c0.042-0.021,0.112-0.037,0.208-0.048s0.191-0.014,0.288-0.009c0.096,0.006,0.187,0.014,0.271,0.024
				c0.086,0.011,0.145,0.032,0.177,0.063c0.106,0.076,0.133,0.198,0.079,0.369c-0.085,0.287-0.197,0.543-0.336,0.768
				c-0.213,0.342-0.456,0.621-0.728,0.84c-0.272,0.219-0.616,0.397-1.032,0.536c-0.106,0.042-0.213,0.071-0.32,0.088
				c-0.106,0.017-0.219,0.034-0.336,0.056c-0.053,0.011-0.104,0.017-0.151,0.017s-0.099,0.005-0.152,0.016h-0.16
				c-0.054,0.011-0.114,0.017-0.184,0.017s-0.126-0.006-0.168-0.017h-0.145c-0.053-0.011-0.102-0.016-0.144-0.016
				c-0.043,0-0.086-0.006-0.128-0.017c-0.054-0.01-0.112-0.018-0.176-0.023c-0.064-0.006-0.123-0.014-0.177-0.023
				c-0.096-0.021-0.191-0.047-0.288-0.072c-0.096-0.027-0.187-0.057-0.271-0.088c-0.043-0.021-0.08-0.035-0.112-0.041
				c-0.031-0.005-0.069-0.018-0.111-0.039c-0.16-0.074-0.331-0.166-0.513-0.272c-0.31-0.202-0.573-0.45-0.792-0.744
				c-0.219-0.293-0.402-0.621-0.552-0.983c-0.054-0.117-0.094-0.24-0.12-0.369c-0.026-0.127-0.062-0.256-0.104-0.383
				c-0.011-0.043-0.017-0.08-0.017-0.112s-0.005-0.075-0.016-0.128c-0.021-0.086-0.038-0.176-0.048-0.272
				c-0.011-0.096-0.027-0.192-0.048-0.288v-0.224c-0.011-0.042-0.02-0.104-0.024-0.185c-0.006-0.08-0.003-0.146,0.008-0.199v-0.176
				c0.021-0.054,0.029-0.109,0.024-0.168c-0.006-0.059-0.003-0.115,0.008-0.168c0.042-0.171,0.077-0.342,0.104-0.513
				c0.027-0.171,0.072-0.331,0.137-0.479c0.053-0.117,0.104-0.238,0.151-0.36c0.049-0.122,0.104-0.243,0.168-0.36
				c0.235-0.373,0.502-0.695,0.801-0.968c0.298-0.272,0.666-0.499,1.104-0.68c0.128-0.054,0.259-0.093,0.393-0.12
				c0.133-0.026,0.274-0.057,0.424-0.088c0.053-0.011,0.101-0.019,0.144-0.024c0.043-0.005,0.091-0.008,0.145-0.008
				c0.021-0.011,0.048-0.011,0.08,0c0.031,0.011,0.058,0.005,0.079-0.017c0.448-0.01,0.838,0.035,1.168,0.137
				c0.331,0.102,0.63,0.237,0.896,0.408c0.054,0.021,0.096,0.051,0.128,0.088s0.069,0.066,0.112,0.088
				c0.085,0.064,0.173,0.139,0.264,0.225c0.091,0.085,0.168,0.17,0.232,0.256c0.17,0.224,0.314,0.438,0.432,0.64
				c0.074,0.117,0.133,0.245,0.176,0.384s0.091,0.277,0.145,0.416c0.053,0.139,0.093,0.283,0.12,0.432
				c0.026,0.15,0.061,0.299,0.104,0.448c0.011,0.075,0.019,0.149,0.024,0.224C696.605,477.884,696.613,477.959,696.624,478.033z
				 M695.072,477.489c0.032-0.042,0.059-0.099,0.08-0.168s0.021-0.142,0-0.216c-0.064-0.234-0.155-0.453-0.272-0.656
				c-0.149-0.246-0.314-0.453-0.496-0.624c-0.181-0.171-0.416-0.314-0.703-0.433c-0.075-0.021-0.15-0.039-0.225-0.056
				c-0.074-0.016-0.154-0.034-0.24-0.056c-0.085-0.021-0.176-0.032-0.271-0.032s-0.187,0-0.272,0
				c-0.031,0.021-0.069,0.03-0.111,0.024c-0.043-0.006-0.08-0.003-0.112,0.008c-0.086,0.021-0.168,0.04-0.248,0.056
				c-0.08,0.017-0.157,0.034-0.232,0.056c-0.309,0.129-0.557,0.289-0.743,0.48c-0.188,0.191-0.355,0.432-0.504,0.721
				c-0.032,0.053-0.064,0.119-0.097,0.199s-0.059,0.168-0.08,0.264s-0.026,0.188-0.016,0.272s0.048,0.149,0.112,0.192
				c0.085,0.063,0.231,0.094,0.439,0.088s0.387-0.008,0.536-0.008h2.432c0.16,0,0.353,0.002,0.576,0.008
				C694.849,477.615,694.997,477.574,695.072,477.489z"/>
			<path fill="#990000" d="M701.904,474.049c0.245,0,0.384,0.062,0.416,0.184c0.031,0.123,0.048,0.303,0.048,0.537
				c0,0.106,0,0.207,0,0.304c0,0.096-0.027,0.176-0.08,0.239c-0.064,0.086-0.155,0.131-0.272,0.137s-0.234,0.023-0.352,0.056
				c-0.149,0.032-0.291,0.063-0.424,0.097c-0.134,0.031-0.259,0.074-0.376,0.127c-0.31,0.139-0.561,0.328-0.752,0.568
				c-0.192,0.24-0.357,0.516-0.496,0.824c-0.043,0.117-0.075,0.237-0.096,0.359c-0.021,0.123-0.049,0.248-0.08,0.377
				c-0.011,0.053-0.014,0.106-0.009,0.16c0.006,0.053,0.003,0.106-0.008,0.16c-0.032,0.127-0.045,0.273-0.04,0.439
				c0.006,0.166,0.008,0.322,0.008,0.472v1.968c0,0.118,0,0.24,0,0.369c0,0.127-0.005,0.25-0.016,0.367s-0.014,0.219-0.008,0.305
				c0.005,0.085-0.019,0.159-0.072,0.224c-0.054,0.075-0.136,0.117-0.248,0.128c-0.111,0.011-0.231,0.016-0.359,0.016H698.4
				c-0.054-0.021-0.104-0.039-0.152-0.056s-0.083-0.04-0.104-0.072c-0.053-0.074-0.082-0.168-0.088-0.28
				c-0.005-0.111-0.008-0.227-0.008-0.344v-1.232v-4.432v-1.104c0-0.117,0.003-0.227,0.008-0.328
				c0.006-0.102,0.035-0.189,0.088-0.264c0.032-0.043,0.089-0.074,0.169-0.097c0.079-0.021,0.168-0.034,0.264-0.04
				c0.096-0.005,0.191-0.002,0.288,0.008c0.096,0.012,0.17,0.027,0.224,0.049c0.085,0.031,0.142,0.094,0.168,0.184
				c0.026,0.091,0.04,0.188,0.04,0.288c0,0.102,0,0.208,0,0.319c0,0.113,0.021,0.211,0.064,0.297
				c0.01,0.021,0.021,0.037,0.031,0.048s0.027,0.026,0.049,0.048c0.117,0,0.213-0.051,0.288-0.152
				c0.074-0.102,0.138-0.184,0.191-0.248l0.096-0.096c0.097-0.117,0.229-0.24,0.4-0.367c0.171-0.129,0.33-0.225,0.48-0.289
				c0.096-0.053,0.197-0.093,0.304-0.119c0.106-0.027,0.219-0.057,0.336-0.088c0.063-0.012,0.128-0.02,0.192-0.024
				C701.792,474.068,701.851,474.061,701.904,474.049z"/>
			<path fill="#990000" d="M706.688,474.049c0.789-0.01,1.447,0.104,1.976,0.344s0.946,0.601,1.256,1.08
				c0.139,0.214,0.256,0.475,0.353,0.784c0.021,0.054,0.037,0.123,0.048,0.208c0.011,0.086,0.005,0.16-0.017,0.225
				c-0.031,0.053-0.085,0.102-0.159,0.144c-0.032,0.021-0.064,0.03-0.097,0.024c-0.031-0.006-0.069-0.003-0.111,0.008
				c-0.043,0.011-0.086,0.014-0.128,0.008c-0.043-0.006-0.086-0.008-0.129-0.008c-0.117,0-0.229-0.002-0.336-0.008
				s-0.197-0.035-0.271-0.088c-0.086-0.064-0.145-0.154-0.176-0.272c-0.032-0.117-0.075-0.218-0.128-0.304
				c-0.16-0.277-0.368-0.496-0.624-0.656c-0.086-0.053-0.177-0.099-0.272-0.137c-0.096-0.037-0.197-0.071-0.304-0.104
				c-0.149-0.043-0.347-0.066-0.592-0.072c-0.246-0.005-0.448,0.02-0.608,0.072c-0.075,0.021-0.144,0.037-0.208,0.049
				c-0.064,0.01-0.134,0.025-0.208,0.047c-0.277,0.118-0.522,0.277-0.736,0.48c-0.213,0.203-0.378,0.443-0.496,0.721
				c-0.042,0.096-0.079,0.193-0.111,0.295s-0.064,0.211-0.097,0.328l-0.096,0.432c-0.011,0.055-0.014,0.113-0.008,0.177
				c0.005,0.063-0.003,0.122-0.024,0.176v0.128c-0.011,0.043-0.019,0.112-0.023,0.208c-0.006,0.097,0.002,0.165,0.023,0.208
				c0.011,0.054,0.011,0.107,0,0.16c-0.011,0.054-0.011,0.107,0,0.16c0.011,0.043,0.017,0.117,0.017,0.224
				c0.021,0.086,0.04,0.177,0.056,0.272s0.034,0.187,0.056,0.271c0.118,0.342,0.254,0.638,0.408,0.889
				c0.154,0.25,0.371,0.467,0.648,0.647c0.096,0.054,0.194,0.102,0.296,0.144c0.102,0.043,0.21,0.086,0.328,0.129
				c0.053,0.01,0.096,0.016,0.128,0.016s0.074,0.006,0.128,0.016c0.032,0.012,0.085,0.017,0.16,0.017h0.176
				c0,0.011,0.021,0.016,0.064,0.016c0.021-0.011,0.048-0.013,0.079-0.008c0.032,0.005,0.064,0.003,0.097-0.008
				c0.074-0.021,0.146-0.029,0.216-0.024c0.069,0.006,0.142-0.002,0.216-0.023c0.277-0.086,0.518-0.195,0.72-0.328
				c0.203-0.133,0.374-0.307,0.513-0.52c0.053-0.086,0.101-0.177,0.144-0.272c0.043-0.097,0.085-0.192,0.128-0.288
				c0.021-0.086,0.046-0.168,0.072-0.248s0.077-0.146,0.152-0.2c0.031-0.032,0.096-0.056,0.191-0.071
				c0.096-0.017,0.2-0.027,0.313-0.033c0.111-0.005,0.218-0.002,0.319,0.009s0.174,0.032,0.217,0.063
				c0.063,0.043,0.104,0.107,0.119,0.192c0.017,0.085,0.014,0.176-0.008,0.272c-0.054,0.16-0.104,0.312-0.151,0.455
				c-0.049,0.145-0.11,0.286-0.185,0.424c-0.16,0.32-0.359,0.604-0.6,0.849s-0.531,0.442-0.872,0.592
				c-0.086,0.043-0.176,0.077-0.272,0.104c-0.096,0.026-0.197,0.056-0.304,0.088c-0.117,0.043-0.234,0.066-0.352,0.072
				c-0.118,0.005-0.235,0.018-0.353,0.039c-0.043,0.021-0.085,0.027-0.128,0.017s-0.086-0.011-0.128,0h-0.144
				c-0.086,0-0.169,0.003-0.248,0.008c-0.08,0.005-0.152-0.003-0.217-0.024h-0.08l-0.384-0.047c-0.139-0.043-0.271-0.08-0.399-0.113
				c-0.128-0.031-0.251-0.074-0.368-0.127c-0.384-0.171-0.702-0.373-0.952-0.608c-0.251-0.234-0.482-0.522-0.696-0.864
				c-0.054-0.085-0.102-0.182-0.144-0.287c-0.043-0.107-0.086-0.214-0.128-0.32c-0.054-0.117-0.091-0.24-0.112-0.368
				s-0.048-0.257-0.08-0.384c-0.011-0.043-0.016-0.086-0.016-0.129c0-0.042-0.006-0.085-0.017-0.127
				c-0.021-0.064-0.029-0.134-0.023-0.209c0.005-0.074-0.003-0.144-0.024-0.207v-0.16c-0.011-0.054-0.016-0.129-0.016-0.225
				s0.005-0.17,0.016-0.224s0.014-0.102,0.008-0.144c-0.005-0.043-0.002-0.086,0.009-0.129c0.021-0.074,0.029-0.148,0.023-0.224
				c-0.005-0.075,0.003-0.144,0.024-0.208c0.042-0.182,0.08-0.362,0.111-0.544c0.032-0.181,0.08-0.353,0.145-0.513
				c0.224-0.554,0.496-1.002,0.815-1.344c0.32-0.341,0.758-0.623,1.313-0.848c0.117-0.053,0.245-0.09,0.384-0.111
				s0.282-0.049,0.433-0.08c0.074-0.012,0.148-0.02,0.224-0.024C706.522,474.068,706.603,474.061,706.688,474.049z"/>
			<path fill="#990000" d="M712.432,471.105c0.149,0,0.307,0.002,0.473,0.008c0.165,0.006,0.279,0.051,0.344,0.136
				c0.053,0.075,0.08,0.185,0.08,0.328s0,0.286,0,0.424v1.696v0.48c0,0.042-0.003,0.085-0.008,0.127
				c-0.006,0.043-0.003,0.086,0.008,0.129c0.011,0.031,0.013,0.068,0.008,0.111c-0.006,0.043-0.003,0.08,0.008,0.112
				c0.021,0.085,0.035,0.165,0.04,0.239c0.006,0.075,0.062,0.113,0.168,0.113c0.021-0.021,0.046-0.035,0.072-0.041
				c0.026-0.005,0.051-0.018,0.072-0.039c0.063-0.043,0.122-0.088,0.176-0.137c0.053-0.048,0.112-0.099,0.176-0.152
				c0.117-0.085,0.248-0.162,0.393-0.231c0.144-0.069,0.29-0.13,0.439-0.185c0.085-0.021,0.176-0.039,0.272-0.056
				c0.096-0.017,0.187-0.034,0.271-0.056c0.043-0.021,0.085-0.029,0.128-0.024c0.043,0.006,0.091,0.003,0.145-0.008
				c0.053-0.021,0.141-0.032,0.264-0.032c0.122,0,0.211,0.012,0.264,0.032c0.054,0,0.104,0,0.152,0s0.099,0.005,0.152,0.017
				c0.085,0.021,0.17,0.037,0.256,0.047c0.085,0.012,0.17,0.027,0.256,0.049c0.053,0.021,0.096,0.035,0.128,0.039
				c0.032,0.006,0.074,0.02,0.128,0.041c0.117,0.053,0.229,0.109,0.336,0.168s0.213,0.125,0.32,0.199
				c0.106,0.097,0.208,0.209,0.304,0.336c0.064,0.097,0.123,0.192,0.176,0.289c0.054,0.096,0.106,0.202,0.16,0.319
				c0.032,0.075,0.057,0.149,0.072,0.224c0.016,0.075,0.034,0.155,0.056,0.24c0.021,0.054,0.032,0.107,0.032,0.16
				c0,0.054,0.005,0.112,0.016,0.176c0.021,0.054,0.029,0.107,0.024,0.16c-0.006,0.054,0.003,0.107,0.024,0.16v0.16
				c0.01,0.053,0.013,0.111,0.008,0.176c-0.006,0.064-0.008,0.123-0.008,0.176v0.688v3.327c0,0.086,0.002,0.189,0.008,0.313
				c0.005,0.123,0.005,0.24,0,0.352c-0.006,0.113-0.019,0.217-0.04,0.313s-0.054,0.16-0.097,0.191
				c-0.074,0.064-0.213,0.097-0.416,0.097c-0.139,0-0.274,0-0.407,0c-0.134,0-0.232-0.042-0.296-0.128
				c-0.054-0.074-0.08-0.162-0.08-0.264s0-0.211,0-0.328v-1.152v-2.561c0-0.287,0.002-0.594,0.008-0.92
				c0.005-0.324-0.029-0.604-0.104-0.84c-0.128-0.362-0.341-0.629-0.64-0.8c-0.086-0.054-0.176-0.099-0.272-0.136
				c-0.096-0.037-0.202-0.066-0.319-0.088c-0.043-0.011-0.107-0.016-0.192-0.016c-0.043-0.012-0.094-0.021-0.151-0.033
				c-0.06-0.01-0.115-0.004-0.168,0.017c-0.043,0.011-0.086,0.014-0.129,0.008c-0.042-0.005-0.09-0.003-0.144,0.009
				c-0.096,0.021-0.194,0.039-0.296,0.056c-0.102,0.016-0.195,0.046-0.28,0.088c-0.362,0.149-0.65,0.353-0.864,0.608
				c-0.213,0.256-0.378,0.581-0.495,0.976c-0.021,0.075-0.038,0.155-0.049,0.239c-0.011,0.086-0.026,0.172-0.048,0.257
				c-0.011,0.032-0.014,0.066-0.008,0.104c0.005,0.037,0.003,0.071-0.008,0.104c-0.011,0.053-0.011,0.106,0,0.16
				c0.011,0.053,0.011,0.106,0,0.16v3.215c0,0.086,0.002,0.185,0.008,0.297c0.005,0.111,0.005,0.221,0,0.328
				c-0.006,0.106-0.014,0.207-0.024,0.304c-0.011,0.096-0.031,0.165-0.063,0.208c-0.043,0.053-0.094,0.082-0.152,0.088
				s-0.125,0.019-0.2,0.04h-0.224c-0.117,0-0.229-0.003-0.336-0.008s-0.187-0.04-0.24-0.104c-0.054-0.085-0.082-0.189-0.088-0.312
				c-0.005-0.122-0.008-0.253-0.008-0.392v-1.473v-6.672v-1.568c0-0.117-0.003-0.242-0.008-0.375
				c-0.006-0.134,0.019-0.238,0.071-0.313c0.043-0.074,0.123-0.129,0.24-0.16c0.021-0.011,0.043-0.014,0.064-0.008
				S712.41,471.115,712.432,471.105z"/>
			<path fill="#990000" d="M728.031,478.033c0.021,0.106,0.024,0.227,0.008,0.359c-0.016,0.134-0.051,0.227-0.104,0.28
				c-0.054,0.043-0.131,0.072-0.232,0.089c-0.102,0.016-0.216,0.023-0.344,0.023s-0.256-0.002-0.384-0.008s-0.24-0.008-0.336-0.008
				h-4.096c-0.086,0-0.171,0.002-0.257,0.008c-0.085,0.006-0.154,0.023-0.208,0.056c-0.042,0.021-0.085,0.063-0.128,0.128
				c-0.021,0.032-0.042,0.078-0.063,0.137s-0.021,0.114,0,0.168c0.011,0.053,0.016,0.102,0.016,0.144s0.006,0.085,0.017,0.128
				c0.021,0.086,0.042,0.174,0.063,0.264c0.021,0.091,0.054,0.18,0.096,0.264c0.246,0.576,0.65,0.987,1.217,1.232
				c0.063,0.032,0.133,0.059,0.208,0.08c0.074,0.021,0.148,0.043,0.224,0.064c0.032,0.01,0.085,0.016,0.16,0.016
				c0.149,0.043,0.347,0.064,0.592,0.064s0.442-0.021,0.592-0.064s0.285-0.088,0.408-0.136c0.122-0.048,0.237-0.109,0.344-0.185
				c0.117-0.074,0.219-0.162,0.305-0.264c0.085-0.102,0.159-0.211,0.224-0.328c0.063-0.106,0.12-0.219,0.168-0.336
				s0.131-0.203,0.248-0.256c0.042-0.021,0.112-0.037,0.208-0.048s0.191-0.014,0.288-0.009c0.096,0.006,0.187,0.014,0.271,0.024
				c0.086,0.011,0.145,0.032,0.177,0.063c0.106,0.076,0.133,0.198,0.079,0.369c-0.085,0.287-0.197,0.543-0.336,0.768
				c-0.213,0.342-0.456,0.621-0.728,0.84c-0.272,0.219-0.616,0.397-1.032,0.536c-0.106,0.042-0.213,0.071-0.32,0.088
				c-0.106,0.017-0.219,0.034-0.336,0.056c-0.053,0.011-0.104,0.017-0.151,0.017s-0.099,0.005-0.152,0.016h-0.16
				c-0.054,0.011-0.114,0.017-0.184,0.017s-0.126-0.006-0.168-0.017h-0.145c-0.053-0.011-0.102-0.016-0.144-0.016
				c-0.043,0-0.086-0.006-0.128-0.017c-0.054-0.01-0.112-0.018-0.176-0.023c-0.064-0.006-0.123-0.014-0.177-0.023
				c-0.096-0.021-0.191-0.047-0.288-0.072c-0.096-0.027-0.187-0.057-0.271-0.088c-0.043-0.021-0.08-0.035-0.112-0.041
				c-0.031-0.005-0.069-0.018-0.111-0.039c-0.16-0.074-0.331-0.166-0.513-0.272c-0.31-0.202-0.573-0.45-0.792-0.744
				c-0.219-0.293-0.402-0.621-0.552-0.983c-0.054-0.117-0.094-0.24-0.12-0.369c-0.026-0.127-0.062-0.256-0.104-0.383
				c-0.011-0.043-0.017-0.08-0.017-0.112s-0.005-0.075-0.016-0.128c-0.021-0.086-0.038-0.176-0.048-0.272
				c-0.011-0.096-0.027-0.192-0.048-0.288v-0.224c-0.011-0.042-0.02-0.104-0.024-0.185c-0.006-0.08-0.003-0.146,0.008-0.199v-0.176
				c0.021-0.054,0.029-0.109,0.024-0.168c-0.006-0.059-0.003-0.115,0.008-0.168c0.042-0.171,0.077-0.342,0.104-0.513
				c0.027-0.171,0.072-0.331,0.137-0.479c0.053-0.117,0.104-0.238,0.151-0.36c0.049-0.122,0.104-0.243,0.168-0.36
				c0.235-0.373,0.502-0.695,0.801-0.968c0.298-0.272,0.666-0.499,1.104-0.68c0.128-0.054,0.259-0.093,0.393-0.12
				c0.133-0.026,0.274-0.057,0.424-0.088c0.053-0.011,0.101-0.019,0.144-0.024c0.043-0.005,0.091-0.008,0.145-0.008
				c0.021-0.011,0.048-0.011,0.08,0c0.031,0.011,0.058,0.005,0.079-0.017c0.448-0.01,0.838,0.035,1.168,0.137
				c0.331,0.102,0.63,0.237,0.896,0.408c0.054,0.021,0.096,0.051,0.128,0.088s0.069,0.066,0.112,0.088
				c0.085,0.064,0.173,0.139,0.264,0.225c0.091,0.085,0.168,0.17,0.232,0.256c0.17,0.224,0.314,0.438,0.432,0.64
				c0.074,0.117,0.133,0.245,0.176,0.384s0.091,0.277,0.145,0.416c0.053,0.139,0.093,0.283,0.12,0.432
				c0.026,0.15,0.061,0.299,0.104,0.448c0.011,0.075,0.019,0.149,0.024,0.224C728.013,477.884,728.021,477.959,728.031,478.033z
				 M726.479,477.489c0.032-0.042,0.059-0.099,0.08-0.168s0.021-0.142,0-0.216c-0.064-0.234-0.155-0.453-0.272-0.656
				c-0.149-0.246-0.314-0.453-0.496-0.624c-0.181-0.171-0.416-0.314-0.703-0.433c-0.075-0.021-0.15-0.039-0.225-0.056
				c-0.074-0.016-0.154-0.034-0.24-0.056c-0.085-0.021-0.176-0.032-0.271-0.032s-0.187,0-0.272,0
				c-0.031,0.021-0.069,0.03-0.111,0.024c-0.043-0.006-0.08-0.003-0.112,0.008c-0.086,0.021-0.168,0.04-0.248,0.056
				c-0.08,0.017-0.157,0.034-0.232,0.056c-0.309,0.129-0.557,0.289-0.743,0.48c-0.188,0.191-0.355,0.432-0.504,0.721
				c-0.032,0.053-0.064,0.119-0.097,0.199s-0.059,0.168-0.08,0.264s-0.026,0.188-0.016,0.272s0.048,0.149,0.112,0.192
				c0.085,0.063,0.231,0.094,0.439,0.088s0.387-0.008,0.536-0.008h2.432c0.16,0,0.353,0.002,0.576,0.008
				C726.256,477.615,726.404,477.574,726.479,477.489z"/>
		</g>
	</g>
	<rect id="ok_point" x="737.18" y="476.536" display="none" fill="#990000" width="5.293" height="5.294"/>
	<g id="ok_2">
		<g>
			<path fill="#990000" d="M697.272,470.587c0.153,0,0.24,0.039,0.26,0.115c0.021,0.077,0.03,0.188,0.03,0.335
				c0,0.066,0,0.13,0,0.19c0,0.06-0.017,0.109-0.05,0.149c-0.04,0.054-0.097,0.082-0.17,0.085c-0.074,0.004-0.147,0.016-0.221,0.035
				c-0.093,0.021-0.182,0.04-0.265,0.061c-0.083,0.02-0.162,0.046-0.235,0.079c-0.193,0.087-0.35,0.205-0.47,0.355
				s-0.224,0.321-0.31,0.515c-0.027,0.074-0.047,0.148-0.061,0.226c-0.014,0.076-0.03,0.154-0.05,0.234
				c-0.007,0.034-0.009,0.067-0.005,0.101c0.003,0.033,0.001,0.066-0.005,0.1c-0.021,0.08-0.028,0.172-0.025,0.275
				c0.004,0.104,0.005,0.201,0.005,0.295v1.229c0,0.074,0,0.15,0,0.23s-0.003,0.156-0.01,0.229c-0.007,0.074-0.009,0.137-0.005,0.19
				c0.003,0.054-0.012,0.1-0.045,0.14c-0.033,0.047-0.085,0.074-0.155,0.08c-0.07,0.007-0.145,0.011-0.225,0.011h-0.181
				c-0.033-0.014-0.064-0.025-0.095-0.035c-0.03-0.011-0.052-0.025-0.064-0.045c-0.034-0.047-0.052-0.105-0.056-0.176
				c-0.003-0.069-0.005-0.142-0.005-0.215v-0.77v-2.771v-0.689c0-0.073,0.002-0.142,0.005-0.205
				c0.004-0.063,0.021-0.118,0.056-0.165c0.02-0.026,0.055-0.047,0.104-0.061c0.05-0.013,0.105-0.021,0.165-0.024
				c0.06-0.004,0.12-0.002,0.18,0.005c0.061,0.007,0.106,0.017,0.141,0.03c0.053,0.02,0.088,0.058,0.104,0.114
				s0.025,0.117,0.025,0.181s0,0.13,0,0.2c0,0.069,0.013,0.131,0.04,0.185c0.007,0.014,0.013,0.023,0.02,0.03
				s0.017,0.017,0.03,0.029c0.073,0,0.133-0.031,0.18-0.095s0.087-0.115,0.12-0.155l0.061-0.06c0.06-0.073,0.143-0.15,0.25-0.23
				c0.106-0.079,0.206-0.14,0.3-0.18c0.06-0.033,0.123-0.059,0.189-0.075c0.067-0.017,0.137-0.035,0.21-0.055
				c0.04-0.007,0.08-0.012,0.12-0.015C697.202,470.599,697.239,470.594,697.272,470.587z"/>
			<path fill="#990000" d="M702.673,473.077c0.013,0.066,0.015,0.142,0.005,0.225c-0.01,0.084-0.032,0.143-0.065,0.176
				c-0.033,0.026-0.081,0.045-0.145,0.055s-0.136,0.015-0.215,0.015c-0.08,0-0.16-0.001-0.24-0.005
				c-0.08-0.003-0.15-0.005-0.21-0.005h-2.561c-0.053,0-0.106,0.002-0.16,0.005c-0.053,0.004-0.097,0.016-0.13,0.035
				c-0.026,0.014-0.053,0.04-0.08,0.08c-0.013,0.02-0.026,0.049-0.04,0.085c-0.013,0.037-0.013,0.071,0,0.105
				c0.007,0.033,0.011,0.063,0.011,0.09c0,0.026,0.003,0.053,0.01,0.08c0.014,0.053,0.026,0.108,0.04,0.165s0.033,0.111,0.06,0.165
				c0.153,0.359,0.407,0.616,0.761,0.77c0.04,0.02,0.083,0.037,0.13,0.05c0.046,0.014,0.093,0.027,0.14,0.04
				c0.021,0.007,0.054,0.01,0.1,0.01c0.094,0.027,0.217,0.04,0.37,0.04s0.277-0.013,0.37-0.04c0.094-0.026,0.179-0.055,0.255-0.085
				c0.077-0.029,0.148-0.068,0.216-0.114c0.073-0.047,0.136-0.102,0.189-0.165s0.1-0.132,0.14-0.205
				c0.04-0.066,0.075-0.137,0.105-0.21s0.081-0.127,0.155-0.16c0.026-0.014,0.069-0.023,0.13-0.03c0.06-0.007,0.12-0.008,0.18-0.005
				c0.061,0.004,0.116,0.009,0.17,0.015c0.054,0.007,0.09,0.021,0.11,0.04c0.066,0.047,0.083,0.124,0.05,0.23
				c-0.054,0.18-0.123,0.34-0.21,0.479c-0.134,0.214-0.285,0.389-0.455,0.525s-0.385,0.248-0.645,0.335
				c-0.067,0.026-0.134,0.045-0.2,0.055c-0.067,0.011-0.137,0.021-0.21,0.035c-0.033,0.007-0.065,0.01-0.096,0.01
				c-0.029,0-0.062,0.004-0.095,0.011h-0.1c-0.033,0.006-0.072,0.01-0.115,0.01s-0.078-0.004-0.104-0.01h-0.091
				c-0.033-0.007-0.063-0.011-0.09-0.011s-0.054-0.003-0.08-0.01c-0.033-0.007-0.069-0.012-0.109-0.015
				c-0.04-0.004-0.077-0.009-0.11-0.016c-0.06-0.013-0.12-0.028-0.18-0.045c-0.061-0.017-0.117-0.034-0.17-0.055
				c-0.027-0.014-0.051-0.021-0.07-0.025c-0.021-0.003-0.044-0.011-0.07-0.024c-0.1-0.047-0.206-0.104-0.319-0.17
				c-0.194-0.127-0.358-0.282-0.495-0.465c-0.137-0.184-0.252-0.389-0.346-0.615c-0.033-0.073-0.058-0.15-0.074-0.23
				c-0.018-0.08-0.039-0.16-0.065-0.239c-0.007-0.027-0.01-0.051-0.01-0.07c0-0.021-0.004-0.047-0.01-0.08
				c-0.014-0.054-0.023-0.11-0.03-0.17c-0.007-0.061-0.017-0.12-0.03-0.18v-0.141c-0.007-0.026-0.012-0.064-0.015-0.115
				c-0.004-0.05-0.002-0.091,0.005-0.125v-0.109c0.013-0.033,0.019-0.068,0.015-0.105c-0.003-0.036-0.002-0.071,0.005-0.104
				c0.027-0.106,0.049-0.214,0.065-0.32s0.045-0.206,0.085-0.3c0.033-0.073,0.065-0.148,0.095-0.226
				c0.03-0.076,0.065-0.151,0.105-0.225c0.146-0.233,0.313-0.435,0.5-0.604c0.187-0.171,0.416-0.312,0.689-0.426
				c0.08-0.033,0.162-0.058,0.245-0.074s0.172-0.035,0.266-0.056c0.033-0.006,0.063-0.012,0.09-0.015
				c0.026-0.003,0.057-0.005,0.09-0.005c0.013-0.007,0.03-0.007,0.05,0c0.021,0.007,0.037,0.003,0.05-0.01
				c0.28-0.007,0.523,0.021,0.73,0.085c0.206,0.063,0.394,0.148,0.56,0.255c0.033,0.013,0.061,0.031,0.08,0.055
				c0.021,0.023,0.043,0.042,0.07,0.055c0.053,0.04,0.108,0.087,0.165,0.141c0.057,0.053,0.104,0.106,0.145,0.16
				c0.106,0.14,0.197,0.273,0.271,0.399c0.046,0.073,0.083,0.153,0.109,0.24c0.027,0.087,0.057,0.173,0.091,0.26
				c0.033,0.087,0.058,0.177,0.074,0.271c0.017,0.093,0.039,0.187,0.065,0.279c0.007,0.047,0.012,0.094,0.015,0.141
				C702.661,472.984,702.666,473.03,702.673,473.077z M701.702,472.737c0.021-0.026,0.037-0.062,0.051-0.105
				c0.013-0.043,0.013-0.088,0-0.135c-0.04-0.146-0.097-0.283-0.171-0.41c-0.093-0.153-0.196-0.283-0.31-0.39
				s-0.26-0.196-0.44-0.271c-0.046-0.013-0.093-0.024-0.14-0.034c-0.047-0.011-0.097-0.021-0.149-0.035
				c-0.054-0.014-0.11-0.021-0.171-0.021c-0.06,0-0.116,0-0.17,0c-0.02,0.014-0.043,0.019-0.069,0.016
				c-0.027-0.004-0.051-0.002-0.07,0.005c-0.054,0.014-0.105,0.024-0.155,0.035c-0.05,0.01-0.099,0.021-0.145,0.034
				c-0.193,0.08-0.349,0.181-0.465,0.301c-0.117,0.12-0.222,0.27-0.315,0.449c-0.02,0.034-0.04,0.075-0.06,0.125
				c-0.021,0.051-0.037,0.105-0.051,0.165c-0.013,0.061-0.017,0.117-0.01,0.17c0.007,0.054,0.03,0.094,0.07,0.12
				c0.053,0.04,0.145,0.059,0.274,0.056c0.131-0.004,0.242-0.005,0.336-0.005h1.52c0.1,0,0.22,0.001,0.36,0.005
				C701.563,472.815,701.656,472.791,701.702,472.737z"/>
			<path fill="#990000" d="M705.633,470.587c0.493-0.006,0.905,0.065,1.234,0.215c0.33,0.15,0.592,0.375,0.785,0.676
				c0.087,0.133,0.16,0.296,0.221,0.489c0.013,0.034,0.022,0.077,0.029,0.131c0.007,0.053,0.004,0.1-0.01,0.14
				c-0.02,0.033-0.054,0.063-0.1,0.09c-0.021,0.014-0.04,0.019-0.061,0.015c-0.02-0.003-0.043-0.001-0.069,0.006
				c-0.027,0.006-0.054,0.008-0.08,0.005c-0.027-0.004-0.054-0.005-0.08-0.005c-0.074,0-0.144-0.002-0.21-0.006
				c-0.067-0.003-0.124-0.021-0.17-0.055c-0.054-0.04-0.091-0.097-0.11-0.17c-0.021-0.073-0.047-0.137-0.08-0.19
				c-0.1-0.173-0.23-0.31-0.39-0.409c-0.054-0.033-0.11-0.062-0.17-0.085c-0.061-0.023-0.124-0.046-0.19-0.065
				c-0.094-0.026-0.217-0.042-0.37-0.045s-0.28,0.012-0.38,0.045c-0.047,0.014-0.09,0.023-0.13,0.03s-0.084,0.017-0.13,0.029
				c-0.174,0.074-0.327,0.174-0.46,0.301c-0.134,0.126-0.237,0.276-0.311,0.449c-0.026,0.061-0.05,0.122-0.069,0.186
				c-0.021,0.063-0.04,0.132-0.061,0.205l-0.06,0.27c-0.007,0.034-0.009,0.07-0.005,0.11c0.003,0.04-0.002,0.076-0.016,0.11v0.079
				c-0.007,0.027-0.012,0.07-0.015,0.131c-0.004,0.06,0.001,0.104,0.015,0.13c0.007,0.033,0.007,0.066,0,0.1s-0.007,0.066,0,0.101
				c0.007,0.026,0.01,0.073,0.01,0.14c0.014,0.054,0.025,0.11,0.035,0.17c0.011,0.06,0.021,0.116,0.035,0.17
				c0.073,0.214,0.158,0.398,0.255,0.555c0.097,0.157,0.231,0.292,0.405,0.405c0.06,0.033,0.121,0.063,0.185,0.09
				c0.063,0.027,0.132,0.054,0.205,0.08c0.033,0.007,0.061,0.01,0.08,0.01c0.021,0,0.047,0.004,0.08,0.011
				c0.021,0.007,0.054,0.01,0.101,0.01h0.109c0,0.007,0.014,0.01,0.04,0.01c0.014-0.007,0.03-0.008,0.05-0.005
				c0.021,0.004,0.04,0.002,0.061-0.005c0.047-0.014,0.092-0.019,0.135-0.015c0.043,0.003,0.088-0.002,0.135-0.016
				c0.174-0.053,0.323-0.121,0.45-0.205c0.127-0.083,0.233-0.191,0.32-0.325c0.033-0.053,0.063-0.109,0.09-0.17
				c0.026-0.06,0.054-0.12,0.08-0.18c0.013-0.054,0.028-0.104,0.045-0.155c0.017-0.05,0.048-0.091,0.095-0.125
				c0.021-0.02,0.061-0.035,0.12-0.045c0.061-0.01,0.125-0.017,0.195-0.02c0.069-0.004,0.137-0.002,0.2,0.005
				c0.063,0.007,0.107,0.02,0.135,0.04c0.04,0.026,0.064,0.066,0.075,0.12c0.01,0.053,0.008,0.109-0.005,0.17
				c-0.034,0.1-0.065,0.194-0.096,0.285c-0.029,0.09-0.068,0.178-0.115,0.265c-0.1,0.2-0.225,0.377-0.375,0.53
				c-0.149,0.153-0.331,0.276-0.545,0.37c-0.053,0.026-0.109,0.048-0.17,0.064c-0.06,0.017-0.123,0.035-0.189,0.055
				c-0.073,0.027-0.146,0.042-0.221,0.046c-0.073,0.003-0.146,0.011-0.22,0.024c-0.026,0.014-0.054,0.017-0.08,0.01
				c-0.026-0.006-0.053-0.006-0.08,0h-0.09c-0.054,0-0.104,0.002-0.155,0.006c-0.05,0.003-0.095-0.002-0.135-0.016h-0.05l-0.24-0.03
				c-0.087-0.026-0.17-0.05-0.25-0.069c-0.08-0.021-0.156-0.047-0.229-0.08c-0.24-0.106-0.438-0.233-0.596-0.38
				c-0.156-0.146-0.301-0.327-0.435-0.54c-0.033-0.054-0.063-0.113-0.09-0.181c-0.026-0.066-0.054-0.133-0.08-0.199
				c-0.033-0.073-0.057-0.15-0.07-0.23c-0.013-0.08-0.029-0.16-0.05-0.24c-0.007-0.026-0.01-0.053-0.01-0.08
				c0-0.026-0.004-0.053-0.01-0.079c-0.014-0.04-0.019-0.084-0.016-0.131c0.004-0.046-0.002-0.09-0.015-0.13v-0.1
				c-0.007-0.033-0.01-0.08-0.01-0.14c0-0.061,0.003-0.107,0.01-0.141s0.008-0.063,0.005-0.09c-0.004-0.026-0.002-0.054,0.005-0.08
				c0.014-0.047,0.019-0.093,0.015-0.14c-0.003-0.047,0.002-0.09,0.016-0.13c0.026-0.113,0.05-0.227,0.07-0.341
				c0.02-0.113,0.05-0.22,0.09-0.319c0.14-0.347,0.31-0.627,0.51-0.84c0.2-0.214,0.474-0.391,0.82-0.53
				c0.073-0.033,0.153-0.057,0.239-0.07c0.087-0.013,0.177-0.03,0.271-0.05c0.047-0.007,0.093-0.012,0.14-0.015
				C705.529,470.599,705.579,470.594,705.633,470.587z"/>
			<path fill="#990000" d="M709.222,468.747c0.094,0,0.191,0.002,0.295,0.005c0.104,0.004,0.175,0.032,0.215,0.085
				c0.033,0.047,0.051,0.115,0.051,0.205s0,0.179,0,0.266v1.06v0.3c0,0.027-0.002,0.054-0.006,0.08
				c-0.003,0.026-0.001,0.054,0.006,0.08c0.006,0.021,0.008,0.044,0.005,0.07c-0.004,0.026-0.002,0.05,0.005,0.069
				c0.013,0.054,0.021,0.104,0.024,0.15c0.004,0.047,0.039,0.07,0.105,0.07c0.013-0.014,0.028-0.021,0.045-0.025
				c0.017-0.003,0.031-0.012,0.045-0.025c0.04-0.026,0.076-0.055,0.11-0.085c0.033-0.029,0.069-0.062,0.109-0.095
				c0.073-0.053,0.155-0.102,0.245-0.145c0.09-0.044,0.182-0.082,0.275-0.115c0.053-0.014,0.109-0.025,0.17-0.035
				c0.06-0.01,0.116-0.021,0.17-0.035c0.026-0.013,0.054-0.018,0.08-0.015s0.057,0.002,0.09-0.005
				c0.033-0.014,0.088-0.021,0.165-0.021c0.076,0,0.132,0.007,0.165,0.021c0.033,0,0.065,0,0.095,0c0.03,0,0.062,0.003,0.096,0.01
				c0.053,0.014,0.106,0.023,0.159,0.03c0.054,0.007,0.106,0.017,0.16,0.029c0.033,0.014,0.061,0.022,0.08,0.025
				c0.021,0.004,0.047,0.012,0.08,0.025c0.073,0.033,0.144,0.068,0.21,0.104c0.066,0.037,0.134,0.078,0.2,0.125
				c0.066,0.061,0.13,0.13,0.189,0.21c0.04,0.061,0.077,0.12,0.11,0.181c0.033,0.06,0.066,0.126,0.1,0.199
				c0.021,0.047,0.035,0.094,0.046,0.141c0.01,0.047,0.021,0.097,0.034,0.149c0.014,0.034,0.021,0.067,0.021,0.101
				s0.003,0.069,0.01,0.109c0.014,0.034,0.019,0.067,0.015,0.101c-0.003,0.033,0.002,0.066,0.016,0.1v0.101
				c0.007,0.033,0.008,0.069,0.005,0.109c-0.004,0.04-0.005,0.077-0.005,0.11v0.43v2.08c0,0.054,0.001,0.118,0.005,0.195
				c0.003,0.076,0.003,0.149,0,0.22c-0.004,0.07-0.012,0.135-0.025,0.195c-0.013,0.06-0.033,0.1-0.06,0.12
				c-0.047,0.04-0.134,0.06-0.26,0.06c-0.087,0-0.172,0-0.255,0c-0.084,0-0.146-0.026-0.186-0.08
				c-0.033-0.047-0.05-0.102-0.05-0.165s0-0.132,0-0.205v-0.72v-1.6c0-0.181,0.002-0.372,0.005-0.575s-0.019-0.379-0.065-0.525
				c-0.079-0.227-0.213-0.394-0.399-0.5c-0.054-0.033-0.11-0.062-0.17-0.085c-0.061-0.023-0.127-0.041-0.2-0.055
				c-0.026-0.007-0.066-0.01-0.12-0.01c-0.026-0.007-0.059-0.014-0.095-0.021c-0.037-0.007-0.072-0.003-0.105,0.01
				c-0.026,0.007-0.053,0.009-0.08,0.005c-0.026-0.003-0.057-0.001-0.09,0.006c-0.06,0.013-0.121,0.024-0.185,0.034
				c-0.063,0.011-0.122,0.028-0.175,0.056c-0.228,0.093-0.407,0.22-0.54,0.38c-0.134,0.16-0.237,0.363-0.311,0.609
				c-0.014,0.047-0.023,0.097-0.03,0.15c-0.006,0.054-0.017,0.106-0.029,0.16c-0.007,0.02-0.009,0.042-0.005,0.064
				c0.003,0.023,0.001,0.046-0.005,0.065c-0.007,0.033-0.007,0.066,0,0.1c0.006,0.034,0.006,0.067,0,0.101v2.01
				c0,0.054,0.001,0.115,0.005,0.185c0.003,0.07,0.003,0.139,0,0.205c-0.004,0.067-0.009,0.131-0.016,0.19s-0.02,0.104-0.04,0.13
				c-0.026,0.033-0.059,0.052-0.095,0.055c-0.037,0.004-0.078,0.012-0.125,0.025h-0.14c-0.074,0-0.144-0.002-0.21-0.005
				c-0.067-0.003-0.117-0.025-0.15-0.065c-0.033-0.053-0.052-0.118-0.055-0.194c-0.004-0.077-0.005-0.158-0.005-0.245v-0.92v-4.17
				v-0.98c0-0.073-0.002-0.151-0.006-0.235c-0.003-0.083,0.012-0.147,0.046-0.194c0.026-0.047,0.076-0.08,0.149-0.101
				c0.014-0.006,0.026-0.008,0.04-0.005C709.195,468.756,709.208,468.754,709.222,468.747z"/>
			<path fill="#990000" d="M718.973,473.077c0.013,0.066,0.015,0.142,0.005,0.225c-0.01,0.084-0.032,0.143-0.065,0.176
				c-0.033,0.026-0.081,0.045-0.145,0.055s-0.136,0.015-0.215,0.015c-0.08,0-0.16-0.001-0.24-0.005
				c-0.08-0.003-0.15-0.005-0.21-0.005h-2.561c-0.053,0-0.106,0.002-0.16,0.005c-0.053,0.004-0.097,0.016-0.13,0.035
				c-0.026,0.014-0.053,0.04-0.08,0.08c-0.013,0.02-0.026,0.049-0.04,0.085c-0.013,0.037-0.013,0.071,0,0.105
				c0.007,0.033,0.011,0.063,0.011,0.09c0,0.026,0.003,0.053,0.01,0.08c0.014,0.053,0.026,0.108,0.04,0.165s0.033,0.111,0.06,0.165
				c0.153,0.359,0.407,0.616,0.761,0.77c0.04,0.02,0.083,0.037,0.13,0.05c0.046,0.014,0.093,0.027,0.14,0.04
				c0.021,0.007,0.054,0.01,0.1,0.01c0.094,0.027,0.217,0.04,0.37,0.04s0.277-0.013,0.37-0.04c0.094-0.026,0.179-0.055,0.255-0.085
				c0.077-0.029,0.148-0.068,0.216-0.114c0.073-0.047,0.136-0.102,0.189-0.165s0.1-0.132,0.14-0.205
				c0.04-0.066,0.075-0.137,0.105-0.21s0.081-0.127,0.155-0.16c0.026-0.014,0.069-0.023,0.13-0.03c0.06-0.007,0.12-0.008,0.18-0.005
				c0.061,0.004,0.116,0.009,0.17,0.015c0.054,0.007,0.09,0.021,0.11,0.04c0.066,0.047,0.083,0.124,0.05,0.23
				c-0.054,0.18-0.123,0.34-0.21,0.479c-0.134,0.214-0.285,0.389-0.455,0.525s-0.385,0.248-0.645,0.335
				c-0.067,0.026-0.134,0.045-0.2,0.055c-0.067,0.011-0.137,0.021-0.21,0.035c-0.033,0.007-0.065,0.01-0.096,0.01
				c-0.029,0-0.062,0.004-0.095,0.011h-0.1c-0.033,0.006-0.072,0.01-0.115,0.01s-0.078-0.004-0.104-0.01h-0.091
				c-0.033-0.007-0.063-0.011-0.09-0.011s-0.054-0.003-0.08-0.01c-0.033-0.007-0.069-0.012-0.109-0.015
				c-0.04-0.004-0.077-0.009-0.11-0.016c-0.06-0.013-0.12-0.028-0.18-0.045c-0.061-0.017-0.117-0.034-0.17-0.055
				c-0.027-0.014-0.051-0.021-0.07-0.025c-0.021-0.003-0.044-0.011-0.07-0.024c-0.1-0.047-0.206-0.104-0.319-0.17
				c-0.194-0.127-0.358-0.282-0.495-0.465c-0.137-0.184-0.252-0.389-0.346-0.615c-0.033-0.073-0.058-0.15-0.074-0.23
				c-0.018-0.08-0.039-0.16-0.065-0.239c-0.007-0.027-0.01-0.051-0.01-0.07c0-0.021-0.004-0.047-0.01-0.08
				c-0.014-0.054-0.023-0.11-0.03-0.17c-0.007-0.061-0.017-0.12-0.03-0.18v-0.141c-0.007-0.026-0.012-0.064-0.015-0.115
				c-0.004-0.05-0.002-0.091,0.005-0.125v-0.109c0.013-0.033,0.019-0.068,0.015-0.105c-0.003-0.036-0.002-0.071,0.005-0.104
				c0.027-0.106,0.049-0.214,0.065-0.32s0.045-0.206,0.085-0.3c0.033-0.073,0.065-0.148,0.095-0.226
				c0.03-0.076,0.065-0.151,0.105-0.225c0.146-0.233,0.313-0.435,0.5-0.604c0.187-0.171,0.416-0.312,0.689-0.426
				c0.08-0.033,0.162-0.058,0.245-0.074s0.172-0.035,0.266-0.056c0.033-0.006,0.063-0.012,0.09-0.015
				c0.026-0.003,0.057-0.005,0.09-0.005c0.013-0.007,0.03-0.007,0.05,0c0.021,0.007,0.037,0.003,0.05-0.01
				c0.28-0.007,0.523,0.021,0.73,0.085c0.206,0.063,0.394,0.148,0.56,0.255c0.033,0.013,0.061,0.031,0.08,0.055
				c0.021,0.023,0.043,0.042,0.07,0.055c0.053,0.04,0.108,0.087,0.165,0.141c0.057,0.053,0.104,0.106,0.145,0.16
				c0.106,0.14,0.197,0.273,0.271,0.399c0.046,0.073,0.083,0.153,0.109,0.24c0.027,0.087,0.057,0.173,0.091,0.26
				c0.033,0.087,0.058,0.177,0.074,0.271c0.017,0.093,0.039,0.187,0.065,0.279c0.007,0.047,0.012,0.094,0.015,0.141
				C718.961,472.984,718.966,473.03,718.973,473.077z M718.002,472.737c0.021-0.026,0.037-0.062,0.051-0.105
				c0.013-0.043,0.013-0.088,0-0.135c-0.04-0.146-0.097-0.283-0.171-0.41c-0.093-0.153-0.196-0.283-0.31-0.39
				s-0.26-0.196-0.44-0.271c-0.046-0.013-0.093-0.024-0.14-0.034c-0.047-0.011-0.097-0.021-0.149-0.035
				c-0.054-0.014-0.11-0.021-0.171-0.021c-0.06,0-0.116,0-0.17,0c-0.02,0.014-0.043,0.019-0.069,0.016
				c-0.027-0.004-0.051-0.002-0.07,0.005c-0.054,0.014-0.105,0.024-0.155,0.035c-0.05,0.01-0.099,0.021-0.145,0.034
				c-0.193,0.08-0.349,0.181-0.465,0.301c-0.117,0.12-0.222,0.27-0.315,0.449c-0.02,0.034-0.04,0.075-0.06,0.125
				c-0.021,0.051-0.037,0.105-0.051,0.165c-0.013,0.061-0.017,0.117-0.01,0.17c0.007,0.054,0.03,0.094,0.07,0.12
				c0.053,0.04,0.145,0.059,0.274,0.056c0.131-0.004,0.242-0.005,0.336-0.005h1.52c0.1,0,0.22,0.001,0.36,0.005
				C717.862,472.815,717.956,472.791,718.002,472.737z"/>
			<path fill="#990000" d="M722.272,470.587c0.153,0,0.24,0.039,0.26,0.115c0.021,0.077,0.03,0.188,0.03,0.335
				c0,0.066,0,0.13,0,0.19c0,0.06-0.017,0.109-0.05,0.149c-0.04,0.054-0.097,0.082-0.17,0.085c-0.074,0.004-0.147,0.016-0.221,0.035
				c-0.093,0.021-0.182,0.04-0.265,0.061c-0.083,0.02-0.162,0.046-0.235,0.079c-0.193,0.087-0.35,0.205-0.47,0.355
				s-0.224,0.321-0.31,0.515c-0.027,0.074-0.047,0.148-0.061,0.226c-0.014,0.076-0.03,0.154-0.05,0.234
				c-0.007,0.034-0.009,0.067-0.005,0.101c0.003,0.033,0.001,0.066-0.005,0.1c-0.021,0.08-0.028,0.172-0.025,0.275
				c0.004,0.104,0.005,0.201,0.005,0.295v1.229c0,0.074,0,0.15,0,0.23s-0.003,0.156-0.01,0.229c-0.007,0.074-0.009,0.137-0.005,0.19
				c0.003,0.054-0.012,0.1-0.045,0.14c-0.033,0.047-0.085,0.074-0.155,0.08c-0.07,0.007-0.145,0.011-0.225,0.011h-0.181
				c-0.033-0.014-0.064-0.025-0.095-0.035c-0.03-0.011-0.052-0.025-0.064-0.045c-0.034-0.047-0.052-0.105-0.056-0.176
				c-0.003-0.069-0.005-0.142-0.005-0.215v-0.77v-2.771v-0.689c0-0.073,0.002-0.142,0.005-0.205
				c0.004-0.063,0.021-0.118,0.056-0.165c0.02-0.026,0.055-0.047,0.104-0.061c0.05-0.013,0.105-0.021,0.165-0.024
				c0.06-0.004,0.12-0.002,0.18,0.005c0.061,0.007,0.106,0.017,0.141,0.03c0.053,0.02,0.088,0.058,0.104,0.114
				s0.025,0.117,0.025,0.181s0,0.13,0,0.2c0,0.069,0.013,0.131,0.04,0.185c0.007,0.014,0.013,0.023,0.02,0.03
				s0.017,0.017,0.03,0.029c0.073,0,0.133-0.031,0.18-0.095s0.087-0.115,0.12-0.155l0.061-0.06c0.06-0.073,0.143-0.15,0.25-0.23
				c0.106-0.079,0.206-0.14,0.3-0.18c0.06-0.033,0.123-0.059,0.189-0.075c0.067-0.017,0.137-0.035,0.21-0.055
				c0.04-0.007,0.08-0.012,0.12-0.015C722.202,470.599,722.239,470.594,722.272,470.587z"/>
			<path fill="#990000" d="M725.262,470.587c0.493-0.006,0.905,0.065,1.234,0.215c0.33,0.15,0.592,0.375,0.785,0.676
				c0.087,0.133,0.16,0.296,0.221,0.489c0.013,0.034,0.022,0.077,0.029,0.131c0.007,0.053,0.004,0.1-0.01,0.14
				c-0.02,0.033-0.054,0.063-0.1,0.09c-0.021,0.014-0.04,0.019-0.061,0.015c-0.02-0.003-0.043-0.001-0.069,0.006
				c-0.027,0.006-0.054,0.008-0.08,0.005c-0.027-0.004-0.054-0.005-0.08-0.005c-0.074,0-0.144-0.002-0.21-0.006
				c-0.067-0.003-0.124-0.021-0.17-0.055c-0.054-0.04-0.091-0.097-0.11-0.17c-0.021-0.073-0.047-0.137-0.08-0.19
				c-0.1-0.173-0.23-0.31-0.39-0.409c-0.054-0.033-0.11-0.062-0.17-0.085c-0.061-0.023-0.124-0.046-0.19-0.065
				c-0.094-0.026-0.217-0.042-0.37-0.045s-0.28,0.012-0.38,0.045c-0.047,0.014-0.09,0.023-0.13,0.03s-0.084,0.017-0.13,0.029
				c-0.174,0.074-0.327,0.174-0.46,0.301c-0.134,0.126-0.237,0.276-0.311,0.449c-0.026,0.061-0.05,0.122-0.069,0.186
				c-0.021,0.063-0.04,0.132-0.061,0.205l-0.06,0.27c-0.007,0.034-0.009,0.07-0.005,0.11c0.003,0.04-0.002,0.076-0.016,0.11v0.079
				c-0.007,0.027-0.012,0.07-0.015,0.131c-0.004,0.06,0.001,0.104,0.015,0.13c0.007,0.033,0.007,0.066,0,0.1s-0.007,0.066,0,0.101
				c0.007,0.026,0.01,0.073,0.01,0.14c0.014,0.054,0.025,0.11,0.035,0.17c0.011,0.06,0.021,0.116,0.035,0.17
				c0.073,0.214,0.158,0.398,0.255,0.555c0.097,0.157,0.231,0.292,0.405,0.405c0.06,0.033,0.121,0.063,0.185,0.09
				c0.063,0.027,0.132,0.054,0.205,0.08c0.033,0.007,0.061,0.01,0.08,0.01c0.021,0,0.047,0.004,0.08,0.011
				c0.021,0.007,0.054,0.01,0.101,0.01h0.109c0,0.007,0.014,0.01,0.04,0.01c0.014-0.007,0.03-0.008,0.05-0.005
				c0.021,0.004,0.04,0.002,0.061-0.005c0.047-0.014,0.092-0.019,0.135-0.015c0.043,0.003,0.088-0.002,0.135-0.016
				c0.174-0.053,0.323-0.121,0.45-0.205c0.127-0.083,0.233-0.191,0.32-0.325c0.033-0.053,0.063-0.109,0.09-0.17
				c0.026-0.06,0.054-0.12,0.08-0.18c0.013-0.054,0.028-0.104,0.045-0.155c0.017-0.05,0.048-0.091,0.095-0.125
				c0.021-0.02,0.061-0.035,0.12-0.045c0.061-0.01,0.125-0.017,0.195-0.02c0.069-0.004,0.137-0.002,0.2,0.005
				c0.063,0.007,0.107,0.02,0.135,0.04c0.04,0.026,0.064,0.066,0.075,0.12c0.01,0.053,0.008,0.109-0.005,0.17
				c-0.034,0.1-0.065,0.194-0.096,0.285c-0.029,0.09-0.068,0.178-0.115,0.265c-0.1,0.2-0.225,0.377-0.375,0.53
				c-0.149,0.153-0.331,0.276-0.545,0.37c-0.053,0.026-0.109,0.048-0.17,0.064c-0.06,0.017-0.123,0.035-0.189,0.055
				c-0.073,0.027-0.146,0.042-0.221,0.046c-0.073,0.003-0.146,0.011-0.22,0.024c-0.026,0.014-0.054,0.017-0.08,0.01
				c-0.026-0.006-0.053-0.006-0.08,0h-0.09c-0.054,0-0.104,0.002-0.155,0.006c-0.05,0.003-0.095-0.002-0.135-0.016h-0.05l-0.24-0.03
				c-0.087-0.026-0.17-0.05-0.25-0.069c-0.08-0.021-0.156-0.047-0.229-0.08c-0.24-0.106-0.438-0.233-0.596-0.38
				c-0.156-0.146-0.301-0.327-0.435-0.54c-0.033-0.054-0.063-0.113-0.09-0.181c-0.026-0.066-0.054-0.133-0.08-0.199
				c-0.033-0.073-0.057-0.15-0.07-0.23c-0.013-0.08-0.029-0.16-0.05-0.24c-0.007-0.026-0.01-0.053-0.01-0.08
				c0-0.026-0.004-0.053-0.01-0.079c-0.014-0.04-0.019-0.084-0.016-0.131c0.004-0.046-0.002-0.09-0.015-0.13v-0.1
				c-0.007-0.033-0.01-0.08-0.01-0.14c0-0.061,0.003-0.107,0.01-0.141s0.008-0.063,0.005-0.09c-0.004-0.026-0.002-0.054,0.005-0.08
				c0.014-0.047,0.019-0.093,0.015-0.14c-0.003-0.047,0.002-0.09,0.016-0.13c0.026-0.113,0.05-0.227,0.07-0.341
				c0.02-0.113,0.05-0.22,0.09-0.319c0.14-0.347,0.31-0.627,0.51-0.84c0.2-0.214,0.474-0.391,0.82-0.53
				c0.073-0.033,0.153-0.057,0.239-0.07c0.087-0.013,0.177-0.03,0.271-0.05c0.047-0.007,0.093-0.012,0.14-0.015
				C725.158,470.599,725.208,470.594,725.262,470.587z"/>
			<path fill="#990000" d="M728.852,468.747c0.094,0,0.191,0.002,0.295,0.005c0.104,0.004,0.175,0.032,0.215,0.085
				c0.033,0.047,0.051,0.115,0.051,0.205s0,0.179,0,0.266v1.06v0.3c0,0.027-0.002,0.054-0.006,0.08
				c-0.003,0.026-0.001,0.054,0.006,0.08c0.006,0.021,0.008,0.044,0.005,0.07c-0.004,0.026-0.002,0.05,0.005,0.069
				c0.013,0.054,0.021,0.104,0.024,0.15c0.004,0.047,0.039,0.07,0.105,0.07c0.013-0.014,0.028-0.021,0.045-0.025
				c0.017-0.003,0.031-0.012,0.045-0.025c0.04-0.026,0.076-0.055,0.11-0.085c0.033-0.029,0.069-0.062,0.109-0.095
				c0.073-0.053,0.155-0.102,0.245-0.145c0.09-0.044,0.182-0.082,0.275-0.115c0.053-0.014,0.109-0.025,0.17-0.035
				c0.06-0.01,0.116-0.021,0.17-0.035c0.026-0.013,0.054-0.018,0.08-0.015s0.057,0.002,0.09-0.005
				c0.033-0.014,0.088-0.021,0.165-0.021c0.076,0,0.132,0.007,0.165,0.021c0.033,0,0.065,0,0.095,0c0.03,0,0.062,0.003,0.096,0.01
				c0.053,0.014,0.106,0.023,0.159,0.03c0.054,0.007,0.106,0.017,0.16,0.029c0.033,0.014,0.061,0.022,0.08,0.025
				c0.021,0.004,0.047,0.012,0.08,0.025c0.073,0.033,0.144,0.068,0.21,0.104c0.066,0.037,0.134,0.078,0.2,0.125
				c0.066,0.061,0.13,0.13,0.189,0.21c0.04,0.061,0.077,0.12,0.11,0.181c0.033,0.06,0.066,0.126,0.1,0.199
				c0.021,0.047,0.035,0.094,0.046,0.141c0.01,0.047,0.021,0.097,0.034,0.149c0.014,0.034,0.021,0.067,0.021,0.101
				s0.003,0.069,0.01,0.109c0.014,0.034,0.019,0.067,0.015,0.101c-0.003,0.033,0.002,0.066,0.016,0.1v0.101
				c0.007,0.033,0.008,0.069,0.005,0.109c-0.004,0.04-0.005,0.077-0.005,0.11v0.43v2.08c0,0.054,0.001,0.118,0.005,0.195
				c0.003,0.076,0.003,0.149,0,0.22c-0.004,0.07-0.012,0.135-0.025,0.195c-0.013,0.06-0.033,0.1-0.06,0.12
				c-0.047,0.04-0.134,0.06-0.26,0.06c-0.087,0-0.172,0-0.255,0c-0.084,0-0.146-0.026-0.186-0.08
				c-0.033-0.047-0.05-0.102-0.05-0.165s0-0.132,0-0.205v-0.72v-1.6c0-0.181,0.002-0.372,0.005-0.575s-0.019-0.379-0.065-0.525
				c-0.079-0.227-0.213-0.394-0.399-0.5c-0.054-0.033-0.11-0.062-0.17-0.085c-0.061-0.023-0.127-0.041-0.2-0.055
				c-0.026-0.007-0.066-0.01-0.12-0.01c-0.026-0.007-0.059-0.014-0.095-0.021c-0.037-0.007-0.072-0.003-0.105,0.01
				c-0.026,0.007-0.053,0.009-0.08,0.005c-0.026-0.003-0.057-0.001-0.09,0.006c-0.06,0.013-0.121,0.024-0.185,0.034
				c-0.063,0.011-0.122,0.028-0.175,0.056c-0.228,0.093-0.407,0.22-0.54,0.38c-0.134,0.16-0.237,0.363-0.311,0.609
				c-0.014,0.047-0.023,0.097-0.03,0.15c-0.006,0.054-0.017,0.106-0.029,0.16c-0.007,0.02-0.009,0.042-0.005,0.064
				c0.003,0.023,0.001,0.046-0.005,0.065c-0.007,0.033-0.007,0.066,0,0.1c0.006,0.034,0.006,0.067,0,0.101v2.01
				c0,0.054,0.001,0.115,0.005,0.185c0.003,0.07,0.003,0.139,0,0.205c-0.004,0.067-0.009,0.131-0.016,0.19s-0.02,0.104-0.04,0.13
				c-0.026,0.033-0.059,0.052-0.095,0.055c-0.037,0.004-0.078,0.012-0.125,0.025h-0.14c-0.074,0-0.144-0.002-0.21-0.005
				c-0.067-0.003-0.117-0.025-0.15-0.065c-0.033-0.053-0.052-0.118-0.055-0.194c-0.004-0.077-0.005-0.158-0.005-0.245v-0.92v-4.17
				v-0.98c0-0.073-0.002-0.151-0.006-0.235c-0.003-0.083,0.012-0.147,0.046-0.194c0.026-0.047,0.076-0.08,0.149-0.101
				c0.014-0.006,0.026-0.008,0.04-0.005C728.825,468.756,728.838,468.754,728.852,468.747z"/>
			<path fill="#990000" d="M738.603,473.077c0.013,0.066,0.015,0.142,0.005,0.225c-0.01,0.084-0.032,0.143-0.065,0.176
				c-0.033,0.026-0.081,0.045-0.145,0.055s-0.136,0.015-0.215,0.015c-0.08,0-0.16-0.001-0.24-0.005
				c-0.08-0.003-0.15-0.005-0.21-0.005h-2.561c-0.053,0-0.106,0.002-0.16,0.005c-0.053,0.004-0.097,0.016-0.13,0.035
				c-0.026,0.014-0.053,0.04-0.08,0.08c-0.013,0.02-0.026,0.049-0.04,0.085c-0.013,0.037-0.013,0.071,0,0.105
				c0.007,0.033,0.011,0.063,0.011,0.09c0,0.026,0.003,0.053,0.01,0.08c0.014,0.053,0.026,0.108,0.04,0.165s0.033,0.111,0.06,0.165
				c0.153,0.359,0.407,0.616,0.761,0.77c0.04,0.02,0.083,0.037,0.13,0.05c0.046,0.014,0.093,0.027,0.14,0.04
				c0.021,0.007,0.054,0.01,0.1,0.01c0.094,0.027,0.217,0.04,0.37,0.04s0.277-0.013,0.37-0.04c0.094-0.026,0.179-0.055,0.255-0.085
				c0.077-0.029,0.148-0.068,0.216-0.114c0.073-0.047,0.136-0.102,0.189-0.165s0.1-0.132,0.14-0.205
				c0.04-0.066,0.075-0.137,0.105-0.21s0.081-0.127,0.155-0.16c0.026-0.014,0.069-0.023,0.13-0.03c0.06-0.007,0.12-0.008,0.18-0.005
				c0.061,0.004,0.116,0.009,0.17,0.015c0.054,0.007,0.09,0.021,0.11,0.04c0.066,0.047,0.083,0.124,0.05,0.23
				c-0.054,0.18-0.123,0.34-0.21,0.479c-0.134,0.214-0.285,0.389-0.455,0.525s-0.385,0.248-0.645,0.335
				c-0.067,0.026-0.134,0.045-0.2,0.055c-0.067,0.011-0.137,0.021-0.21,0.035c-0.033,0.007-0.065,0.01-0.096,0.01
				c-0.029,0-0.062,0.004-0.095,0.011h-0.1c-0.033,0.006-0.072,0.01-0.115,0.01s-0.078-0.004-0.104-0.01h-0.091
				c-0.033-0.007-0.063-0.011-0.09-0.011s-0.054-0.003-0.08-0.01c-0.033-0.007-0.069-0.012-0.109-0.015
				c-0.04-0.004-0.077-0.009-0.11-0.016c-0.06-0.013-0.12-0.028-0.18-0.045c-0.061-0.017-0.117-0.034-0.17-0.055
				c-0.027-0.014-0.051-0.021-0.07-0.025c-0.021-0.003-0.044-0.011-0.07-0.024c-0.1-0.047-0.206-0.104-0.319-0.17
				c-0.194-0.127-0.358-0.282-0.495-0.465c-0.137-0.184-0.252-0.389-0.346-0.615c-0.033-0.073-0.058-0.15-0.074-0.23
				c-0.018-0.08-0.039-0.16-0.065-0.239c-0.007-0.027-0.01-0.051-0.01-0.07c0-0.021-0.004-0.047-0.01-0.08
				c-0.014-0.054-0.023-0.11-0.03-0.17c-0.007-0.061-0.017-0.12-0.03-0.18v-0.141c-0.007-0.026-0.012-0.064-0.015-0.115
				c-0.004-0.05-0.002-0.091,0.005-0.125v-0.109c0.013-0.033,0.019-0.068,0.015-0.105c-0.003-0.036-0.002-0.071,0.005-0.104
				c0.027-0.106,0.049-0.214,0.065-0.32s0.045-0.206,0.085-0.3c0.033-0.073,0.065-0.148,0.095-0.226
				c0.03-0.076,0.065-0.151,0.105-0.225c0.146-0.233,0.313-0.435,0.5-0.604c0.187-0.171,0.416-0.312,0.689-0.426
				c0.08-0.033,0.162-0.058,0.245-0.074s0.172-0.035,0.266-0.056c0.033-0.006,0.063-0.012,0.09-0.015
				c0.026-0.003,0.057-0.005,0.09-0.005c0.013-0.007,0.03-0.007,0.05,0c0.021,0.007,0.037,0.003,0.05-0.01
				c0.28-0.007,0.523,0.021,0.73,0.085c0.206,0.063,0.394,0.148,0.56,0.255c0.033,0.013,0.061,0.031,0.08,0.055
				c0.021,0.023,0.043,0.042,0.07,0.055c0.053,0.04,0.108,0.087,0.165,0.141c0.057,0.053,0.104,0.106,0.145,0.16
				c0.106,0.14,0.197,0.273,0.271,0.399c0.046,0.073,0.083,0.153,0.109,0.24c0.027,0.087,0.057,0.173,0.091,0.26
				c0.033,0.087,0.058,0.177,0.074,0.271c0.017,0.093,0.039,0.187,0.065,0.279c0.007,0.047,0.012,0.094,0.015,0.141
				C738.591,472.984,738.596,473.03,738.603,473.077z M737.632,472.737c0.021-0.026,0.037-0.062,0.051-0.105
				c0.013-0.043,0.013-0.088,0-0.135c-0.04-0.146-0.097-0.283-0.171-0.41c-0.093-0.153-0.196-0.283-0.31-0.39
				s-0.26-0.196-0.44-0.271c-0.046-0.013-0.093-0.024-0.14-0.034c-0.047-0.011-0.097-0.021-0.149-0.035
				c-0.054-0.014-0.11-0.021-0.171-0.021c-0.06,0-0.116,0-0.17,0c-0.02,0.014-0.043,0.019-0.069,0.016
				c-0.027-0.004-0.051-0.002-0.07,0.005c-0.054,0.014-0.105,0.024-0.155,0.035c-0.05,0.01-0.099,0.021-0.145,0.034
				c-0.193,0.08-0.349,0.181-0.465,0.301c-0.117,0.12-0.222,0.27-0.315,0.449c-0.02,0.034-0.04,0.075-0.06,0.125
				c-0.021,0.051-0.037,0.105-0.051,0.165c-0.013,0.061-0.017,0.117-0.01,0.17c0.007,0.054,0.03,0.094,0.07,0.12
				c0.053,0.04,0.145,0.059,0.274,0.056c0.131-0.004,0.242-0.005,0.336-0.005h1.52c0.1,0,0.22,0.001,0.36,0.005
				C737.492,472.815,737.586,472.791,737.632,472.737z"/>
		</g>
	</g>
	<rect id="point_2" x="743.318" y="473.344" display="none" fill="#990000" width="3.671" height="3.672"/>
	<rect x="743.318" y="471.492" fill="#990000" width="3.375" height="3.375"/>
</g>
</svg>
