<?xml version="1.0" encoding="utf-8"?>
<!-- Generator: Adobe Illustrator 16.0.0, SVG Export Plug-In . SVG Version: 6.00 Build 0)  -->
<!DOCTYPE svg PUBLIC "-//W3C//DTD SVG 1.1//EN" "http://www.w3.org/Graphics/SVG/1.1/DTD/svg11.dtd">
<svg version="1.1" xmlns="http://www.w3.org/2000/svg" xmlns:xlink="http://www.w3.org/1999/xlink" x="0px" y="0px"
	 width="283.464px" height="283.465px" viewBox="155.285 467.479 283.464 283.465"
	 enable-background="new 155.285 467.479 283.464 283.465" xml:space="preserve">
<g id="fond" display="none">
	<circle display="inline" fill="#20558A" cx="291.646" cy="444.105" r="141.116"/>
	<circle display="inline" fill="#20558A" cx="291.646" cy="746.181" r="141.116"/>
</g>
<g id="FOND_blanc" display="none">
	<rect x="-1421.522" y="-171.185" display="inline" fill="#FFFFFF" width="2504.369" height="1248.557"/>
</g>
<g id="fond_-_copie" display="none">
	<circle display="inline" fill="#717881" cx="291.646" cy="444.105" r="141.116"/>
	<circle display="inline" fill="#D5DCEA" cx="291.646" cy="746.181" r="141.116"/>
</g>
<g id="A" display="none">
	<g display="inline">
		<path fill="#FFFFFF" d="M224.252,709.115l-24.715-4.23v-16.477h102.311c18.703,0,33.656,5.159,44.865,15.475
			c10.537,9.724,15.809,21.486,15.809,35.291c0,2.672-0.223,5.344-0.668,8.016c-2.004,14.102-11.172,22.711-27.498,25.828v10.465
			l49.541,77.596h-30.615c-35.256-34.289-53.66-52.175-55.219-53.66c-7.053,3.489-20.596,10.131-40.635,19.928
			c-0.373,1.261-4.084,12.616-11.133,34.066h-31.172l8.35-51.211l1.002-0.557l42.527-26.719v-55.441h-42.75V709.115z
			 M375.102,856.291c-12.545-19.669-27.387-42.898-44.531-69.691h-60.563c-1.857,1.188-9.279,5.863-22.266,14.027
			c-12.768,8.09-19.371,12.246-19.816,12.469c0.146-0.816-2.266,13.693-7.236,43.529h22.154c0.668-2.004,4.23-12.878,10.688-32.619
			l45.422-22.377c36.588,35.55,55.365,53.771,56.332,54.662H375.102z M229.039,693.195v29.502h42.75v49.318h43.752v-16.031
			l-22.711-4.119V735.5h44.197v4.787h-16.699v28.945c7.494,0.372,14.174-0.519,20.039-2.672c9.797-3.636,15.398-10.354,16.811-20.15
			c2.227-15.512-2.338-28.5-13.693-38.965c-10.318-9.5-24.197-14.25-41.637-14.25H229.039z M293.275,682.953
			c-5.42,0-10.059-1.93-13.916-5.789c-3.861-3.858-5.789-8.498-5.789-13.916c0-5.492,1.928-10.168,5.789-14.027
			c3.857-3.858,8.496-5.789,13.916-5.789c5.49,0,10.166,1.931,14.027,5.789c3.857,3.859,5.789,8.535,5.789,14.027
			c0,5.418-1.932,10.058-5.789,13.916C303.441,681.023,298.766,682.953,293.275,682.953z"/>
	</g>
	<g id="Calque_2" display="inline">
	</g>
	<g id="Calque_7" display="inline">
	</g>
</g>
<g id="B" display="none">
	<g display="inline" opacity="0.9">
		<path fill="#FFFFFF" d="M301.999,461.275c-3.421-7.611-24.353-14.21-24.353-14.21c-11.178-3.934-8.816-7.32-8.816-7.32
			c-26.846,34.397-41.047-0.414-41.047-0.414c-1.525,5.834-24.117,12.683-24.117,12.683c-6.602,2.548-9.386,6.347-9.386,6.347
			c-9.772,14.46-10.9,40.559-10.9,40.559c0.12,7.354,3.302,8.124,3.302,8.124c21.99,18.729,62.333,18.729,62.333,18.729
			c37.788,0,57.817-17.207,57.817-17.207c3.805-2.412,3.921-4.313,3.921-4.313C313.424,481.159,301.999,461.275,301.999,461.275z"/>
	</g>
	<g display="inline" opacity="0.8">
		<g>
			<path fill="#FFFFFF" d="M317.323,482.312v-8.248h82v8.248H317.323z"/>
		</g>
	</g>
	<g display="inline" opacity="0.8">
		<g>
			<path fill="#FFFFFF" d="M317.323,482.312v-8.248h82v8.248H317.323z"/>
		</g>
	</g>
	<g display="inline">
		<polygon fill="#FFFFFF" stroke="#20558A" stroke-width="4" stroke-miterlimit="10" points="374.954,715.665 350.285,724.06 
			362.493,731.605 327.187,765.549 292.211,751.674 224.608,817.886 240.425,828.541 297.711,772.435 332.553,786.252 
			378.865,741.735 392.842,750.377 396.232,728.826 399.621,707.272 		"/>
	</g>
	<g display="inline" opacity="0.8">
		<path fill="#FFFFFF" d="M231.729,726.631c6.455,0,12.256-2.094,17.404-6.281c2.617,1.135,4.601,2.008,5.954,2.617
			c1.352,0.611,3.161,1.484,5.431,2.617c2.268,1.135,4.012,2.116,5.234,2.944c1.221,0.83,2.638,1.897,4.253,3.206
			c1.613,1.309,2.791,2.552,3.533,3.729c0.74,1.178,1.374,2.552,1.897,4.122s0.785,3.229,0.785,4.973v44.885h-88.984v-44.885
			c0.262-2.791,0.959-5.32,2.094-7.59c1.133-2.268,2.441-4.188,3.926-5.758c1.482-1.57,3.488-3.096,6.02-4.58
			c2.529-1.482,4.776-2.683,6.739-3.599s4.515-1.983,7.655-3.206C218.904,724.363,224.924,726.631,231.729,726.631z
			 M231.663,672.717c-6.412,0-11.888,2.27-16.423,6.805c-4.537,4.537-6.805,10.033-6.805,16.488c0,6.457,2.268,11.953,6.805,16.488
			c4.535,4.537,10.011,6.805,16.423,6.805s11.908-2.268,16.488-6.805c4.58-4.535,6.87-10.031,6.87-16.488
			c0-6.455-2.29-11.951-6.87-16.488C243.571,674.986,238.075,672.717,231.663,672.717z"/>
	</g>
</g>
<g id="C" display="none">
	<g display="inline">
		<path fill="#FFFFFF" d="M320.904,663.342c1.921,9.91-0.188,18.254-6.324,25.037l-28.566,31.97
			c-0.76-0.838-2.057-2.062-3.893-3.671c-0.885-0.645-2.13-1.422-3.735-2.331l29.484-33.536c3.091-3.478,3.983-8.324,2.674-14.535
			c-1.661-7.884-6.953-10.885-15.87-9.006c-3.744,0.789-6.917,2.499-9.523,5.127l-43.093,44.138
			c-4.644,4.806-6.359,10.073-5.15,15.808c0.402,1.91,1.122,3.754,2.164,5.531c3.476,5.838,8.238,8.119,14.291,6.844
			c5.096-1.074,10.339-4.217,15.728-9.429c0.641,0.282,1.694,0.933,3.157,1.954c0.901,0.727,2.295,2.012,4.182,3.859
			c-7.526,6.91-15.033,11.152-22.518,12.73c-9.794,2.064-17.676-1.389-23.641-10.361c-1.946-2.916-3.262-6.006-3.95-9.272
			c-2.283-10.828,0.938-20.407,9.661-28.733l44.093-42.354c2.909-2.775,7.229-4.768,12.963-5.976
			c6.45-1.36,12.063-0.962,16.843,1.19C315.764,650.996,319.438,656.001,320.904,663.342z M289.48,784.738l-6.92,6.823
			l-35.077-35.022c-4.436-4.47-8.029-9.285-10.779-14.444c1.412,0.784,3.832,1.812,7.262,3.085c1.488,0.354,3.628,0.441,6.42,0.27
			c0.568,1.127,1.769,2.869,3.597,5.229L289.48,784.738z M326.55,764.699c2.678,2.848,4.464,6.379,5.354,10.6
			c2.064,9.793-1.346,17.498-10.224,23.113c-3.378,2.127-6.978,3.59-10.8,4.396c-7.725,1.628-14.278,0.723-19.66-2.717l7.059-7.352
			c3.676,2.053,7.742,2.609,12.203,1.669c2.389-0.503,4.478-1.442,6.268-2.818c5.065-3.978,7.079-8.435,6.038-13.374
			c-0.654-3.105-2.545-6.156-5.673-9.158l-44.521-43.137c-4.307-4.248-10.084-5.609-17.328-4.082
			c-1.355,0.285-2.636,0.723-3.841,1.309c-4.481,2.027-6.653,4.938-6.518,8.734c-0.914-0.389-2.295-1.803-4.139-4.242
			c-0.621-1.367-1.334-3.17-2.139-5.414c0.511-1.52,2.884-4.266,7.121-8.236c2.188-1.459,4.674-2.482,7.462-3.07
			c5.494-1.158,11.381-0.652,17.66,1.518c5.699,1.793,9.996,4.215,12.884,7.264L326.55,764.699z M345.653,780.758
			c1.904,9.828-0.203,18.176-6.324,25.036l-38.724,42.968c-5.318,5.943-12.237,9.815-20.757,11.611
			c-10.193,2.148-18.479-1.055-24.854-9.606c-2.202-2.947-3.646-6.052-4.334-9.315c-2.048-9.715,1.43-19.057,10.436-28.024
			l43.728-42.9c1.785-1.79,4.411-3.341,7.877-4.654l4.911,4.952c1.177,1.25,2.061,2.479,2.647,3.685
			c-4.095,0.697-7.548,2.464-10.359,5.302l-43.093,44.139c-4.928,5.031-6.829,10.216-5.704,15.55c0.419,1.989,1.316,3.88,2.692,5.67
			c3.931,5.241,8.766,7.259,14.499,6.051c5.494-1.157,10.702-4.46,15.627-9.905l38.697-43.088c3.502-3.898,4.512-8.977,3.027-15.234
			c-0.067-0.316-0.889-1.85-2.466-4.596c-0.281-2.518-0.662-4.518-1.14-5.997c-0.646-2.274-2.327-5.123-5.044-8.542
			C337.331,764.756,343.55,770.391,345.653,780.758z"/>
	</g>
</g>
<g id="mail" display="none">
</g>
<g id="annuaire">
	<g>
		<path fill="#AAAFB9" d="M440.021,582.099l-85.109,30.279l19.641,69.97H221.313l19.641-70.379l-24.141-8.593l-31.508,109.046
			l-19.641-18.412l44.806-92.885l-55.239-19.026l142.395-50.942L440.021,582.099z M360.845,674.573l-15.549-58.718l-47.057,16.777
			l-47.669-17.186l-15.549,59.126H360.845z M351.843,666.799H244.023l10.229-41.327l43.986,16.367l42.76-14.321L351.843,666.799z"/>
	</g>
</g>
</svg>
