<?xml version="1.0" encoding="utf-8"?>
<!-- Generator: Adobe Illustrator 16.0.0, SVG Export Plug-In . SVG Version: 6.00 Build 0)  -->
<!DOCTYPE svg PUBLIC "-//W3C//DTD SVG 1.1//EN" "http://www.w3.org/Graphics/SVG/1.1/DTD/svg11.dtd">
<svg version="1.1" xmlns="http://www.w3.org/2000/svg" xmlns:xlink="http://www.w3.org/1999/xlink" x="0px" y="0px"
	 width="301.921px" height="283.465px" viewBox="778.906 155.667 301.921 283.465"
	 enable-background="new 778.906 155.667 301.921 283.465" xml:space="preserve">
<g id="fond" display="none">
	<circle display="inline" fill="#20558A" cx="895.797" cy="142.03" r="141.116"/>
	<circle display="inline" fill="#20558A" cx="1197.872" cy="142.03" r="141.116"/>
	<circle display="inline" fill="#20558A" cx="895.797" cy="444.105" r="141.116"/>
	<circle display="inline" fill="#20558A" cx="1197.872" cy="444.105" r="141.116"/>
</g>
<g id="FOND_blanc">
	<rect x="783.53" y="-892.952" fill="#FFFFFF" width="281.505" height="2387.237"/>
	<rect x="-1421.522" y="-171.185" fill="#FFFFFF" width="2504.369" height="1248.557"/>
</g>
<g id="fond_-_copie" display="none">
	<circle display="inline" fill="#717881" cx="895.797" cy="142.03" r="141.116"/>
	<circle display="inline" fill="#717881" cx="1197.872" cy="142.03" r="141.116"/>
	<circle display="inline" fill="#717881" cx="895.797" cy="444.105" r="141.116"/>
	<circle display="inline" fill="#717881" cx="1197.872" cy="444.105" r="141.116"/>
</g>
<g id="A" display="none">
	<g id="Calque_2" display="inline">
	</g>
	<g id="Calque_7" display="inline">
	</g>
</g>
<g id="B" display="none">
	<g display="inline">
		<g>
			<path fill="#C89108" d="M833.444,427.757c7.274,0,13.811-2.359,19.612-7.078c2.949,1.278,5.185,2.263,6.709,2.949
				c1.523,0.688,3.563,1.673,6.12,2.949c2.556,1.278,4.521,2.385,5.898,3.317c1.376,0.936,2.973,2.139,4.792,3.613
				c1.818,1.475,3.146,2.875,3.982,4.203c0.834,1.326,1.548,2.875,2.138,4.645s0.885,3.639,0.885,5.604v50.579H783.308v-50.579
				c0.295-3.145,1.081-5.995,2.359-8.553c1.276-2.555,2.751-4.719,4.424-6.488c1.671-1.77,3.931-3.488,6.783-5.161
				c2.851-1.671,5.382-3.022,7.595-4.056c2.211-1.031,5.087-2.234,8.626-3.612C818.993,425.201,825.776,427.757,833.444,427.757z
				 M833.371,367.003c-7.227,0-13.396,2.558-18.507,7.668c-5.112,5.112-7.668,11.306-7.668,18.58c0,7.276,2.556,13.47,7.668,18.58
				c5.11,5.112,11.28,7.668,18.507,7.668c7.225,0,13.418-2.556,18.58-7.668c5.16-5.11,7.741-11.304,7.741-18.58
				c0-7.274-2.581-13.468-7.741-18.58C846.789,369.561,840.596,367.003,833.371,367.003z"/>
		</g>
	</g>
	<circle display="inline" fill="#20558A" cx="911.121" cy="490.467" r="68"/>
	<g display="inline">
		<g>
			<path fill="#C89108" d="M873.323,372.32v-9.053h90v9.053H873.323z"/>
			<path fill="#C89108" d="M873.323,397.32v-9.053h90v9.053H873.323z"/>
			<path fill="#C89108" d="M873.323,422.32v-9.053h90v9.053H873.323z"/>
		</g>
	</g>
</g>
<g id="C" display="none">
</g>
<g id="mail" display="none">
	<circle display="inline" fill="#FFFFFF" cx="987.281" cy="266.832" r="51.498"/>
	<g display="inline">
		<path fill="#AAAFB9" d="M993.364,339.693c-36.455,0-66.007-29.553-66.007-66.007c0-6.126,0.853-12.05,2.414-17.679h-85.016
			c-3.256,0-6.055,1.172-8.398,3.516s-3.516,5.21-3.516,8.594V376.32h172.266v-37.689
			C1001.295,339.316,997.375,339.693,993.364,339.693z"/>
		<path fill="#AAAFB9" d="M932.895,247.219c2.625-5.987,6.111-11.505,10.305-16.406h-38.678h-42.383h-9.375
			c-2.217,0-4.102,0.913-5.664,2.734c-1.563,1.825-2.344,4.038-2.344,6.641v4.688c0,0.913,0.127,1.694,0.391,2.344H932.895z"/>
	</g>
	<g display="inline" opacity="0.85">
		<path fill="#717881" d="M1023.857,230.09c4.608,4.61,8.28,10.098,11.016,16.465c2.733,6.368,4.102,13.048,4.102,20.039
			c0,6.992-1.368,13.672-4.102,20.039c-2.735,6.368-6.407,11.855-11.016,16.465c-4.61,4.61-10.078,8.281-16.406,11.016
			c-6.328,2.735-13.008,4.102-20.039,4.102s-13.711-1.366-20.039-4.102c-6.328-2.734-11.798-6.405-16.406-11.016
			c-4.61-4.609-8.282-10.097-11.016-16.465c-2.735-6.367-4.102-13.047-4.102-20.039c0-6.991,1.366-13.671,4.102-20.039
			c2.733-6.367,6.405-11.854,11.016-16.465c4.608-4.609,10.078-8.262,16.406-10.957s13.008-4.043,20.039-4.043
			s13.711,1.348,20.039,4.043S1019.247,225.48,1023.857,230.09z M979.561,258.801h-29.453v15.586h29.453l0,0h15.703l0,0h29.453
			v-15.586h-29.453"/>
	</g>
</g>
<g id="annuaire">
	<g>
		<g>
			<path fill="#6F90B8" d="M899.479,293.724h5.571c1.061,0,2.388,3.45,3.979,10.347h0.796l1.592-4.775
				c-1.063-1.697-1.592-3.024-1.592-3.979h5.571v0.796l-1.592,2.388l1.592,5.571h0.796c1.433-6.896,2.758-10.347,3.979-10.347h3.979
				c6.896,0.85,10.347,4.033,10.347,9.551v11.938c0,1.063-0.531,1.592-1.592,1.592h-40.591c-1.063,0-1.592-0.529-1.592-1.592V304.07
				C891.68,297.174,894.597,293.724,899.479,293.724z M912.214,265.071h0.796c6.367,0,10.611,4.775,12.734,14.326v1.592
				c-5.307,6.58-7.959,10.028-7.959,10.347c-2.282,1.592-4.405,2.388-6.367,2.388c-2.654-0.478-6.103-4.19-10.347-11.143
				c-1.063,0-1.592-0.53-1.592-1.592v-3.979c0.955-1.114,2.547-4.298,4.775-9.551C907.649,265.867,910.304,265.071,912.214,265.071z
				 M944.846,236.498h0.796c1.22,0,2.812,4.512,4.775,13.531c1.379,0,2.439-2.122,3.184-6.367c-1.592-2.07-2.388-3.662-2.388-4.775
				h7.084v1.592c-1.592,1.698-2.389,3.023-2.389,3.979c1.592,2.654,2.389,4.512,2.389,5.572h0.795
				c2.122-9.02,3.714-13.531,4.775-13.531c11.673,0.585,17.51,4.564,17.51,11.939v14.246c0,1.063-0.53,1.592-1.592,1.592h-50.062
				c-1.063,0-1.592-0.529-1.592-1.592v-11.859C928.132,241.273,933.703,236.498,944.846,236.498z M952.009,203.07h4.696
				c6.207,0,10.452,4.512,12.734,13.531c1.061,0.158,1.592,0.689,1.592,1.592v0.795c0,2.389-1.592,4.775-4.775,7.164
				c0,3.927-3.715,7.641-11.143,11.143c-4.775,0-8.994-4.244-12.655-12.734c-1.964,0-3.291-1.592-3.979-4.775
				c3.661-8.701,6.313-13.742,7.959-15.123L952.009,203.07z M952.805,267.459h4.695c1.062,0.213,1.592,0.744,1.592,1.592v26.265
				h11.143c1.062,0.159,1.592,0.69,1.592,1.592v4.775c0,1.062-0.53,1.592-1.592,1.592H940.07c-1.063,0-1.592-0.53-1.592-1.592
				v-4.775c0.159-1.061,0.688-1.592,1.592-1.592h11.143v-26.265C951.372,267.99,951.901,267.459,952.805,267.459z M983.766,293.724
				h5.57c1.062,0,2.389,3.45,3.98,10.347c1.061,0,1.856-1.592,2.387-4.775c-1.062-1.697-1.592-3.024-1.592-3.979h5.572v0.796
				l-1.592,2.388l1.592,5.571h0.795c1.434-6.896,2.759-10.347,3.98-10.347h5.57c4.404,0,7.322,3.184,8.756,9.551v11.938
				c0,1.063-0.531,1.592-1.592,1.592h-40.592c-1.062,0-1.592-0.529-1.592-1.592V304.07
				C975.965,297.174,978.883,293.724,983.766,293.724z M996.5,265.071h1.592c5.57,0,9.551,4.775,11.938,14.326v1.592
				c-3.184,3.078-4.775,5.466-4.775,7.163c-3.82,3.715-6.738,5.571-8.754,5.571c-2.707,0-6.421-3.714-11.143-11.143
				c-1.063,0-1.592-0.53-1.592-1.592v-3.979c2.705-5.358,5.094-9.073,7.162-11.143L996.5,265.071z"/>
		</g>
	</g>
	<circle fill="none" stroke="#95A7CB" stroke-width="15" stroke-miterlimit="10" cx="955.112" cy="268.854" r="94.509"/>
	<g>
		<g>
			<path fill="#C89108" d="M818.629,268.815c1.08,0.99,1.529,2.609,1.619,4.05c0,1.44-0.629,3.06-1.619,4.05L795.5,299.954
				c-1.08,1.08-2.52,1.71-4.051,1.71c-3.059,0-5.76-2.7-5.76-5.76c0-1.44,0.631-3.06,1.621-4.05l18.988-18.989l-18.988-18.989
				c-1.08-0.99-1.621-2.52-1.621-4.05c0-3.06,2.701-5.76,5.76-5.76c1.531,0,2.971,0.63,4.051,1.71L818.629,268.815z"/>
		</g>
	</g>
</g>
</svg>
