<?xml version="1.0" encoding="utf-8"?>
<!-- Generator: Adobe Illustrator 16.0.0, SVG Export Plug-In . SVG Version: 6.00 Build 0)  -->
<!DOCTYPE svg PUBLIC "-//W3C//DTD SVG 1.1//EN" "http://www.w3.org/Graphics/SVG/1.1/DTD/svg11.dtd">
<svg version="1.1" xmlns="http://www.w3.org/2000/svg" xmlns:xlink="http://www.w3.org/1999/xlink" x="0px" y="0px"
	 width="283.464px" height="283.465px" viewBox="-1091.957 -779.768 283.464 283.465"
	 enable-background="new -1091.957 -779.768 283.464 283.465" xml:space="preserve">
<g id="fond" display="none">
	<circle display="inline" fill="#20558A" cx="-916.652" cy="-462.119" r="141.116"/>
	<circle display="inline" fill="#20558A" cx="-916.652" cy="-764.195" r="141.116"/>
</g>
<g id="FOND_blanc" display="none">
	<rect x="-1091.751" y="-881.952" display="inline" fill="#717881" width="283.996" height="2394.188"/>
	<rect x="-1093.94" y="-895.904" display="inline" fill="#717881" width="287.011" height="724.431"/>
</g>
<g id="fond_-_copie" display="none">
	<circle display="inline" fill="#717881" cx="-916.652" cy="-462.119" r="141.116"/>
	<circle display="inline" fill="#717881" cx="-916.652" cy="-764.195" r="141.116"/>
</g>
<g id="A" display="none">
	<g display="inline">
		<path fill="#FFFFFF" d="M-904.027-467.918l24.238-35.669l99.485-72.68c11.146,3.598,17.095,11.63,17.846,24.099l-99.77,72.673
			L-904.027-467.918z M-890.638-481.484l3.961,5.212l22.296-6.117c3.288-2.787,4.945-4.869,4.973-6.247
			c0.011-0.57-0.135-0.989-0.437-1.257c-0.306-0.267-0.789-0.408-1.454-0.421c-1.379-0.027-3.771,0.757-7.178,2.353
			c2.905-2.651,4.375-4.88,4.411-6.686c0.018-0.902-0.217-1.584-0.708-2.046c-0.489-0.462-1.258-0.703-2.303-0.724
			c-1.094-0.021-3.342,0.742-6.749,2.29c3.045-2.506,4.587-4.732,4.626-6.682c0.01-0.522-0.125-0.917-0.405-1.185
			c-0.28-0.266-0.729-0.406-1.347-0.419c-2.139-0.042-4.437,0.839-6.898,2.645L-890.638-481.484z M-871.048-505.695
			c0.812-0.174,1.479-0.256,2.002-0.246c1.899,0.038,2.833,0.96,2.797,2.766l-0.085,0.711l59.985-44.086
			c-1.545-1.219-3.071-2.176-4.578-2.872L-871.048-505.695z M-864.322-499.715c2.174,0.566,3.24,1.989,3.195,4.271l60.275-44.295
			c-0.682-1.582-1.652-3.004-2.911-4.265L-864.322-499.715z M-859.116-492.624c0.902,0.065,1.563,0.305,1.983,0.717
			c0.419,0.412,0.622,0.999,0.607,1.759c-0.013,0.666-0.342,1.634-0.985,2.903l59.912-43.944c-0.53-2.054-1.113-3.849-1.748-5.383
			L-859.116-492.624z M-798.12-558.865c7.099,3.943,11.446,10.066,13.04,18.369l18.594-13.535
			c-1.49-8.774-5.886-14.828-13.188-18.158L-798.12-558.865z"/>
	</g>
	<g display="inline">
		<path fill="#FFFFFF" d="M-971.238-468.356c6.937,0,13.17-2.25,18.703-6.75c2.813,1.22,4.943,2.158,6.398,2.813
			c1.452,0.657,3.396,1.595,5.836,2.813c2.437,1.22,4.311,2.274,5.625,3.164c1.312,0.892,2.834,2.039,4.57,3.445
			c1.733,1.406,2.999,2.742,3.797,4.008c0.795,1.266,1.477,2.742,2.039,4.43s0.844,3.47,0.844,5.344v48.234h-95.625v-48.234
			c0.281-2.999,1.03-5.717,2.25-8.156c1.217-2.437,2.623-4.5,4.219-6.188c1.593-1.688,3.748-3.327,6.469-4.922
			c2.718-1.593,5.133-2.883,7.242-3.867s4.852-2.131,8.227-3.445C-985.02-470.793-978.551-468.356-971.238-468.356z
			 M-971.309-526.294c-6.891,0-12.775,2.439-17.648,7.313c-4.876,4.876-7.313,10.782-7.313,17.719
			c0,6.939,2.437,12.845,7.313,17.719c4.873,4.876,10.758,7.313,17.648,7.313s12.797-2.437,17.719-7.313
			c4.922-4.874,7.383-10.78,7.383-17.719c0-6.937-2.461-12.843-7.383-17.719C-958.512-523.855-964.418-526.294-971.309-526.294z"/>
	</g>
	<g id="Calque_2" display="inline">
	</g>
	<g id="Calque_7" display="inline">
	</g>
</g>
<g id="B" display="none">
	<g display="inline">
		<path fill="#FFFFFF" d="M-849.642-687.267c0,6.3-5.601,19.25-20.301,19.25c-15.05,0-20.3-10.851-20.3-19.25
			c0-11.551,9.1-19.601,20.3-19.601C-862.942-706.867-849.642-702.317-849.642-687.267z"/>
		<path fill="#FFFFFF" d="M-849.642-759.012c0,6.3-5.601,19.25-20.301,19.25c-15.05,0-20.3-10.851-20.3-19.25
			c0-11.551,9.1-19.601,20.3-19.601C-862.942-778.612-849.642-774.063-849.642-759.012z"/>
		<path fill="#FFFFFF" d="M-933.642-687.267c0,6.3-5.601,19.25-20.301,19.25c-15.05,0-20.3-10.851-20.3-19.25
			c0-11.551,9.1-19.601,20.3-19.601C-946.942-706.867-933.642-702.317-933.642-687.267z"/>
	</g>
	<g display="inline" opacity="0.7">
		<path fill="#FFFFFF" d="M-990.757-506.393l144.591,1.976c4.153,0.058,6.22,4.427,6.203,13.104l3.848,78.162
			c-3.28,8.635-8.626,12.899-16.042,12.798l-144.591-1.976c-4.152-0.057-6.219-4.424-6.202-13.104l-3.849-78.162
			C-1003.52-502.228-998.17-506.494-990.757-506.393z"/>
	</g>
	<g display="inline">
		<path fill="#FFFFFF" d="M-974.396-774.664l-10.08,30.527h-12.959l32.975-97.054h15.12l33.12,97.054h-13.392l-10.368-30.527
			H-974.396z M-942.573-784.456l-9.504-27.936c-2.16-6.335-3.6-12.096-5.04-17.711h-0.288c-1.44,5.76-3.024,11.664-4.896,17.568
			l-9.504,28.079H-942.573z"/>
	</g>
</g>
<g id="C" display="none">
</g>
<g id="mail" display="none">
	<g display="inline">
		<path fill="#D5DCEA" d="M-1026.689-625.638c0,33.595,7.304,59.145,21.914,76.65c13.515,16.171,32.109,24.258,55.781,24.258
			c9.141,0,18.75-2.231,28.828-6.69c10.078-4.46,18.516-10.149,25.313-17.068l8.906,11.754
			c-17.344,18.422-38.36,27.634-63.047,27.634c-63.829,0-95.742-38.847-95.742-116.538h-49.453l56.484-66.397l60.937,66.397
			H-1026.689z M-870.245-648.645c0-30.926-9.336-55.476-28.008-73.649c-17.501-17.087-39.844-25.633-67.031-25.633
			c-8.438,0-16.602,1.75-24.492,5.251l-5.625-12.879c10.234-5.252,21.171-7.878,32.813-7.878c30.859,0,56.561,9.712,77.109,29.135
			c22.342,21.175,33.516,49.725,33.516,85.653h48.281l-56.484,69.647l-57.539-69.647H-870.245z"/>
	</g>
</g>
<g id="annuaire">
	<g>
		<path fill="#FFFFFF" d="M-1068.81-561.171h12.202c2.323,0,5.229,7.556,8.716,22.661h1.743l3.486-10.459
			c-2.326-3.718-3.486-6.624-3.486-8.716h12.202v1.743l-3.486,5.229l3.486,12.202h1.743c3.138-15.105,6.041-22.661,8.716-22.661
			h8.716c15.105,1.86,22.661,8.833,22.661,20.918v26.147c0,2.326-1.163,3.486-3.486,3.486h-88.901c-2.326,0-3.486-1.16-3.486-3.486
			v-24.404C-1085.893-553.616-1079.503-561.171-1068.81-561.171z M-1040.919-623.925h1.743c13.945,0,23.241,10.459,27.891,31.377
			v3.486c-11.622,14.411-17.432,21.964-17.432,22.661c-4.998,3.486-9.647,5.229-13.945,5.229
			c-5.813-1.046-13.365-9.179-22.661-24.404c-2.326,0-3.486-1.16-3.486-3.486v-8.716c2.092-2.44,5.578-9.413,10.459-20.918
			C-1050.915-622.182-1045.103-623.925-1040.919-623.925z M-969.449-686.505h1.743c2.672,0,6.158,9.879,10.459,29.634
			c3.021,0,5.344-4.646,6.973-13.945c-3.486-4.532-5.229-8.019-5.229-10.459h15.514v3.486c-3.486,3.721-5.229,6.624-5.229,8.716
			c3.486,5.813,5.229,9.879,5.229,12.202h1.744c4.646-19.755,8.133-29.634,10.459-29.634c25.564,1.28,38.35,9.996,38.35,26.147
			v31.203c0,2.326-1.163,3.486-3.486,3.486h-109.646c-2.326,0-3.486-1.16-3.486-3.486v-25.973
			C-1006.056-676.046-993.854-686.505-969.449-686.505z M-953.761-759.718h10.284c13.598,0,22.894,9.879,27.891,29.634
			c2.324,0.349,3.486,1.512,3.486,3.486v1.743c0,5.229-3.486,10.459-10.459,15.688c0,8.602-8.135,16.734-24.404,24.404
			c-10.459,0-19.697-9.296-27.716-27.891c-4.301,0-7.207-3.486-8.716-10.459c8.019-19.058,13.828-30.097,17.432-33.12
			L-953.761-759.718z M-952.018-618.696h10.285c2.323,0.466,3.486,1.629,3.486,3.486v57.524h24.404
			c2.323,0.349,3.486,1.512,3.486,3.486v10.459c0,2.326-1.163,3.486-3.486,3.486h-66.066c-2.326,0-3.486-1.16-3.486-3.486v-10.459
			c0.349-2.323,1.509-3.486,3.486-3.486h24.404v-57.524C-955.155-617.533-953.995-618.696-952.018-618.696z M-884.209-561.171
			h12.203c2.323,0,5.229,7.556,8.715,22.661c2.324,0,4.067-3.486,5.23-10.459c-2.326-3.718-3.486-6.624-3.486-8.716h12.201v1.743
			l-3.486,5.229l3.486,12.202h1.744c3.137-15.105,6.041-22.661,8.715-22.661h12.203c9.645,0,16.037,6.973,19.174,20.918v26.147
			c0,2.326-1.162,3.486-3.486,3.486h-88.9c-2.326,0-3.486-1.16-3.486-3.486v-24.404
			C-901.291-553.616-894.901-561.171-884.209-561.171z M-856.318-623.925h3.486c12.203,0,20.918,10.459,26.148,31.377v3.486
			c-6.973,6.741-10.459,11.971-10.459,15.688c-8.367,8.136-14.76,12.202-19.176,12.202c-5.926,0-14.062-8.133-24.404-24.404
			c-2.325,0-3.486-1.16-3.486-3.486v-8.716c5.928-11.736,11.156-19.872,15.689-24.404L-856.318-623.925z"/>
	</g>
</g>
</svg>
